<?xml version="1.0" encoding="UTF-8" standalone="no"?>
<!-- Created with Inkscape (http://www.inkscape.org/) -->

<svg
   xmlns:ns0="http://www.iki.fi/pav/software/textext/"
   xmlns:dc="http://purl.org/dc/elements/1.1/"
   xmlns:cc="http://creativecommons.org/ns#"
   xmlns:rdf="http://www.w3.org/1999/02/22-rdf-syntax-ns#"
   xmlns:svg="http://www.w3.org/2000/svg"
   xmlns="http://www.w3.org/2000/svg"
   xmlns:sodipodi="http://sodipodi.sourceforge.net/DTD/sodipodi-0.dtd"
   xmlns:inkscape="http://www.inkscape.org/namespaces/inkscape"
   sodipodi:docname="drawAxes.svg"
   inkscape:version="0.91 r"
   version="1.1"
   id="svg2"
   viewBox="0 0 744.09448819 1052.3622047"
   height="297mm"
   width="210mm"
   inkscape:export-xdpi="529.0335693359"
   inkscape:export-ydpi="529.0335693359">
  <sodipodi:namedview
     inkscape:window-maximized="1"
     inkscape:window-y="-6"
     inkscape:window-x="-4"
     inkscape:window-height="1062"
     inkscape:window-width="1920"
     inkscape:snap-text-baseline="true"
     inkscape:object-nodes="true"
     showgrid="true"
     inkscape:current-layer="svg2"
     inkscape:document-units="px"
     inkscape:cy="580.5233922814"
     inkscape:cx="269.9124446089"
     inkscape:zoom="4.897333641764"
     inkscape:pageshadow="2"
     inkscape:pageopacity="0.0"
     borderopacity="1.0"
     bordercolor="#666666"
     pagecolor="#ffffff"
     id="base">
    <inkscape:grid
       type="xygrid"
       id="grid5816" />
  </sodipodi:namedview>
  <defs
     id="defs4">
    <marker
       inkscape:stockid="InfiniteLineStart"
       style="overflow:visible"
       refY="0.0"
       refX="0.0"
       orient="auto"
       id="InfiniteLineStart">
      <path
         id="path5738"
         transform="translate(-6.0, 0)"
         style="stroke-width:1.0;stroke:none;fill:#0000FF;fill-rule:evenodd"
         d="M 0.500000 0.000000 a 0.500000 0.500000 0 1 1 -1.000000 0.000000 a 0.500000 0.500000 0 1 1 1.000000 0.000000 z M 2.500000 0.000000 a 0.500000 0.500000 0 1 1 -1.000000 0.000000 a 0.500000 0.500000 0 1 1 1.000000 0.000000 z M 4.500000 0.000000 a 0.500000 0.500000 0 1 1 -1.000000 0.000000 a 0.500000 0.500000 0 1 1 1.000000 0.000000 z " />
    </marker>
    <marker
       inkscape:stockid="InfiniteLineEnd"
       style="overflow:visible"
       refY="0.0"
       refX="0.0"
       orient="auto"
       id="InfiniteLineEnd">
      <path
         id="path5741"
         transform="translate(2.0, 0)"
         style="stroke-width:1.0;stroke:none;fill:#0000FF;fill-rule:evenodd"
         d="M 0.500000 0.000000 a 0.500000 0.500000 0 1 1 -1.000000 0.000000 a 0.500000 0.500000 0 1 1 1.000000 0.000000 z M 2.500000 0.000000 a 0.500000 0.500000 0 1 1 -1.000000 0.000000 a 0.500000 0.500000 0 1 1 1.000000 0.000000 z M 4.500000 0.000000 a 0.500000 0.500000 0 1 1 -1.000000 0.000000 a 0.500000 0.500000 0 1 1 1.000000 0.000000 z " />
    </marker>
    <marker
       inkscape:stockid="ArrowAxisStart"
       style="overflow:visible"
       refY="0.0"
       refX="0.0"
       orient="auto"
       id="ArrowAxisStart">
      <path
         id="path5744"
         transform="scale(0.4) rotate(0) translate(8.818,0)"
         style="stroke-width:1.0;stroke:#000000;fill:#000000;fill-rule:evenodd"
         d="M 0.0,0.0 L 5.0,-5.0 L -12.5,0.0 L 5.0,5.0 L 0.0,0.0 z " />
    </marker>
    <marker
       inkscape:stockid="ArrowAxisEnd"
       style="overflow:visible"
       refY="0.0"
       refX="0.0"
       orient="auto"
       id="ArrowAxisEnd">
      <path
         id="path5747"
         transform="scale(0.4) rotate(180) translate(8.818,0)"
         style="stroke-width:1.0;stroke:#000000;fill:#000000;fill-rule:evenodd"
         d="M 0.0,0.0 L 5.0,-5.0 L -12.5,0.0 L 5.0,5.0 L 0.0,0.0 z " />
    </marker>
  </defs>
  <metadata
     id="metadata7">
    <rdf:RDF>
      <cc:Work
         rdf:about="">
        <dc:format>image/svg+xml</dc:format>
        <dc:type
           rdf:resource="http://purl.org/dc/dcmitype/StillImage" />
        <dc:title></dc:title>
      </cc:Work>
    </rdf:RDF>
  </metadata>
  <g
     id="layer1"
     inkscape:groupmode="layer"
     inkscape:label="Layer 1" />
  <g
     inkscape:export-ydpi="529.0335693359"
     inkscape:export-xdpi="529.0335693359"
     inkscape:label="PlotData"
     id="g5633"
     transform="translate(0,-2.637817382813)">
    <g
       inkscape:label="Plot"
       transform="translate(190,540)"
       id="g5635">
      <g
         inkscape:label="Ticks"
         id="g5637">
        <path
           d="m 20,0 0,-40"
           style="fill:none;stroke:#b2b2b2;stroke-width:0.400000006;stroke-linecap:round;stroke-linejoin:round;stroke-dasharray:none"
           inkscape:label="none"
           id="path5639"
           inkscape:connector-curvature="0" />
        <path
           d="m 40,0 0,-40"
           style="fill:none;stroke:#b2b2b2;stroke-width:0.400000006;stroke-linecap:round;stroke-linejoin:round;stroke-dasharray:none"
           inkscape:label="none"
           id="path5641"
           inkscape:connector-curvature="0" />
        <path
           d="m -20,0 0,-40"
           style="fill:none;stroke:#b2b2b2;stroke-width:0.400000006;stroke-linecap:round;stroke-linejoin:round;stroke-dasharray:none"
           inkscape:label="none"
           id="path5643"
           inkscape:connector-curvature="0" />
        <path
           d="m -40,0 0,-40"
           style="fill:none;stroke:#b2b2b2;stroke-width:0.400000006;stroke-linecap:round;stroke-linejoin:round;stroke-dasharray:none"
           inkscape:label="none"
           id="path5645"
           inkscape:connector-curvature="0" />
        <path
           d="m -40,-20 80,0"
           style="fill:none;stroke:#b2b2b2;stroke-width:0.400000006;stroke-linecap:round;stroke-linejoin:round;stroke-dasharray:none"
           inkscape:label="none"
           id="path5647"
           inkscape:connector-curvature="0" />
        <path
           d="m -40,-40 80,0"
           style="fill:none;stroke:#b2b2b2;stroke-width:0.400000006;stroke-linecap:round;stroke-linejoin:round;stroke-dasharray:none"
           inkscape:label="none"
           id="path5649"
           inkscape:connector-curvature="0" />
      </g>
      <g
         inkscape:label="Axis"
         id="g5651">
        <path
           d="M -40,0 50,0"
           style="fill:none;stroke:#4c4c4c;stroke-width:0.571428597;stroke-linecap:round;stroke-linejoin:round;stroke-dasharray:none;marker-end:url(#ArrowAxisEnd)"
           inkscape:label="Xaxis"
           id="path5653"
           inkscape:connector-curvature="0" />
        <g
           id="content"
           xml:space="preserve"
           stroke-miterlimit="10.433"
           font-style="normal"
           font-variant="normal"
           font-weight="normal"
           font-stretch="normal"
           font-size-adjust="none"
           letter-spacing="normal"
           word-spacing="normal"
           ns0:text=" $x$"
           ns0:preamble="/home/fernando/.config/inkscape/extensions/textextLib/basicLatexPackages.tex"
           transform="matrix(0.739645,0,0,-0.739645,-117.140046,358.735221)"
           style="font-style:normal;font-variant:normal;font-weight:normal;font-stretch:normal;letter-spacing:normal;word-spacing:normal;text-anchor:start;fill:none;fill-opacity:1;fill-rule:evenodd;stroke:#000000;stroke-linecap:butt;stroke-linejoin:miter;stroke-miterlimit:10.4329996109;stroke-dasharray:none;stroke-dashoffset:0;stroke-opacity:1"><path
             d="m 226.76,480.23 0,0.03 0.01,0.03 0.01,0.03 0.01,0.04 0.01,0.04 0.01,0.04 0.01,0.04 0.02,0.05 0.01,0.04 0.02,0.05 0.02,0.05 0.02,0.05 0.02,0.05 0.03,0.05 0.02,0.05 0.03,0.05 0.03,0.05 0.03,0.04 0.03,0.05 0.04,0.04 0.04,0.05 0.04,0.04 0.04,0.04 0.04,0.03 0.05,0.03 0.05,0.03 0.02,0.01 0.03,0.02 0.02,0.01 0.03,0.01 0.03,0.01 0.03,0 0.03,0.01 0.02,0.01 0.04,0 0.03,0 0.03,0.01 0.03,0 c 0.05,0 0.29,0 0.5,-0.13 -0.28,-0.05 -0.48,-0.3 -0.48,-0.54 0,-0.16 0.11,-0.35 0.38,-0.35 0.22,0 0.54,0.18 0.54,0.58 0,0.52 -0.59,0.66 -0.93,0.66 -0.58,0 -0.93,-0.53 -1.04,-0.76 -0.25,0.66 -0.79,0.76 -1.08,0.76 -1.03,0 -1.6,-1.29 -1.6,-1.53 0,-0.1 0.1,-0.1 0.12,-0.1 0.08,0 0.11,0.02 0.13,0.11 0.34,1.05 0.99,1.3 1.33,1.3 0.19,0 0.54,-0.09 0.54,-0.67 0,-0.31 -0.17,-0.97 -0.54,-2.36 -0.16,-0.62 -0.51,-1.04 -0.94,-1.04 -0.06,0 -0.29,0 -0.5,0.13 0.25,0.05 0.47,0.26 0.47,0.54 0,0.27 -0.22,0.35 -0.37,0.35 -0.3,0 -0.55,-0.26 -0.55,-0.58 0,-0.46 0.5,-0.65 0.94,-0.65 0.65,0 1.01,0.69 1.04,0.75 0.12,-0.37 0.48,-0.75 1.07,-0.75 1.03,0 1.6,1.28 1.6,1.53 0,0.1 -0.09,0.1 -0.12,0.1 -0.09,0 -0.11,-0.05 -0.13,-0.11 -0.33,-1.07 -1.01,-1.31 -1.33,-1.31 -0.38,0 -0.54,0.32 -0.54,0.66 0,0.22 0.06,0.44 0.17,0.87 z"
             style="fill:#000000;stroke-width:0"
             id="path5656"
             inkscape:connector-curvature="0" /></g>        <path
           d="M 0,0 0,-55"
           style="fill:none;stroke:#4c4c4c;stroke-width:0.571428597;stroke-linecap:round;stroke-linejoin:round;stroke-dasharray:none;marker-end:url(#ArrowAxisEnd)"
           inkscape:label="Yaxis"
           id="path5658"
           inkscape:connector-curvature="0" />
        <g
           id="g5660"
           xml:space="preserve"
           stroke-miterlimit="10.433"
           font-style="normal"
           font-variant="normal"
           font-weight="normal"
           font-stretch="normal"
           font-size-adjust="none"
           letter-spacing="normal"
           word-spacing="normal"
           ns0:text=" $y(x)=x^2$"
           ns0:preamble="/home/fernando/.config/inkscape/extensions/textextLib/basicLatexPackages.tex"
           transform="matrix(0.739645,0,0,-0.739645,-162.973379,304.075458)"
           style="font-style:normal;font-variant:normal;font-weight:normal;font-stretch:normal;letter-spacing:normal;word-spacing:normal;text-anchor:start;fill:none;fill-opacity:1;fill-rule:evenodd;stroke:#000000;stroke-linecap:butt;stroke-linejoin:miter;stroke-miterlimit:10.4329996109;stroke-dasharray:none;stroke-dashoffset:0;stroke-opacity:1"><path
             d="m 228.27,481.02 0,0.01 0,0 0,0.01 0,0 0.01,0.02 0,0.01 0,0.01 0.01,0.01 0,0.01 0,0 0,0.01 0,0.01 0.01,0.01 0,0.01 0,0 0,0.01 0,0 0,0.01 0,0.01 0,0 0,0.01 0,0 0.01,0.01 0,0.01 0,0.01 0,0.01 0,0.01 0,0.01 0,0 0,0.01 c 0,0.18 -0.14,0.27 -0.29,0.27 -0.1,0 -0.26,-0.06 -0.35,-0.21 -0.02,-0.05 -0.1,-0.36 -0.14,-0.54 -0.07,-0.26 -0.14,-0.53 -0.2,-0.79 l -0.45,-1.79 c -0.03,-0.15 -0.46,-0.85 -1.12,-0.85 -0.51,0 -0.62,0.44 -0.62,0.81 0,0.46 0.17,1.07 0.51,1.95 0.16,0.4 0.2,0.51 0.2,0.71 0,0.45 -0.32,0.82 -0.82,0.82 -0.94,0 -1.31,-1.45 -1.31,-1.53 0,-0.1 0.1,-0.1 0.12,-0.1 0.1,0 0.11,0.02 0.16,0.17 0.27,0.94 0.67,1.24 1,1.24 0.08,0 0.25,0 0.25,-0.32 0,-0.25 -0.1,-0.51 -0.17,-0.7 -0.39,-1.05 -0.57,-1.62 -0.57,-2.08 0,-0.89 0.62,-1.18 1.21,-1.18 0.39,0 0.73,0.17 1.01,0.44 -0.13,-0.51 -0.25,-1 -0.65,-1.53 -0.26,-0.34 -0.64,-0.62 -1.1,-0.62 -0.13,0 -0.58,0.03 -0.75,0.41 0.16,0 0.29,0 0.43,0.12 0.1,0.09 0.19,0.22 0.19,0.41 0,0.31 -0.26,0.35 -0.36,0.35 -0.23,0 -0.56,-0.16 -0.56,-0.65 0,-0.49 0.44,-0.86 1.05,-0.86 1.03,0 2.05,0.9 2.33,2.03 z"
             style="fill:#000000;stroke-width:0"
             id="path5662"
             inkscape:connector-curvature="0" /><path
             d="m 231.97,474.85 0,0.01 0,0 0,0 0,0.01 0,0 -0.01,0 0,0.01 0,0 0,0 0,0.01 0,0 -0.01,0.01 0,0 0,0.01 -0.01,0 0,0.01 -0.01,0.01 0,0 -0.01,0.01 0,0 0,0.01 -0.01,0 0,0 -0.01,0.01 0,0 0,0.01 -0.01,0 0,0.01 -0.01,0 0,0.01 -0.01,0 0,0.01 -0.01,0.01 -0.01,0 0,0.01 -0.01,0.01 -0.01,0 0,0.01 -0.01,0.01 -0.01,0 0,0.01 -0.01,0.01 c -1.25,1.25 -1.56,3.13 -1.56,4.65 0,1.73 0.37,3.45 1.6,4.7 0.13,0.12 0.13,0.14 0.13,0.17 0,0.07 -0.04,0.09 -0.1,0.09 -0.1,0 -1,-0.67 -1.58,-1.93 -0.51,-1.09 -0.63,-2.2 -0.63,-3.03 0,-0.78 0.11,-1.98 0.66,-3.1 0.59,-1.22 1.45,-1.87 1.55,-1.87 0.06,0 0.1,0.03 0.1,0.1 z"
             style="fill:#000000;stroke-width:0"
             id="path5664"
             inkscape:connector-curvature="0" /><path
             d="m 235.87,480.23 0.01,0.03 0,0.03 0.01,0.03 0.01,0.04 0.01,0.04 0.01,0.04 0.02,0.04 0.01,0.05 0.02,0.04 0.02,0.05 0.01,0.05 0.03,0.05 0.02,0.05 0.02,0.05 0.03,0.05 0.03,0.05 0.02,0.05 0.04,0.04 0.03,0.05 0.03,0.04 0.04,0.05 0.04,0.04 0.04,0.04 0.05,0.03 0.04,0.03 0.05,0.03 0.03,0.01 0.02,0.02 0.03,0.01 0.03,0.01 0.02,0.01 0.03,0 0.03,0.01 0.03,0.01 0.03,0 0.03,0 0.03,0.01 0.04,0 c 0.05,0 0.29,0 0.49,-0.13 -0.28,-0.05 -0.47,-0.3 -0.47,-0.54 0,-0.16 0.11,-0.35 0.37,-0.35 0.22,0 0.54,0.18 0.54,0.58 0,0.52 -0.59,0.66 -0.92,0.66 -0.58,0 -0.93,-0.53 -1.05,-0.76 -0.25,0.66 -0.78,0.76 -1.07,0.76 -1.04,0 -1.6,-1.29 -1.6,-1.53 0,-0.1 0.09,-0.1 0.11,-0.1 0.08,0 0.11,0.02 0.13,0.11 0.34,1.05 1,1.3 1.34,1.3 0.19,0 0.53,-0.09 0.53,-0.67 0,-0.31 -0.16,-0.97 -0.53,-2.36 -0.16,-0.62 -0.51,-1.04 -0.95,-1.04 -0.06,0 -0.29,0 -0.5,0.13 0.25,0.05 0.47,0.26 0.47,0.54 0,0.27 -0.22,0.35 -0.37,0.35 -0.29,0 -0.54,-0.26 -0.54,-0.58 0,-0.46 0.49,-0.65 0.93,-0.65 0.66,0 1.02,0.69 1.05,0.75 0.12,-0.37 0.47,-0.75 1.07,-0.75 1.03,0 1.59,1.28 1.59,1.53 0,0.1 -0.09,0.1 -0.12,0.1 -0.09,0 -0.11,-0.05 -0.13,-0.11 -0.32,-1.07 -1,-1.31 -1.32,-1.31 -0.39,0 -0.55,0.32 -0.55,0.66 0,0.22 0.06,0.44 0.17,0.87 z"
             style="fill:#000000;stroke-width:0"
             id="path5666"
             inkscape:connector-curvature="0" /><path
             d="m 241.12,479.72 0,0.07 0,0.08 -0.01,0.08 0,0.08 -0.01,0.17 -0.01,0.17 -0.01,0.18 -0.03,0.19 -0.02,0.2 -0.04,0.2 -0.04,0.2 -0.04,0.21 -0.05,0.21 -0.07,0.21 -0.07,0.21 -0.07,0.21 -0.05,0.11 -0.04,0.11 -0.05,0.1 -0.05,0.11 c -0.6,1.22 -1.45,1.86 -1.55,1.86 -0.06,0 -0.1,-0.03 -0.1,-0.09 0,-0.03 0,-0.05 0.19,-0.23 0.97,-0.99 1.54,-2.56 1.54,-4.64 0,-1.7 -0.37,-3.45 -1.6,-4.7 -0.13,-0.12 -0.13,-0.14 -0.13,-0.17 0,-0.06 0.04,-0.1 0.1,-0.1 0.1,0 0.99,0.68 1.58,1.94 0.51,1.09 0.63,2.19 0.63,3.03 z"
             style="fill:#000000;stroke-width:0"
             id="path5668"
             inkscape:connector-curvature="0" /><path
             d="m 251.72,480.48 0.03,0 0.03,0 0.03,0 0.01,0.01 0.02,0 0.01,0 0.02,0 0.01,0 0.01,0 0.02,0.01 0.01,0 0.01,0 0.02,0.01 0.01,0 0.01,0.01 0.01,0 0.01,0.01 0.01,0.01 0.01,0.01 0.01,0.01 0.01,0.01 0,0 0,0.01 0.01,0 0,0.01 0,0.01 0.01,0 0,0.01 0,0.01 0,0 0,0.01 0.01,0.01 0,0.01 0,0.01 0,0 0,0.01 0,0.01 c 0,0.2 -0.19,0.2 -0.33,0.2 l -5.96,0 c -0.14,0 -0.33,0 -0.33,-0.2 0,-0.2 0.19,-0.2 0.34,-0.2 z"
             style="fill:#000000;stroke-width:0"
             id="path5670"
             inkscape:connector-curvature="0" /><path
             d="m 251.73,478.56 0.01,0 0.02,0 0.03,0 0.02,0 0.02,0 0.01,0 0.01,0 0.02,0 0.01,0 0.02,0.01 0.01,0 0.01,0 0.01,0.01 0.02,0 0.01,0.01 0.01,0 0.01,0.01 0.01,0 0.01,0.01 0.01,0.01 0.01,0.01 0,0 0.01,0.01 0,0.01 0,0 0.01,0.01 0,0 0,0.01 0.01,0.01 0,0 0,0.01 0,0.01 0,0 0.01,0.01 0,0.01 0,0.01 0,0.01 0,0.01 0,0.01 c 0,0.19 -0.19,0.19 -0.34,0.19 l -5.94,0 c -0.15,0 -0.34,0 -0.34,-0.19 0,-0.2 0.19,-0.2 0.33,-0.2 z"
             style="fill:#000000;stroke-width:0"
             id="path5672"
             inkscape:connector-curvature="0" /><path
             d="m 258.72,480.23 0.01,0.03 0.01,0.03 0,0.03 0.01,0.04 0.01,0.04 0.02,0.04 0.01,0.04 0.01,0.05 0.02,0.04 0.02,0.05 0.02,0.05 0.02,0.05 0.02,0.05 0.02,0.05 0.03,0.05 0.03,0.05 0.03,0.05 0.03,0.04 0.03,0.05 0.04,0.04 0.03,0.05 0.04,0.04 0.04,0.04 0.05,0.03 0.05,0.03 0.04,0.03 0.03,0.01 0.02,0.02 0.03,0.01 0.03,0.01 0.03,0.01 0.02,0 0.03,0.01 0.03,0.01 0.03,0 0.03,0 0.04,0.01 0.03,0 c 0.05,0 0.29,0 0.5,-0.13 -0.28,-0.05 -0.48,-0.3 -0.48,-0.54 0,-0.16 0.11,-0.35 0.38,-0.35 0.22,0 0.53,0.18 0.53,0.58 0,0.52 -0.58,0.66 -0.92,0.66 -0.58,0 -0.93,-0.53 -1.05,-0.76 -0.25,0.66 -0.78,0.76 -1.07,0.76 -1.04,0 -1.6,-1.29 -1.6,-1.53 0,-0.1 0.1,-0.1 0.12,-0.1 0.08,0 0.11,0.02 0.13,0.11 0.33,1.05 0.99,1.3 1.33,1.3 0.19,0 0.54,-0.09 0.54,-0.67 0,-0.31 -0.17,-0.97 -0.54,-2.36 -0.16,-0.62 -0.51,-1.04 -0.95,-1.04 -0.06,0 -0.28,0 -0.49,0.13 0.25,0.05 0.46,0.26 0.46,0.54 0,0.27 -0.21,0.35 -0.36,0.35 -0.3,0 -0.55,-0.26 -0.55,-0.58 0,-0.46 0.5,-0.65 0.93,-0.65 0.66,0 1.02,0.69 1.05,0.75 0.12,-0.37 0.48,-0.75 1.07,-0.75 1.03,0 1.59,1.28 1.59,1.53 0,0.1 -0.09,0.1 -0.12,0.1 -0.08,0 -0.1,-0.05 -0.12,-0.11 -0.33,-1.07 -1.01,-1.31 -1.33,-1.31 -0.38,0 -0.54,0.32 -0.54,0.66 0,0.22 0.05,0.44 0.17,0.87 z"
             style="fill:#000000;stroke-width:0"
             id="path5674"
             inkscape:connector-curvature="0" /><path
             d="m 264.61,482.12 -0.24,0 c -0.02,-0.16 -0.09,-0.57 -0.18,-0.64 -0.05,-0.04 -0.59,-0.04 -0.69,-0.04 l -1.28,0 c 0.73,0.65 0.98,0.84 1.39,1.17 0.52,0.41 1,0.84 1,1.5 0,0.84 -0.74,1.36 -1.63,1.36 -0.86,0 -1.45,-0.61 -1.45,-1.25 0,-0.35 0.3,-0.39 0.37,-0.39 0.17,0 0.37,0.12 0.37,0.37 0,0.13 -0.05,0.37 -0.41,0.37 0.22,0.5 0.69,0.65 1.02,0.65 0.69,0 1.05,-0.54 1.05,-1.11 0,-0.6 -0.43,-1.08 -0.65,-1.33 l -1.68,-1.66 c -0.07,-0.06 -0.07,-0.07 -0.07,-0.27 l 2.87,0 z"
             style="fill:#000000;stroke-width:0"
             id="path5676"
             inkscape:connector-curvature="0" /></g>      </g>
    </g>
    <path
       d="m 150,500 0.8,1.584 0.8,1.552 0.8,1.52 0.8,1.488 0.8,1.456 0.8,1.424 0.8,1.392 0.8,1.36 0.8,1.328 0.8,1.296 0.8,1.264 0.8,1.232 0.8,1.2 0.8,1.168 0.8,1.136 0.8,1.104 0.8,1.072 0.8,1.04 0.8,1.008 0.8,0.976 0.8,0.944 0.8,0.912 0.8,0.88 0.8,0.848 0.8,0.816 0.8,0.784 0.8,0.752 0.8,0.72 0.8,0.688 0.8,0.656 0.8,0.624 0.8,0.592 0.8,0.56 0.8,0.528 0.8,0.496 0.8,0.464 0.8,0.432 0.8,0.4 0.8,0.368 0.8,0.336 0.8,0.304 0.8,0.272 0.8,0.24 0.8,0.208 0.8,0.176 0.8,0.144 0.8,0.112 0.8,0.08 0.8,0.048 0.8,0.016 0.8,-0.016 0.8,-0.048 0.8,-0.08 0.8,-0.112 0.8,-0.144 0.8,-0.176 0.8,-0.208 0.8,-0.24 0.8,-0.272 0.8,-0.304 0.8,-0.336 0.8,-0.368 0.8,-0.4 0.8,-0.432 0.8,-0.464 0.8,-0.496 0.8,-0.528 0.8,-0.56 0.8,-0.592 0.8,-0.624 0.8,-0.656 0.8,-0.688 0.8,-0.72 0.8,-0.752 0.8,-0.784 0.8,-0.816 0.8,-0.848 0.8,-0.88 0.8,-0.912 0.8,-0.944 0.8,-0.976 0.8,-1.008 0.8,-1.04 0.8,-1.072 0.8,-1.104 0.8,-1.136 0.8,-1.168 0.8,-1.2 0.8,-1.232 0.8,-1.264 0.8,-1.296 0.8,-1.328 0.8,-1.36 0.8,-1.392 0.8,-1.424 0.8,-1.456 0.8,-1.488 0.8,-1.52 0.8,-1.552 L 230,500"
       style="fill:none;stroke:#0000ff;stroke-width:0.6666666865;stroke-linecap:round;stroke-linejoin:round;stroke-dasharray:none;marker-start:url(#InfiniteLineStart);marker-end:url(#InfiniteLineEnd)"
       inkscape:label="none"
       id="path5678"
       inkscape:connector-curvature="0" />
  </g>
  <g
     id="g5775"
     inkscape:label="PlotData"
     transform="translate(50,37.36218261719)"
     inkscape:export-xdpi="529.0335693359"
     inkscape:export-ydpi="529.0335693359">
    <path
       id="path5777"
       inkscape:label="none"
       style="fill:none;stroke:#0000ff;stroke-width:0.6666666865;stroke-linecap:round;stroke-linejoin:round;stroke-dasharray:none;marker-start:url(#InfiniteLineStart);marker-end:url(#InfiniteLineEnd)"
       d="m 220,460 0.8,1.584 0.8,1.552 0.8,1.52 0.8,1.488 0.8,1.456 0.8,1.424 0.8,1.392 0.8,1.36 0.8,1.328 0.8,1.296 0.8,1.264 0.8,1.232 0.8,1.2 0.8,1.168 0.8,1.136 0.8,1.104 0.8,1.072 0.8,1.04 0.8,1.008 0.8,0.976 0.8,0.944 0.8,0.912 0.8,0.88 0.8,0.848 0.8,0.816 0.8,0.784 0.8,0.752 0.8,0.72 0.8,0.688 0.8,0.656 0.8,0.624 0.8,0.592 0.8,0.56 0.8,0.528 0.8,0.496 0.8,0.464 0.8,0.432 0.8,0.4 0.8,0.368 0.8,0.336 0.8,0.304 0.8,0.272 0.8,0.24 0.8,0.208 0.8,0.176 0.8,0.144 0.8,0.112 0.8,0.08 0.8,0.048 0.8,0.016 0.8,-0.016 0.8,-0.048 0.8,-0.08 0.8,-0.112 0.8,-0.144 0.8,-0.176 0.8,-0.208 0.8,-0.24 0.8,-0.272 0.8,-0.304 0.8,-0.336 0.8,-0.368 0.8,-0.4 0.8,-0.432 0.8,-0.464 0.8,-0.496 0.8,-0.528 0.8,-0.56 0.8,-0.592 0.8,-0.624 0.8,-0.656 0.8,-0.688 0.8,-0.72 0.8,-0.752 0.8,-0.784 0.8,-0.816 0.8,-0.848 0.8,-0.88 0.8,-0.912 0.8,-0.944 0.8,-0.976 0.8,-1.008 0.8,-1.04 0.8,-1.072 0.8,-1.104 0.8,-1.136 0.8,-1.168 0.8,-1.2 0.8,-1.232 0.8,-1.264 0.8,-1.296 0.8,-1.328 0.8,-1.36 0.8,-1.392 0.8,-1.424 0.8,-1.456 0.8,-1.488 0.8,-1.52 0.8,-1.552 L 300,460"
       inkscape:connector-curvature="0" />
  </g>
  <text
     xml:space="preserve"
     style="color:#000000;font-style:normal;font-variant:normal;font-weight:normal;font-stretch:normal;font-size:10px;line-height:100%;font-family:Verdana;-inkscape-font-specification:Verdana;text-indent:0;text-align:center;text-decoration:none;text-decoration-line:none;text-decoration-style:solid;text-decoration-color:#000000;letter-spacing:0px;word-spacing:0px;text-transform:none;direction:ltr;block-progression:tb;writing-mode:lr-tb;baseline-shift:baseline;text-anchor:middle;white-space:normal;clip-rule:nonzero;display:inline;overflow:visible;visibility:visible;opacity:1;isolation:auto;mix-blend-mode:normal;color-interpolation:sRGB;color-interpolation-filters:linearRGB;solid-color:#000000;solid-opacity:1;fill:#000000;fill-opacity:1;fill-rule:nonzero;stroke:none;stroke-width:1px;stroke-linecap:butt;stroke-linejoin:miter;stroke-miterlimit:4;stroke-dasharray:none;stroke-dashoffset:0;stroke-opacity:1;color-rendering:auto;image-rendering:auto;shape-rendering:auto;text-rendering:auto;enable-background:accumulate"
     x="190"
     y="472.36218"
     id="text5818"
     sodipodi:linespacing="100%"
     inkscape:export-xdpi="529.0335693359"
     inkscape:export-ydpi="529.0335693359"><tspan
       sodipodi:role="line"
       id="tspan5820"
       x="190"
       y="472.36218">with axes</tspan></text>
  <text
     xml:space="preserve"
     style="font-style:normal;font-variant:normal;font-weight:normal;font-stretch:normal;font-size:10px;line-height:100%;font-family:Verdana;-inkscape-font-specification:Verdana;text-align:center;letter-spacing:0px;word-spacing:0px;writing-mode:lr-tb;text-anchor:middle;fill:#000000;fill-opacity:1;stroke:none;stroke-width:1px;stroke-linecap:butt;stroke-linejoin:miter;stroke-opacity:1"
     x="310"
     y="472.36218"
     id="text5822"
     sodipodi:linespacing="100%"
     inkscape:export-xdpi="529.0335693359"
     inkscape:export-ydpi="529.0335693359"><tspan
       sodipodi:role="line"
       id="tspan5824"
       x="310"
       y="472.36218">without axes</tspan></text>
</svg>
