<?xml version="1.0" encoding="UTF-8" standalone="no"?>
<!-- Created with Inkscape (http://www.inkscape.org/) -->

<svg
   xmlns:ns0="http://www.iki.fi/pav/software/textext/"
   xmlns:dc="http://purl.org/dc/elements/1.1/"
   xmlns:cc="http://creativecommons.org/ns#"
   xmlns:rdf="http://www.w3.org/1999/02/22-rdf-syntax-ns#"
   xmlns:svg="http://www.w3.org/2000/svg"
   xmlns="http://www.w3.org/2000/svg"
   xmlns:sodipodi="http://sodipodi.sourceforge.net/DTD/sodipodi-0.dtd"
   xmlns:inkscape="http://www.inkscape.org/namespaces/inkscape"
   sodipodi:docname="ellipsis.svg"
   inkscape:version="0.91 r"
   version="1.1"
   id="svg2"
   viewBox="0 0 744.09448819 1052.3622047"
   height="297mm"
   width="210mm">
  <sodipodi:namedview
     inkscape:window-maximized="1"
     inkscape:window-y="-6"
     inkscape:window-x="-4"
     inkscape:window-height="1062"
     inkscape:window-width="1920"
     inkscape:snap-text-baseline="true"
     inkscape:object-nodes="true"
     showgrid="false"
     inkscape:current-layer="svg2"
     inkscape:document-units="px"
     inkscape:cy="550.7708003536"
     inkscape:cx="218.3974676698"
     inkscape:zoom="6.925875653822"
     inkscape:pageshadow="2"
     inkscape:pageopacity="0.0"
     borderopacity="1.0"
     bordercolor="#666666"
     pagecolor="#ffffff"
     id="base" />
  <defs
     id="defs4">
    <marker
       inkscape:stockid="InfiniteLineStart"
       style="overflow:visible"
       refY="0.0"
       refX="0.0"
       orient="auto"
       id="InfiniteLineStart">
      <path
         id="path5620"
         transform="translate(-6.0, 0)"
         style="stroke-width:1.0;stroke:none;fill:#0000FF;fill-rule:evenodd"
         d="M 0.500000 0.000000 a 0.500000 0.500000 0 1 1 -1.000000 0.000000 a 0.500000 0.500000 0 1 1 1.000000 0.000000 z M 2.500000 0.000000 a 0.500000 0.500000 0 1 1 -1.000000 0.000000 a 0.500000 0.500000 0 1 1 1.000000 0.000000 z M 4.500000 0.000000 a 0.500000 0.500000 0 1 1 -1.000000 0.000000 a 0.500000 0.500000 0 1 1 1.000000 0.000000 z " />
    </marker>
    <marker
       inkscape:stockid="InfiniteLineEnd"
       style="overflow:visible"
       refY="0.0"
       refX="0.0"
       orient="auto"
       id="InfiniteLineEnd">
      <path
         id="path5623"
         transform="translate(2.0, 0)"
         style="stroke-width:1.0;stroke:none;fill:#0000FF;fill-rule:evenodd"
         d="M 0.500000 0.000000 a 0.500000 0.500000 0 1 1 -1.000000 0.000000 a 0.500000 0.500000 0 1 1 1.000000 0.000000 z M 2.500000 0.000000 a 0.500000 0.500000 0 1 1 -1.000000 0.000000 a 0.500000 0.500000 0 1 1 1.000000 0.000000 z M 4.500000 0.000000 a 0.500000 0.500000 0 1 1 -1.000000 0.000000 a 0.500000 0.500000 0 1 1 1.000000 0.000000 z " />
    </marker>
    <marker
       inkscape:stockid="ArrowAxisStart"
       style="overflow:visible"
       refY="0.0"
       refX="0.0"
       orient="auto"
       id="ArrowAxisStart">
      <path
         id="path5626"
         transform="scale(0.4) rotate(0) translate(8.818,0)"
         style="stroke-width:1.0;stroke:#000000;fill:#000000;fill-rule:evenodd"
         d="M 0.0,0.0 L 5.0,-5.0 L -12.5,0.0 L 5.0,5.0 L 0.0,0.0 z " />
    </marker>
    <marker
       inkscape:stockid="ArrowAxisEnd"
       style="overflow:visible"
       refY="0.0"
       refX="0.0"
       orient="auto"
       id="ArrowAxisEnd">
      <path
         id="path5629"
         transform="scale(0.4) rotate(180) translate(8.818,0)"
         style="stroke-width:1.0;stroke:#000000;fill:#000000;fill-rule:evenodd"
         d="M 0.0,0.0 L 5.0,-5.0 L -12.5,0.0 L 5.0,5.0 L 0.0,0.0 z " />
    </marker>
  </defs>
  <metadata
     id="metadata7">
    <rdf:RDF>
      <cc:Work
         rdf:about="">
        <dc:format>image/svg+xml</dc:format>
        <dc:type
           rdf:resource="http://purl.org/dc/dcmitype/StillImage" />
        <dc:title></dc:title>
      </cc:Work>
    </rdf:RDF>
  </metadata>
  <g
     inkscape:label="Layer 1"
     inkscape:groupmode="layer"
     id="layer1" />
  <g
     id="g5633"
     inkscape:label="PlotData"
     inkscape:export-xdpi="861.0637207031"
     inkscape:export-ydpi="861.0637207031">
    <g
       id="g5635"
       transform="translate(190.000000 540.000000)"
       inkscape:label="Plot">
      <g
         id="g5637"
         inkscape:label="Ticks">
        <path
           id="path5639"
           inkscape:label="none"
           style="stroke-linejoin:round;stroke:#B2B2B2;stroke-linecap:round;stroke-dasharray:none;stroke-width:0.4;fill:none"
           d="M  20.0 0.0 20.0 -40.0" />
        <path
           id="path5641"
           inkscape:label="none"
           style="stroke-linejoin:round;stroke:#B2B2B2;stroke-linecap:round;stroke-dasharray:none;stroke-width:0.4;fill:none"
           d="M  40.0 0.0 40.0 -40.0" />
        <path
           id="path5643"
           inkscape:label="none"
           style="stroke-linejoin:round;stroke:#B2B2B2;stroke-linecap:round;stroke-dasharray:none;stroke-width:0.4;fill:none"
           d="M  -20.0 0.0 -20.0 -40.0" />
        <path
           id="path5645"
           inkscape:label="none"
           style="stroke-linejoin:round;stroke:#B2B2B2;stroke-linecap:round;stroke-dasharray:none;stroke-width:0.4;fill:none"
           d="M  -40.0 0.0 -40.0 -40.0" />
        <path
           id="path5647"
           inkscape:label="none"
           style="stroke-linejoin:round;stroke:#B2B2B2;stroke-linecap:round;stroke-dasharray:none;stroke-width:0.4;fill:none"
           d="M  -40.0 -20.0 40.0 -20.0" />
        <path
           id="path5649"
           inkscape:label="none"
           style="stroke-linejoin:round;stroke:#B2B2B2;stroke-linecap:round;stroke-dasharray:none;stroke-width:0.4;fill:none"
           d="M  -40.0 -40.0 40.0 -40.0" />
      </g>
      <g
         id="g5651"
         inkscape:label="Axis">
        <path
           id="path5653"
           inkscape:label="Xaxis"
           style="stroke-linejoin:round;marker-end:url(#ArrowAxisEnd);stroke:#4C4C4C;stroke-linecap:round;stroke-dasharray:none;stroke-width:0.571428571429;fill:none"
           d="M  -40.0 0.0 50.0 0.0" />
        <g
           transform="translate(48.333333 2.500000) translate(-165.473379 356.235221) scale(0.739645 -0.739645)  "
           ns0:preamble="/home/fernando/.config/inkscape/extensions/textextLib/basicLatexPackages.tex"
           ns0:text=" $x$"
           text-anchor="start"
           word-spacing="normal"
           letter-spacing="normal"
           font-size-adjust="none"
           font-stretch="normal"
           font-weight="normal"
           font-variant="normal"
           font-style="normal"
           fill-opacity="1"
           fill-rule="evenodd"
           fill="none"
           stroke-opacity="1"
           stroke-dashoffset="0"
           stroke-dasharray="none"
           stroke-miterlimit="10.433"
           stroke-linejoin="miter"
           stroke-linecap="butt"
           stroke="black"
           xml:space="preserve"
           id="content"><path
             id="path5656"
             style="fill:#000000;stroke-width:0"
             fill="black"
             stroke-width="0"
             d="M226.76,480.23 L226.76,480.26 L226.77,480.29 L226.78,480.32 L226.79,480.36 L226.8,480.4 L226.81,480.44 L226.82,480.48 L226.84,480.53 L226.85,480.57 L226.87,480.62 L226.89,480.67 L226.91,480.72 L226.93,480.77 L226.96,480.82 L226.98,480.87 L227.01,480.92 L227.04,480.97 L227.07,481.01 L227.1,481.06 L227.14,481.1 L227.18,481.15 L227.22,481.19 L227.26,481.23 L227.3,481.26 L227.35,481.29 L227.4,481.32 L227.42,481.33 L227.45,481.35 L227.47,481.36 L227.5,481.37 L227.53,481.38 L227.56,481.38 L227.59,481.39 L227.61,481.4 L227.65,481.4 L227.68,481.4 L227.71,481.41 L227.74,481.41 C227.79,481.41,228.03,481.41,228.24,481.28 C227.96,481.23,227.76,480.98,227.76,480.74 C227.76,480.58,227.87,480.39,228.14,480.39 C228.36,480.39,228.68,480.57,228.68,480.97 C228.68,481.49,228.09,481.63,227.75,481.63 C227.17,481.63,226.82,481.1,226.71,480.87 C226.46,481.53,225.92,481.63,225.63,481.63 C224.6,481.63,224.03,480.34,224.03,480.1 C224.03,480,224.13,480,224.15,480 C224.23,480,224.26,480.02,224.28,480.11 C224.62,481.16,225.27,481.41,225.61,481.41 C225.8,481.41,226.15,481.32,226.15,480.74 C226.15,480.43,225.98,479.77,225.61,478.38 C225.45,477.76,225.1,477.34,224.67,477.34 C224.61,477.34,224.38,477.34,224.17,477.47 C224.42,477.52,224.64,477.73,224.64,478.01 C224.64,478.28,224.42,478.36,224.27,478.36 C223.97,478.36,223.72,478.1,223.72,477.78 C223.72,477.32,224.22,477.13,224.66,477.13 C225.31,477.13,225.67,477.82,225.7,477.88 C225.82,477.51,226.18,477.13,226.77,477.13 C227.8,477.13,228.37,478.41,228.37,478.66 C228.37,478.76,228.28,478.76,228.25,478.76 C228.16,478.76,228.14,478.71,228.12,478.65 C227.79,477.58,227.11,477.34,226.79,477.34 C226.41,477.34,226.25,477.66,226.25,478 C226.25,478.22,226.31,478.44,226.42,478.87 Z " /></g>        <path
           id="path5658"
           inkscape:label="Yaxis"
           style="stroke-linejoin:round;marker-end:url(#ArrowAxisEnd);stroke:#4C4C4C;stroke-linecap:round;stroke-dasharray:none;stroke-width:0.571428571429;fill:none"
           d="M  0.0 0.0 0.0 -55.0" />
        <g
           transform="translate(2.500000 -55.000000) translate(-165.473379 359.075458) scale(0.739645 -0.739645)  "
           ns0:preamble="/home/fernando/.config/inkscape/extensions/textextLib/basicLatexPackages.tex"
           ns0:text=" $y(x)=x^2$"
           text-anchor="start"
           word-spacing="normal"
           letter-spacing="normal"
           font-size-adjust="none"
           font-stretch="normal"
           font-weight="normal"
           font-variant="normal"
           font-style="normal"
           fill-opacity="1"
           fill-rule="evenodd"
           fill="none"
           stroke-opacity="1"
           stroke-dashoffset="0"
           stroke-dasharray="none"
           stroke-miterlimit="10.433"
           stroke-linejoin="miter"
           stroke-linecap="butt"
           stroke="black"
           xml:space="preserve"
           id="g5660"><path
             id="path5662"
             style="fill:#000000;stroke-width:0"
             fill="black"
             stroke-width="0"
             d="M228.27,481.02 L228.27,481.03 L228.27,481.03 L228.27,481.04 L228.27,481.04 L228.28,481.06 L228.28,481.07 L228.28,481.08 L228.29,481.09 L228.29,481.1 L228.29,481.1 L228.29,481.11 L228.29,481.12 L228.3,481.13 L228.3,481.14 L228.3,481.14 L228.3,481.15 L228.3,481.15 L228.3,481.16 L228.3,481.17 L228.3,481.17 L228.3,481.18 L228.3,481.18 L228.31,481.19 L228.31,481.2 L228.31,481.21 L228.31,481.22 L228.31,481.23 L228.31,481.24 L228.31,481.24 L228.31,481.25 C228.31,481.43,228.17,481.52,228.02,481.52 C227.92,481.52,227.76,481.46,227.67,481.31 C227.65,481.26,227.57,480.95,227.53,480.77 C227.46,480.51,227.39,480.24,227.33,479.98 L226.88,478.19 C226.85,478.04,226.42,477.34,225.76,477.34 C225.25,477.34,225.14,477.78,225.14,478.15 C225.14,478.61,225.31,479.22,225.65,480.1 C225.81,480.5,225.85,480.61,225.85,480.81 C225.85,481.26,225.53,481.63,225.03,481.63 C224.09,481.63,223.72,480.18,223.72,480.1 C223.72,480,223.82,480,223.84,480 C223.94,480,223.95,480.02,224,480.17 C224.27,481.11,224.67,481.41,225,481.41 C225.08,481.41,225.25,481.41,225.25,481.09 C225.25,480.84,225.15,480.58,225.08,480.39 C224.69,479.34,224.51,478.77,224.51,478.31 C224.51,477.42,225.13,477.13,225.72,477.13 C226.11,477.13,226.45,477.3,226.73,477.57 C226.6,477.06,226.48,476.57,226.08,476.04 C225.82,475.7,225.44,475.42,224.98,475.42 C224.85,475.42,224.4,475.45,224.23,475.83 C224.39,475.83,224.52,475.83,224.66,475.95 C224.76,476.04,224.85,476.17,224.85,476.36 C224.85,476.67,224.59,476.71,224.49,476.71 C224.26,476.71,223.93,476.55,223.93,476.06 C223.93,475.57,224.37,475.2,224.98,475.2 C226.01,475.2,227.03,476.1,227.31,477.23 Z " /><path
             id="path5664"
             style="fill:#000000;stroke-width:0"
             fill="black"
             stroke-width="0"
             d="M231.97,474.85 L231.97,474.86 L231.97,474.86 L231.97,474.86 L231.97,474.87 L231.97,474.87 L231.96,474.87 L231.96,474.88 L231.96,474.88 L231.96,474.88 L231.96,474.89 L231.96,474.89 L231.95,474.9 L231.95,474.9 L231.95,474.91 L231.94,474.91 L231.94,474.92 L231.93,474.93 L231.93,474.93 L231.92,474.94 L231.92,474.94 L231.92,474.95 L231.91,474.95 L231.91,474.95 L231.9,474.96 L231.9,474.96 L231.9,474.97 L231.89,474.97 L231.89,474.98 L231.88,474.98 L231.88,474.99 L231.87,474.99 L231.87,475 L231.86,475.01 L231.85,475.01 L231.85,475.02 L231.84,475.03 L231.83,475.03 L231.83,475.04 L231.82,475.05 L231.81,475.05 L231.81,475.06 L231.8,475.07 C230.55,476.32,230.24,478.2,230.24,479.72 C230.24,481.45,230.61,483.17,231.84,484.42 C231.97,484.54,231.97,484.56,231.97,484.59 C231.97,484.66,231.93,484.68,231.87,484.68 C231.77,484.68,230.87,484.01,230.29,482.75 C229.78,481.66,229.66,480.55,229.66,479.72 C229.66,478.94,229.77,477.74,230.32,476.62 C230.91,475.4,231.77,474.75,231.87,474.75 C231.93,474.75,231.97,474.78,231.97,474.85 Z " /><path
             id="path5666"
             style="fill:#000000;stroke-width:0"
             fill="black"
             stroke-width="0"
             d="M235.87,480.23 L235.88,480.26 L235.88,480.29 L235.89,480.32 L235.9,480.36 L235.91,480.4 L235.92,480.44 L235.94,480.48 L235.95,480.53 L235.97,480.57 L235.99,480.62 L236,480.67 L236.03,480.72 L236.05,480.77 L236.07,480.82 L236.1,480.87 L236.13,480.92 L236.15,480.97 L236.19,481.01 L236.22,481.06 L236.25,481.1 L236.29,481.15 L236.33,481.19 L236.37,481.23 L236.42,481.26 L236.46,481.29 L236.51,481.32 L236.54,481.33 L236.56,481.35 L236.59,481.36 L236.62,481.37 L236.64,481.38 L236.67,481.38 L236.7,481.39 L236.73,481.4 L236.76,481.4 L236.79,481.4 L236.82,481.41 L236.86,481.41 C236.91,481.41,237.15,481.41,237.35,481.28 C237.07,481.23,236.88,480.98,236.88,480.74 C236.88,480.58,236.99,480.39,237.25,480.39 C237.47,480.39,237.79,480.57,237.79,480.97 C237.79,481.49,237.2,481.63,236.87,481.63 C236.29,481.63,235.94,481.1,235.82,480.87 C235.57,481.53,235.04,481.63,234.75,481.63 C233.71,481.63,233.15,480.34,233.15,480.1 C233.15,480,233.24,480,233.26,480 C233.34,480,233.37,480.02,233.39,480.11 C233.73,481.16,234.39,481.41,234.73,481.41 C234.92,481.41,235.26,481.32,235.26,480.74 C235.26,480.43,235.1,479.77,234.73,478.38 C234.57,477.76,234.22,477.34,233.78,477.34 C233.72,477.34,233.49,477.34,233.28,477.47 C233.53,477.52,233.75,477.73,233.75,478.01 C233.75,478.28,233.53,478.36,233.38,478.36 C233.09,478.36,232.84,478.1,232.84,477.78 C232.84,477.32,233.33,477.13,233.77,477.13 C234.43,477.13,234.79,477.82,234.82,477.88 C234.94,477.51,235.29,477.13,235.89,477.13 C236.92,477.13,237.48,478.41,237.48,478.66 C237.48,478.76,237.39,478.76,237.36,478.76 C237.27,478.76,237.25,478.71,237.23,478.65 C236.91,477.58,236.23,477.34,235.91,477.34 C235.52,477.34,235.36,477.66,235.36,478 C235.36,478.22,235.42,478.44,235.53,478.87 Z " /><path
             id="path5668"
             style="fill:#000000;stroke-width:0"
             fill="black"
             stroke-width="0"
             d="M241.12,479.72 L241.12,479.79 L241.12,479.87 L241.11,479.95 L241.11,480.03 L241.1,480.2 L241.09,480.37 L241.08,480.55 L241.05,480.74 L241.03,480.94 L240.99,481.14 L240.95,481.34 L240.91,481.55 L240.86,481.76 L240.79,481.97 L240.72,482.18 L240.65,482.39 L240.6,482.5 L240.56,482.61 L240.51,482.71 L240.46,482.82 C239.86,484.04,239.01,484.68,238.91,484.68 C238.85,484.68,238.81,484.65,238.81,484.59 C238.81,484.56,238.81,484.54,239,484.36 C239.97,483.37,240.54,481.8,240.54,479.72 C240.54,478.02,240.17,476.27,238.94,475.02 C238.81,474.9,238.81,474.88,238.81,474.85 C238.81,474.79,238.85,474.75,238.91,474.75 C239.01,474.75,239.9,475.43,240.49,476.69 C241,477.78,241.12,478.88,241.12,479.72 Z " /><path
             id="path5670"
             style="fill:#000000;stroke-width:0"
             fill="black"
             stroke-width="0"
             d="M251.72,480.48 L251.75,480.48 L251.78,480.48 L251.81,480.48 L251.82,480.49 L251.84,480.49 L251.85,480.49 L251.87,480.49 L251.88,480.49 L251.89,480.49 L251.91,480.5 L251.92,480.5 L251.93,480.5 L251.95,480.51 L251.96,480.51 L251.97,480.52 L251.98,480.52 L251.99,480.53 L252,480.54 L252.01,480.55 L252.02,480.56 L252.03,480.57 L252.03,480.57 L252.03,480.58 L252.04,480.58 L252.04,480.59 L252.04,480.6 L252.05,480.6 L252.05,480.61 L252.05,480.62 L252.05,480.62 L252.05,480.63 L252.06,480.64 L252.06,480.65 L252.06,480.66 L252.06,480.66 L252.06,480.67 L252.06,480.68 C252.06,480.88,251.87,480.88,251.73,480.88 H245.77 C245.63,480.88,245.44,480.88,245.44,480.68 C245.44,480.48,245.63,480.48,245.78,480.48 Z " /><path
             id="path5672"
             style="fill:#000000;stroke-width:0"
             fill="black"
             stroke-width="0"
             d="M251.73,478.56 L251.74,478.56 L251.76,478.56 L251.79,478.56 L251.81,478.56 L251.83,478.56 L251.84,478.56 L251.85,478.56 L251.87,478.56 L251.88,478.56 L251.9,478.57 L251.91,478.57 L251.92,478.57 L251.93,478.58 L251.95,478.58 L251.96,478.59 L251.97,478.59 L251.98,478.6 L251.99,478.6 L252,478.61 L252.01,478.62 L252.02,478.63 L252.02,478.63 L252.03,478.64 L252.03,478.65 L252.03,478.65 L252.04,478.66 L252.04,478.66 L252.04,478.67 L252.05,478.68 L252.05,478.68 L252.05,478.69 L252.05,478.7 L252.05,478.7 L252.06,478.71 L252.06,478.72 L252.06,478.73 L252.06,478.74 L252.06,478.75 L252.06,478.76 C252.06,478.95,251.87,478.95,251.72,478.95 H245.78 C245.63,478.95,245.44,478.95,245.44,478.76 C245.44,478.56,245.63,478.56,245.77,478.56 Z " /><path
             id="path5674"
             style="fill:#000000;stroke-width:0"
             fill="black"
             stroke-width="0"
             d="M258.72,480.23 L258.73,480.26 L258.74,480.29 L258.74,480.32 L258.75,480.36 L258.76,480.4 L258.78,480.44 L258.79,480.48 L258.8,480.53 L258.82,480.57 L258.84,480.62 L258.86,480.67 L258.88,480.72 L258.9,480.77 L258.92,480.82 L258.95,480.87 L258.98,480.92 L259.01,480.97 L259.04,481.01 L259.07,481.06 L259.11,481.1 L259.14,481.15 L259.18,481.19 L259.22,481.23 L259.27,481.26 L259.32,481.29 L259.36,481.32 L259.39,481.33 L259.41,481.35 L259.44,481.36 L259.47,481.37 L259.5,481.38 L259.52,481.38 L259.55,481.39 L259.58,481.4 L259.61,481.4 L259.64,481.4 L259.68,481.41 L259.71,481.41 C259.76,481.41,260,481.41,260.21,481.28 C259.93,481.23,259.73,480.98,259.73,480.74 C259.73,480.58,259.84,480.39,260.11,480.39 C260.33,480.39,260.64,480.57,260.64,480.97 C260.64,481.49,260.06,481.63,259.72,481.63 C259.14,481.63,258.79,481.1,258.67,480.87 C258.42,481.53,257.89,481.63,257.6,481.63 C256.56,481.63,256,480.34,256,480.1 C256,480,256.1,480,256.12,480 C256.2,480,256.23,480.02,256.25,480.11 C256.58,481.16,257.24,481.41,257.58,481.41 C257.77,481.41,258.12,481.32,258.12,480.74 C258.12,480.43,257.95,479.77,257.58,478.38 C257.42,477.76,257.07,477.34,256.63,477.34 C256.57,477.34,256.35,477.34,256.14,477.47 C256.39,477.52,256.6,477.73,256.6,478.01 C256.6,478.28,256.39,478.36,256.24,478.36 C255.94,478.36,255.69,478.1,255.69,477.78 C255.69,477.32,256.19,477.13,256.62,477.13 C257.28,477.13,257.64,477.82,257.67,477.88 C257.79,477.51,258.15,477.13,258.74,477.13 C259.77,477.13,260.33,478.41,260.33,478.66 C260.33,478.76,260.24,478.76,260.21,478.76 C260.13,478.76,260.11,478.71,260.09,478.65 C259.76,477.58,259.08,477.34,258.76,477.34 C258.38,477.34,258.22,477.66,258.22,478 C258.22,478.22,258.27,478.44,258.39,478.87 Z " /><path
             id="path5676"
             style="fill:#000000;stroke-width:0"
             fill="black"
             stroke-width="0"
             d="M264.61,482.12 H264.37 C264.35,481.96,264.28,481.55,264.19,481.48 C264.14,481.44,263.6,481.44,263.5,481.44 H262.22 C262.95,482.09,263.2,482.28,263.61,482.61 C264.13,483.02,264.61,483.45,264.61,484.11 C264.61,484.95,263.87,485.47,262.98,485.47 C262.12,485.47,261.53,484.86,261.53,484.22 C261.53,483.87,261.83,483.83,261.9,483.83 C262.07,483.83,262.27,483.95,262.27,484.2 C262.27,484.33,262.22,484.57,261.86,484.57 C262.08,485.07,262.55,485.22,262.88,485.22 C263.57,485.22,263.93,484.68,263.93,484.11 C263.93,483.51,263.5,483.03,263.28,482.78 L261.6,481.12 C261.53,481.06,261.53,481.05,261.53,480.85 H264.4 Z " /></g>      </g>
    </g>
    <path
       id="path5678"
       inkscape:label="none"
       style="stroke-linejoin:round;marker-end:url(#InfiniteLineEnd);marker-start:url(#InfiniteLineStart);stroke:#0000FF;stroke-linecap:round;stroke-dasharray:none;stroke-width:0.666666666667;fill:none"
       d="M  150.0 500.0 150.8 501.584 151.6 503.136 152.4 504.656 153.2 506.144 154.0 507.6 154.8 509.024 155.6 510.416 156.4 511.776 157.2 513.104 158.0 514.4 158.8 515.664 159.6 516.896 160.4 518.096 161.2 519.264 162.0 520.4 162.8 521.504 163.6 522.576 164.4 523.616 165.2 524.624 166.0 525.6 166.8 526.544 167.6 527.456 168.4 528.336 169.2 529.184 170.0 530.0 170.8 530.784 171.6 531.536 172.4 532.256 173.2 532.944 174.0 533.6 174.8 534.224 175.6 534.816 176.4 535.376 177.2 535.904 178.0 536.4 178.8 536.864 179.6 537.296 180.4 537.696 181.2 538.064 182.0 538.4 182.8 538.704 183.6 538.976 184.4 539.216 185.2 539.424 186.0 539.6 186.8 539.744 187.6 539.856 188.4 539.936 189.2 539.984 190.0 540.0 190.8 539.984 191.6 539.936 192.4 539.856 193.2 539.744 194.0 539.6 194.8 539.424 195.6 539.216 196.4 538.976 197.2 538.704 198.0 538.4 198.8 538.064 199.6 537.696 200.4 537.296 201.2 536.864 202.0 536.4 202.8 535.904 203.6 535.376 204.4 534.816 205.2 534.224 206.0 533.6 206.8 532.944 207.6 532.256 208.4 531.536 209.2 530.784 210.0 530.0 210.8 529.184 211.6 528.336 212.4 527.456 213.2 526.544 214.0 525.6 214.8 524.624 215.6 523.616 216.4 522.576 217.2 521.504 218.0 520.4 218.8 519.264 219.6 518.096 220.4 516.896 221.2 515.664 222.0 514.4 222.8 513.104 223.6 511.776 224.4 510.416 225.2 509.024 226.0 507.6 226.8 506.144 227.6 504.656 228.4 503.136 229.2 501.584 230.0 500.0" />
  </g>
</svg>
