<?xml version="1.0" encoding="UTF-8" standalone="no"?>
<!-- Created with Inkscape (http://www.inkscape.org/) -->

<svg
   xmlns:ns0="http://www.iki.fi/pav/software/textext/"
   xmlns:dc="http://purl.org/dc/elements/1.1/"
   xmlns:cc="http://creativecommons.org/ns#"
   xmlns:rdf="http://www.w3.org/1999/02/22-rdf-syntax-ns#"
   xmlns:svg="http://www.w3.org/2000/svg"
   xmlns="http://www.w3.org/2000/svg"
   xmlns:sodipodi="http://sodipodi.sourceforge.net/DTD/sodipodi-0.dtd"
   xmlns:inkscape="http://www.inkscape.org/namespaces/inkscape"
   width="210mm"
   height="297mm"
   viewBox="0 0 744.09448819 1052.3622047"
   id="svg2"
   version="1.1"
   inkscape:version="0.91 r"
   sodipodi:docname="Legend_01.svg"
   inkscape:export-xdpi="83.8299407959"
   inkscape:export-ydpi="83.8299407959">
  <sodipodi:namedview
     id="base"
     pagecolor="#ffffff"
     bordercolor="#666666"
     borderopacity="1.0"
     inkscape:pageopacity="0.0"
     inkscape:pageshadow="2"
     inkscape:zoom="2.40624999873"
     inkscape:cx="428.4878347693"
     inkscape:cy="477.315836411"
     inkscape:document-units="px"
     inkscape:current-layer="svg2"
     showgrid="true"
     inkscape:object-nodes="true"
     inkscape:snap-text-baseline="true"
     inkscape:window-width="1920"
     inkscape:window-height="1062"
     inkscape:window-x="-4"
     inkscape:window-y="-6"
     inkscape:window-maximized="1">
    <inkscape:grid
       type="xygrid"
       id="grid5700" />
  </sodipodi:namedview>
  <defs
     id="defs4">
    <marker
       inkscape:stockid="ArrowAxisStart"
       style="overflow:visible"
       refY="0.0"
       refX="0.0"
       orient="auto"
       id="ArrowAxisStart">
      <path
         id="path5345"
         transform="scale(0.4) rotate(0) translate(8.818,0)"
         style="stroke-width:1.0;stroke:#000000;fill:#000000;fill-rule:evenodd"
         d="M 0.0,0.0 L 5.0,-5.0 L -12.5,0.0 L 5.0,5.0 L 0.0,0.0 z " />
    </marker>
    <marker
       inkscape:stockid="ArrowAxisEnd"
       style="overflow:visible"
       refY="0.0"
       refX="0.0"
       orient="auto"
       id="ArrowAxisEnd">
      <path
         id="path5348"
         transform="scale(0.4) rotate(180) translate(8.818,0)"
         style="stroke-width:1.0;stroke:#000000;fill:#000000;fill-rule:evenodd"
         d="M 0.0,0.0 L 5.0,-5.0 L -12.5,0.0 L 5.0,5.0 L 0.0,0.0 z " />
    </marker>
  </defs>
  <metadata
     id="metadata7">
    <rdf:RDF>
      <cc:Work
         rdf:about="">
        <dc:format>image/svg+xml</dc:format>
        <dc:type
           rdf:resource="http://purl.org/dc/dcmitype/StillImage" />
        <dc:title></dc:title>
      </cc:Work>
    </rdf:RDF>
  </metadata>
  <g
     inkscape:label="Layer 1"
     inkscape:groupmode="layer"
     id="layer1" />
  <g
     transform="translate(38.85056879977,597.5970614646)"
     inkscape:label="Ticks"
     id="g5047" />
  <path
     id="path5051"
     inkscape:label="Xaxis"
     style="fill:none;stroke:#4c4c4c;stroke-width:1.4285714626;stroke-linecap:round;stroke-linejoin:round;stroke-dasharray:none;marker-end:url(#ArrowAxisEnd)"
     d="m 265,587.3621826172 85,0"
     inkscape:connector-curvature="0"
     sodipodi:nodetypes="cc" />
  <g
     transform="matrix(1.849112,0,0,-1.849112,-67.923968,1492.927803617)"
     ns0:preamble="/home/fernando/.config/inkscape/extensions/textextLib/basicLatexPackages.tex"
     ns0:text=" Foobar $\\sqrt{x^2}$ so fancy! (\\si{\\newton\\per\\squaremetre})"
     word-spacing="normal"
     letter-spacing="normal"
     font-size-adjust="none"
     font-stretch="normal"
     font-weight="normal"
     font-variant="normal"
     font-style="normal"
     stroke-miterlimit="10.433"
     xml:space="preserve"
     id="content"
     style="font-style:normal;font-variant:normal;font-weight:normal;font-stretch:normal;letter-spacing:normal;word-spacing:normal;text-anchor:start;fill:none;fill-opacity:1;fill-rule:evenodd;stroke:#000000;stroke-linecap:butt;stroke-linejoin:miter;stroke-miterlimit:10.4329996109;stroke-dasharray:none;stroke-dashoffset:0;stroke-opacity:1"><path
       id="path5054"
       style="fill:#000000;stroke-width:0"
       d="m 229.22,483.99 -5.46,0 0,-0.31 0.24,0 c 0.76,0 0.79,-0.11 0.79,-0.47 l 0,-5.2 c 0,-0.36 -0.03,-0.47 -0.79,-0.47 l -0.24,0 0,-0.31 c 0.35,0.04 1.12,0.04 1.51,0.04 0.41,0 1.32,0 1.67,-0.04 l 0,0.31 -0.32,0 c -0.95,0 -0.95,0.13 -0.95,0.48 l 0,2.44 0.86,0 c 0.95,0 1.05,-0.31 1.05,-1.16 l 0.25,0 0,2.63 -0.25,0 c 0,-0.83 -0.1,-1.16 -1.05,-1.16 l -0.86,0 0,2.52 c 0,0.32 0.02,0.39 0.49,0.39 l 1.19,0 c 1.49,0 1.74,-0.55 1.9,-1.92 l 0.25,0 z"
       inkscape:connector-curvature="0" /><path
       id="path5056"
       style="fill:#000000;stroke-width:0"
       d="m 233.79,479.36 0,0.12 -0.01,0.12 -0.01,0.11 -0.02,0.12 -0.02,0.11 -0.03,0.11 -0.04,0.11 -0.04,0.1 -0.04,0.1 -0.05,0.1 -0.06,0.1 -0.05,0.09 -0.06,0.1 -0.07,0.08 -0.07,0.09 -0.07,0.08 -0.08,0.08 -0.08,0.07 -0.08,0.07 -0.09,0.06 -0.09,0.07 -0.09,0.05 -0.1,0.05 -0.09,0.05 -0.1,0.04 -0.1,0.04 -0.11,0.03 -0.1,0.03 -0.11,0.02 -0.11,0.01 -0.11,0.01 -0.11,0 -0.01,-0.21 c 0.43,0 0.86,-0.22 1.12,-0.65 0.26,-0.43 0.26,-1 0.26,-1.38 0,-0.36 0,-0.89 -0.22,-1.33 -0.22,-0.45 -0.66,-0.74 -1.15,-0.74 l 0,0 c -0.43,0 -0.87,0.21 -1.14,0.67 -0.25,0.44 -0.25,1.04 -0.25,1.4 0,0.39 0,0.92 0.24,1.36 0.27,0.46 0.74,0.67 1.14,0.67 l 0.01,0.21 c -1.25,0 -2.21,-1.08 -2.21,-2.32 0,-1.28 1.03,-2.23 2.2,-2.23 1.2,0 2.2,0.97 2.2,2.23 z"
       inkscape:connector-curvature="0" /><path
       id="path5058"
       style="fill:#000000;stroke-width:0"
       d="m 239.04,479.36 0,0.12 -0.01,0.12 -0.01,0.11 -0.02,0.12 -0.02,0.11 -0.03,0.11 -0.04,0.11 -0.04,0.1 -0.04,0.1 -0.05,0.1 -0.06,0.1 -0.05,0.09 -0.06,0.1 -0.07,0.08 -0.07,0.09 -0.07,0.08 -0.08,0.08 -0.08,0.07 -0.08,0.07 -0.09,0.06 -0.09,0.07 -0.09,0.05 -0.1,0.05 -0.09,0.05 -0.1,0.04 -0.1,0.04 -0.11,0.03 -0.1,0.03 -0.11,0.02 -0.11,0.01 -0.11,0.01 -0.11,0 -0.01,-0.21 c 0.43,0 0.86,-0.22 1.12,-0.65 0.26,-0.43 0.26,-1 0.26,-1.38 0,-0.36 0,-0.89 -0.22,-1.33 -0.22,-0.45 -0.66,-0.74 -1.15,-0.74 l 0,0 c -0.43,0 -0.87,0.21 -1.14,0.67 -0.25,0.44 -0.25,1.04 -0.25,1.4 0,0.39 0,0.92 0.24,1.36 0.27,0.46 0.74,0.67 1.14,0.67 l 0.01,0.21 c -1.25,0 -2.21,-1.08 -2.21,-2.32 0,-1.28 1.03,-2.23 2.2,-2.23 1.2,0 2.2,0.97 2.2,2.23 z"
       inkscape:connector-curvature="0" /><path
       id="path5060"
       style="fill:#000000;stroke-width:0"
       d="m 241.05,480.98 0,3.15 -1.43,-0.11 0,-0.31 c 0.7,0 0.78,-0.07 0.78,-0.55 l 0,-5.93 0.24,0 c 0.01,0.01 0.09,0.15 0.36,0.62 0.15,-0.23 0.57,-0.72 1.3,-0.72 l -0.04,0.21 c -0.44,0 -0.8,0.24 -1.04,0.61 -0.14,0.21 -0.14,0.24 -0.14,0.42 l 0,0 0,2.04 c 0,0.19 0,0.2 0.11,0.36 0.39,0.56 0.94,0.64 1.18,0.64 0.44,0 0.8,-0.26 1.04,-0.64 0.26,-0.41 0.29,-0.97 0.29,-1.38 0,-0.37 -0.02,-0.96 -0.31,-1.41 -0.21,-0.31 -0.59,-0.64 -1.13,-0.64 l 0.04,-0.21 c 1.19,0 2.22,0.97 2.22,2.25 0,1.26 -0.97,2.25 -2.11,2.25 -0.77,0 -1.2,-0.47 -1.36,-0.65 z"
       inkscape:connector-curvature="0" /><path
       id="path5062"
       style="fill:#000000;stroke-width:0"
       d="m 248.19,477.99 0,-0.04 0.01,-0.03 0.01,-0.04 0,-0.04 0.01,-0.04 0.01,-0.03 0.02,-0.04 0.01,-0.03 0.02,-0.04 0.01,-0.03 0.02,-0.04 0.02,-0.03 0.02,-0.03 0.02,-0.04 0.02,-0.03 0.03,-0.03 0.02,-0.02 0.03,-0.03 0.03,-0.03 0.02,-0.02 0.03,-0.02 0.04,-0.03 0.03,-0.02 0.03,-0.01 0.04,-0.02 0.03,-0.01 0.04,-0.02 0.04,-0.01 0.04,0 0.04,-0.01 0.04,0 0.04,-0.01 c 0.21,0 0.82,0.14 0.82,0.95 l 0,0.55 -0.25,0 0,-0.55 c 0,-0.58 -0.25,-0.64 -0.36,-0.64 -0.32,0 -0.37,0.45 -0.37,0.5 l 0,1.99 c 0,0.41 0,0.8 -0.35,1.17 -0.39,0.39 -0.89,0.54 -1.37,0.54 -0.81,0 -1.5,-0.46 -1.5,-1.12 0,-0.29 0.2,-0.46 0.46,-0.46 0.28,0 0.46,0.2 0.46,0.45 0,0.12 -0.05,0.45 -0.51,0.46 0.27,0.35 0.76,0.46 1.07,0.46 0.49,0 1.06,-0.39 1.06,-1.27 l 0,-0.37 0,-0.21 0,-0.99 c 0,-0.95 -0.72,-1.29 -1.16,-1.29 -0.49,0 -0.9,0.35 -0.9,0.85 0,0.54 0.42,1.37 2.06,1.43 l 0,0 0,0.21 c -0.51,-0.03 -1.21,-0.06 -1.83,-0.36 -0.75,-0.34 -1,-0.85 -1,-1.29 0,-0.81 0.97,-1.05 1.59,-1.05 0.66,0 1.12,0.39 1.31,0.86 z"
       inkscape:connector-curvature="0" /><path
       id="path5064"
       style="fill:#000000;stroke-width:0"
       d="m 251.52,480.53 0,1.1 -1.39,-0.11 0,-0.31 c 0.7,0 0.78,-0.07 0.78,-0.56 l 0,-2.66 c 0,-0.45 -0.11,-0.45 -0.78,-0.45 l 0,-0.31 c 0.39,0.01 0.86,0.04 1.14,0.04 0.4,0 0.86,0 1.26,-0.04 l 0,0.31 -0.21,0 c -0.73,0 -0.75,0.11 -0.75,0.47 l 0,1.53 c 0,0.98 0.42,1.87 1.17,1.87 0.07,0 0.09,0 0.11,-0.01 -0.03,-0.01 -0.23,-0.13 -0.23,-0.39 0,-0.28 0.21,-0.43 0.43,-0.43 0.18,0 0.43,0.12 0.43,0.44 0,0.32 -0.31,0.61 -0.74,0.61 -0.72,0 -1.08,-0.67 -1.22,-1.1 z"
       inkscape:connector-curvature="0" /><path
       id="path5066"
       style="fill:#000000;stroke-width:0"
       d="m 260.95,477.46 -1.75,3.86 c -0.07,0.16 -0.12,0.16 -0.15,0.16 -0.01,0 -0.06,0 -0.16,-0.08 l -0.95,-0.71 c -0.13,-0.1 -0.13,-0.13 -0.13,-0.16 0,-0.05 0.03,-0.11 0.1,-0.11 0.06,0 0.23,0.14 0.34,0.22 0.06,0.05 0.21,0.16 0.32,0.24 l 1.96,-4.3 c 0.07,-0.16 0.12,-0.16 0.2,-0.16 0.16,0 0.18,0.06 0.25,0.19 l 4.52,9.34 c 0.07,0.14 0.07,0.18 0.07,0.2 0,0.1 -0.08,0.2 -0.2,0.2 -0.08,0 -0.15,-0.05 -0.23,-0.21 z"
       inkscape:connector-curvature="0" /><line
       id="line5068"
       y2="486.1499938965"
       x2="275.549987793"
       y1="486.1499938965"
       x1="265.3900146484"
       style="stroke-width:0.3980000019" /><path
       id="path5070"
       style="fill:#000000;stroke-width:0"
       d="m 268.71,480.23 0.01,0.03 0,0.03 0.01,0.03 0.01,0.04 0.01,0.04 0.01,0.04 0.02,0.04 0.01,0.05 0.02,0.04 0.01,0.05 0.02,0.05 0.02,0.05 0.03,0.05 0.02,0.05 0.03,0.05 0.02,0.05 0.03,0.05 0.03,0.04 0.04,0.05 0.03,0.04 0.04,0.05 0.04,0.04 0.04,0.04 0.04,0.03 0.05,0.03 0.05,0.03 0.02,0.01 0.03,0.02 0.03,0.01 0.02,0.01 0.03,0.01 0.03,0 0.03,0.01 0.03,0.01 0.03,0 0.03,0 0.03,0.01 0.03,0 c 0.05,0 0.29,0 0.5,-0.13 -0.28,-0.05 -0.48,-0.3 -0.48,-0.54 0,-0.16 0.11,-0.35 0.38,-0.35 0.22,0 0.54,0.18 0.54,0.58 0,0.52 -0.59,0.66 -0.93,0.66 -0.57,0 -0.92,-0.53 -1.04,-0.76 -0.25,0.66 -0.79,0.76 -1.08,0.76 -1.03,0 -1.6,-1.29 -1.6,-1.53 0,-0.1 0.1,-0.1 0.12,-0.1 0.08,0 0.11,0.02 0.13,0.11 0.34,1.05 1,1.3 1.34,1.3 0.18,0 0.53,-0.09 0.53,-0.67 0,-0.31 -0.17,-0.97 -0.53,-2.36 -0.16,-0.62 -0.51,-1.04 -0.95,-1.04 -0.06,0 -0.29,0 -0.5,0.13 0.25,0.05 0.47,0.26 0.47,0.54 0,0.27 -0.22,0.35 -0.37,0.35 -0.3,0 -0.55,-0.26 -0.55,-0.58 0,-0.46 0.5,-0.65 0.94,-0.65 0.66,0 1.01,0.69 1.04,0.75 0.12,-0.37 0.48,-0.75 1.08,-0.75 1.02,0 1.59,1.28 1.59,1.53 0,0.1 -0.09,0.1 -0.12,0.1 -0.09,0 -0.11,-0.05 -0.13,-0.11 -0.33,-1.07 -1,-1.31 -1.32,-1.31 -0.39,0 -0.55,0.32 -0.55,0.66 0,0.22 0.06,0.44 0.17,0.87 z"
       inkscape:connector-curvature="0" /><path
       id="path5072"
       style="fill:#000000;stroke-width:0"
       d="m 274.6,481.38 -0.24,0 c -0.02,-0.15 -0.09,-0.56 -0.18,-0.63 -0.06,-0.05 -0.59,-0.05 -0.69,-0.05 l -1.28,0 c 0.73,0.65 0.97,0.85 1.39,1.17 0.52,0.41 1,0.84 1,1.5 0,0.85 -0.74,1.36 -1.63,1.36 -0.87,0 -1.45,-0.61 -1.45,-1.24 0,-0.36 0.3,-0.39 0.37,-0.39 0.16,0 0.37,0.11 0.37,0.36 0,0.13 -0.05,0.37 -0.41,0.37 0.21,0.5 0.69,0.65 1.01,0.65 0.7,0 1.06,-0.54 1.06,-1.11 0,-0.6 -0.43,-1.08 -0.65,-1.33 l -1.68,-1.66 c -0.07,-0.06 -0.07,-0.07 -0.07,-0.27 l 2.87,0 z"
       inkscape:connector-curvature="0" /><path
       id="path5074"
       style="fill:#000000;stroke-width:0"
       d="m 280.94,479.16 0.02,0 0.03,-0.01 0.03,0 0.03,-0.01 0.03,-0.01 0.04,-0.01 0.03,-0.01 0.04,-0.01 0.04,-0.01 0.05,-0.01 0.04,-0.02 0.04,-0.02 0.05,-0.01 0.04,-0.03 0.04,-0.02 0.05,-0.02 0.04,-0.03 0.04,-0.03 0.04,-0.03 0.04,-0.03 0.04,-0.03 0.04,-0.04 0.03,-0.04 0.03,-0.04 0.03,-0.05 0.01,-0.02 0.02,-0.03 0.01,-0.02 0.01,-0.03 0.01,-0.02 0.01,-0.03 0.01,-0.03 0,-0.02 0.01,-0.03 0,-0.03 0.01,-0.03 0,-0.04 0,-0.03 0,-0.03 c 0,-0.51 -0.34,-0.91 -1.12,-0.91 -0.84,0 -1.19,0.57 -1.38,1.42 -0.03,0.12 -0.04,0.16 -0.14,0.16 -0.13,0 -0.13,-0.07 -0.13,-0.25 l 0,-1.31 c 0,-0.16 0,-0.23 0.11,-0.23 0.05,0 0.06,0.01 0.25,0.19 0.02,0.02 0.02,0.04 0.2,0.23 0.43,-0.41 0.88,-0.42 1.09,-0.42 1.14,0 1.6,0.66 1.6,1.38 0,0.52 -0.3,0.82 -0.42,0.94 -0.33,0.32 -0.71,0.4 -1.13,0.48 -0.56,0.11 -1.22,0.24 -1.22,0.81 0,0.35 0.25,0.76 1.11,0.76 1.1,0 1.14,-0.9 1.16,-1.2 0.01,-0.1 0.1,-0.1 0.12,-0.1 0.13,0 0.13,0.06 0.13,0.24 l 0,1.01 c 0,0.17 0,0.23 -0.11,0.23 -0.05,0 -0.07,0 -0.2,-0.11 -0.03,-0.04 -0.12,-0.13 -0.16,-0.16 -0.38,0.27 -0.79,0.27 -0.94,0.27 -1.21,0 -1.59,-0.66 -1.59,-1.22 0,-0.34 0.16,-0.62 0.43,-0.84 0.31,-0.26 0.59,-0.32 1.31,-0.46 z"
       inkscape:connector-curvature="0" /><path
       id="path5076"
       style="fill:#000000;stroke-width:0"
       d="m 287.48,479.36 0,0.12 -0.01,0.12 -0.01,0.11 -0.02,0.12 -0.02,0.11 -0.03,0.11 -0.04,0.11 -0.04,0.1 -0.04,0.1 -0.05,0.1 -0.06,0.1 -0.05,0.09 -0.06,0.1 -0.07,0.08 -0.07,0.09 -0.07,0.08 -0.08,0.08 -0.08,0.07 -0.08,0.07 -0.09,0.06 -0.09,0.07 -0.09,0.05 -0.09,0.05 -0.1,0.05 -0.1,0.04 -0.1,0.04 -0.11,0.03 -0.1,0.03 -0.11,0.02 -0.11,0.01 -0.11,0.01 -0.11,0 -0.01,-0.21 c 0.43,0 0.86,-0.22 1.12,-0.65 0.26,-0.43 0.26,-1 0.26,-1.38 0,-0.36 0,-0.89 -0.22,-1.33 -0.22,-0.45 -0.66,-0.74 -1.15,-0.74 l 0,0 c -0.43,0 -0.87,0.21 -1.14,0.67 -0.25,0.44 -0.25,1.04 -0.25,1.4 0,0.39 0,0.92 0.24,1.36 0.27,0.46 0.74,0.67 1.14,0.67 l 0.01,0.21 c -1.25,0 -2.21,-1.08 -2.21,-2.32 0,-1.28 1.03,-2.23 2.2,-2.23 1.2,0 2.2,0.97 2.2,2.23 z"
       inkscape:connector-curvature="0" /><path
       id="path5078"
       style="fill:#000000;stroke-width:0"
       d="m 292.84,481.52 0,1.15 c 0,0.87 0.48,1.35 0.91,1.35 0.03,0 0.18,0 0.33,-0.07 -0.12,-0.04 -0.3,-0.17 -0.3,-0.42 0,-0.23 0.16,-0.42 0.43,-0.42 0.29,0 0.44,0.19 0.44,0.43 0,0.37 -0.37,0.7 -0.9,0.7 -0.69,0 -1.54,-0.53 -1.54,-1.58 l 0,-1.14 -0.78,0 0,-0.31 0.78,0 0,-3.22 c 0,-0.45 -0.11,-0.45 -0.77,-0.45 l 0,-0.31 c 0.38,0.01 0.85,0.04 1.13,0.04 0.4,0 0.87,0 1.26,-0.04 l 0,0.31 -0.21,0 c -0.73,0 -0.75,0.11 -0.75,0.47 l 0,3.2 1.13,0 0,0.31 z"
       inkscape:connector-curvature="0" /><path
       id="path5080"
       style="fill:#000000;stroke-width:0"
       d="m 297.46,477.99 0,-0.04 0.01,-0.03 0,-0.04 0.01,-0.04 0.01,-0.04 0.01,-0.03 0.01,-0.04 0.02,-0.03 0.01,-0.04 0.02,-0.03 0.02,-0.04 0.02,-0.03 0.02,-0.03 0.02,-0.04 0.02,-0.03 0.02,-0.03 0.03,-0.02 0.02,-0.03 0.03,-0.03 0.03,-0.02 0.03,-0.02 0.03,-0.03 0.04,-0.02 0.03,-0.01 0.03,-0.02 0.04,-0.01 0.04,-0.02 0.04,-0.01 0.04,0 0.04,-0.01 0.04,0 0.04,-0.01 c 0.21,0 0.82,0.14 0.82,0.95 l 0,0.55 -0.25,0 0,-0.55 c 0,-0.58 -0.25,-0.64 -0.36,-0.64 -0.33,0 -0.37,0.45 -0.37,0.5 l 0,1.99 c 0,0.41 0,0.8 -0.36,1.17 -0.38,0.39 -0.88,0.54 -1.36,0.54 -0.81,0 -1.5,-0.46 -1.5,-1.12 0,-0.29 0.2,-0.46 0.46,-0.46 0.27,0 0.45,0.2 0.45,0.45 0,0.12 -0.05,0.45 -0.5,0.46 0.27,0.35 0.75,0.46 1.07,0.46 0.49,0 1.06,-0.39 1.06,-1.27 l 0,-0.37 0,-0.21 0,-0.99 c 0,-0.95 -0.72,-1.29 -1.17,-1.29 -0.49,0 -0.89,0.35 -0.89,0.85 0,0.54 0.41,1.37 2.06,1.43 l 0,0 0,0.21 c -0.51,-0.03 -1.21,-0.06 -1.84,-0.36 -0.74,-0.34 -0.99,-0.85 -0.99,-1.29 0,-0.81 0.97,-1.05 1.59,-1.05 0.66,0 1.12,0.39 1.31,0.86 z"
       inkscape:connector-curvature="0" /><path
       id="path5082"
       style="fill:#000000;stroke-width:0"
       d="m 300.22,480.65 0,-2.66 c 0,-0.45 -0.11,-0.45 -0.78,-0.45 l 0,-0.31 c 0.35,0.01 0.86,0.04 1.13,0.04 0.26,0 0.77,-0.03 1.11,-0.04 l 0,0.31 c -0.67,0 -0.78,0 -0.78,0.45 l 0,1.83 c 0,1.03 0.71,1.59 1.35,1.59 0.63,0 0.73,-0.54 0.73,-1.11 l 0,-2.31 c 0,-0.45 -0.1,-0.45 -0.77,-0.45 l 0,-0.31 c 0.35,0.01 0.85,0.04 1.12,0.04 0.26,0 0.78,-0.03 1.12,-0.04 l 0,0.31 c -0.52,0 -0.77,0 -0.78,0.3 l 0,1.9 c 0,0.85 0,1.16 -0.31,1.52 -0.14,0.17 -0.47,0.37 -1.04,0.37 -0.73,0 -1.2,-0.43 -1.47,-1.05 l 0,1.05 -1.41,-0.11 0,-0.31 c 0.7,0 0.78,-0.07 0.78,-0.56 z"
       inkscape:connector-curvature="0" /><path
       id="path5084"
       style="fill:#000000;stroke-width:0"
       d="m 305.82,479.4 0,0.08 0.01,0.07 0,0.07 0,0.07 0.01,0.07 0,0.07 0.01,0.06 0.01,0.06 0.01,0.06 0.01,0.06 0.01,0.06 0.01,0.06 0.03,0.11 0.03,0.1 0.03,0.1 0.04,0.09 0.04,0.09 0.04,0.08 0.04,0.07 0.05,0.07 0.05,0.07 0.05,0.06 0.05,0.05 0.05,0.05 0.05,0.05 0.06,0.04 0.05,0.04 0.06,0.03 0.06,0.03 0.05,0.03 0.06,0.02 0.06,0.02 0.05,0.01 0.06,0.02 0.05,0.01 0.05,0 0.06,0.01 0.05,0 c 0.09,0 0.71,-0.01 1.06,-0.37 -0.41,-0.03 -0.47,-0.33 -0.47,-0.46 0,-0.26 0.18,-0.45 0.46,-0.45 0.26,0 0.46,0.16 0.46,0.46 0,0.68 -0.76,1.06 -1.52,1.06 -1.25,0 -2.16,-1.07 -2.16,-2.3 0,-1.27 0.98,-2.25 2.14,-2.25 1.33,0 1.65,1.19 1.65,1.29 0,0.1 -0.1,0.1 -0.13,0.1 -0.09,0 -0.11,-0.04 -0.13,-0.1 -0.29,-0.93 -0.94,-1.05 -1.3,-1.05 -0.53,0 -1.41,0.43 -1.41,2.03 z"
       inkscape:connector-curvature="0" /><path
       id="path5086"
       style="fill:#000000;stroke-width:0"
       d="m 313.21,480.57 0.02,0.03 0.01,0.03 0.01,0.03 0.02,0.02 0.01,0.03 0.01,0.02 0.02,0.03 0.01,0.02 0.03,0.04 0.03,0.04 0.03,0.04 0.04,0.04 0.03,0.03 0.03,0.03 0.04,0.02 0.03,0.03 0.03,0.02 0.04,0.02 0.03,0.02 0.04,0.02 0.03,0.01 0.03,0.01 0.03,0.01 0.04,0.01 0.03,0.01 0.03,0.01 0.03,0 0.03,0.01 0.02,0 0.03,0 0.02,0.01 0.03,0 0.02,0 0.02,0 0.02,0 0.01,0 0,0.31 c -0.23,-0.02 -0.52,-0.03 -0.75,-0.03 -0.18,0 -0.64,0.02 -0.86,0.03 l 0,-0.31 c 0.31,-0.01 0.47,-0.18 0.47,-0.43 0,-0.1 -0.01,-0.12 -0.06,-0.24 l -1.01,-2.44 -1.1,2.67 c -0.04,0.1 -0.06,0.14 -0.06,0.18 0,0.26 0.37,0.26 0.56,0.26 l 0,0.31 c -0.26,-0.01 -0.92,-0.03 -1.09,-0.03 -0.27,0 -0.67,0.01 -0.96,0.03 l 0,-0.31 c 0.47,0 0.66,0 0.8,-0.35 l 1.49,-3.63 c -0.05,-0.12 -0.18,-0.45 -0.24,-0.58 -0.22,-0.55 -0.5,-1.23 -1.14,-1.23 -0.05,0 -0.28,0 -0.47,0.18 0.31,0.04 0.39,0.25 0.39,0.41 0,0.26 -0.19,0.42 -0.42,0.42 -0.2,0 -0.41,-0.13 -0.41,-0.43 0,-0.44 0.41,-0.8 0.91,-0.8 0.63,0 1.04,0.57 1.27,1.13 z"
       inkscape:connector-curvature="0" /><path
       id="path5088"
       style="fill:#000000;stroke-width:0"
       d="m 315.87,479.31 0.39,4.53 c 0,0.33 -0.27,0.51 -0.53,0.51 -0.26,0 -0.53,-0.18 -0.53,-0.51 l 0.39,-4.52 c 0.01,-0.15 0.02,-0.23 0.14,-0.23 0.1,0 0.13,0.05 0.14,0.22 z"
       inkscape:connector-curvature="0" /><path
       id="path5090"
       style="fill:#000000;stroke-width:0"
       d="m 316.26,477.76 -0.01,0.03 0,0.03 0,0.02 -0.01,0.03 0,0.02 -0.01,0.03 -0.01,0.02 -0.01,0.03 -0.01,0.02 -0.01,0.02 -0.01,0.02 -0.02,0.02 -0.01,0.03 -0.02,0.02 -0.01,0.01 -0.02,0.02 -0.02,0.02 -0.02,0.02 -0.02,0.01 -0.02,0.02 -0.02,0.01 -0.02,0.01 -0.02,0.02 -0.03,0.01 -0.02,0.01 -0.03,0 -0.02,0.01 -0.03,0.01 -0.02,0 -0.03,0.01 -0.03,0 -0.02,0 c -0.29,0 -0.53,-0.24 -0.53,-0.53 0,-0.29 0.24,-0.53 0.53,-0.53 0.29,0 0.53,0.24 0.53,0.53 z"
       inkscape:connector-curvature="0" /><path
       id="path5092"
       style="fill:#000000;stroke-width:0"
       d="m 324.84,474.85 0,0.01 0,0 0,0 0,0.01 0,0 0,0 0,0.01 -0.01,0 0,0 0,0.01 0,0 -0.01,0.01 0,0 0,0.01 -0.01,0 0,0.01 -0.01,0.01 0,0 -0.01,0.01 0,0 0,0.01 -0.01,0 0,0 0,0.01 -0.01,0 0,0.01 -0.01,0 0,0.01 -0.01,0 0,0.01 -0.01,0 0,0.01 -0.01,0.01 0,0 -0.01,0.01 -0.01,0.01 0,0 -0.01,0.01 -0.01,0.01 0,0 -0.01,0.01 -0.01,0.01 c -1.24,1.25 -1.56,3.13 -1.56,4.65 0,1.73 0.38,3.45 1.6,4.7 0.13,0.12 0.13,0.14 0.13,0.17 0,0.07 -0.04,0.09 -0.1,0.09 -0.1,0 -1,-0.67 -1.58,-1.93 -0.51,-1.09 -0.63,-2.2 -0.63,-3.03 0,-0.78 0.11,-1.98 0.66,-3.1 0.59,-1.22 1.45,-1.87 1.55,-1.87 0.06,0 0.1,0.03 0.1,0.1 z"
       inkscape:connector-curvature="0" /><path
       id="path5094"
       style="fill:#000000;stroke-width:0"
       d="m 327.73,483.89 -0.01,0.01 -0.01,0.01 -0.01,0.01 0,0.01 -0.01,0.01 -0.01,0.01 0,0 -0.01,0.01 0,0.01 -0.01,0 -0.01,0.01 0,0 -0.01,0.01 -0.01,0 0,0.01 -0.01,0 -0.01,0 0,0.01 -0.01,0 -0.01,0 -0.01,0 -0.01,0 -0.01,0.01 -0.01,0 -0.01,0 -0.01,0 -0.01,0 -0.02,0 -0.01,0 -0.01,0 -0.01,0 0,0 -0.01,0 -0.01,0 -0.01,0 -1.69,0 0,-0.31 0.29,0 c 0.15,0 0.35,-0.01 0.49,-0.02 0.23,-0.03 0.24,-0.04 0.24,-0.23 l 0,-5.18 c 0,-0.27 0,-0.74 -1.02,-0.74 l 0,-0.31 c 0.35,0.01 0.83,0.04 1.16,0.04 0.33,0 0.82,-0.03 1.17,-0.04 l 0,0.31 c -1.03,0 -1.03,0.47 -1.03,0.74 l 0,5.16 c 0.05,-0.05 0.06,-0.06 0.1,-0.12 l 4.06,-5.96 c 0.09,-0.12 0.1,-0.13 0.17,-0.13 0.14,0 0.14,0.07 0.14,0.26 l 0,5.49 c 0,0.26 0,0.73 1.02,0.73 l 0,0.31 c -0.34,-0.01 -0.83,-0.03 -1.16,-0.03 -0.33,0 -0.82,0.02 -1.16,0.03 l 0,-0.31 c 1.02,0 1.02,-0.47 1.02,-0.73 l 0,-4.25 z"
       inkscape:connector-curvature="0" /><path
       id="path5096"
       style="fill:#000000;stroke-width:0"
       d="m 337.26,484.31 0,0 0,0.01 0,0.01 0.01,0 0,0.01 0,0 0,0.01 0.01,0.01 0,0.01 0,0.01 0.01,0.01 0,0.01 0,0 0,0.01 0.01,0.01 0,0.01 0,0 0,0.01 0,0 0,0.01 0,0 0,0.01 0,0 0.01,0 0,0.01 0,0 0,0 0,0.01 0,0 0,0 0,0 0,0 0,0 0,0.01 0,0 c 0,0.11 -0.09,0.19 -0.2,0.19 -0.07,0 -0.14,-0.02 -0.17,-0.08 l -3.45,-9.47 c -0.05,-0.13 -0.05,-0.17 -0.05,-0.18 0,-0.11 0.09,-0.2 0.2,-0.2 0.13,0 0.16,0.07 0.22,0.24 z"
       inkscape:connector-curvature="0" /><path
       id="path5098"
       style="fill:#000000;stroke-width:0"
       d="m 338.96,480.65 0,-2.66 c 0,-0.45 -0.1,-0.45 -0.77,-0.45 l 0,-0.31 c 0.35,0.01 0.86,0.04 1.12,0.04 0.26,0 0.78,-0.03 1.12,-0.04 l 0,0.31 c -0.67,0 -0.78,0 -0.78,0.45 l 0,1.83 c 0,1.03 0.71,1.59 1.34,1.59 0.63,0 0.74,-0.54 0.74,-1.11 l 0,-2.31 c 0,-0.45 -0.11,-0.45 -0.78,-0.45 l 0,-0.31 c 0.35,0.01 0.86,0.04 1.13,0.04 0.26,0 0.78,-0.03 1.11,-0.04 l 0,0.31 c -0.66,0 -0.77,0 -0.77,0.45 l 0,1.83 c 0,1.03 0.7,1.59 1.34,1.59 0.63,0 0.74,-0.54 0.74,-1.11 l 0,-2.31 c 0,-0.45 -0.11,-0.45 -0.78,-0.45 l 0,-0.31 c 0.35,0.01 0.86,0.04 1.13,0.04 0.25,0 0.77,-0.03 1.11,-0.04 l 0,0.31 c -0.52,0 -0.77,0 -0.78,0.3 l 0,1.9 c 0,0.85 0,1.16 -0.3,1.52 -0.14,0.17 -0.47,0.37 -1.05,0.37 -0.84,0 -1.27,-0.6 -1.44,-0.98 -0.14,0.87 -0.88,0.98 -1.32,0.98 -0.73,0 -1.2,-0.43 -1.48,-1.05 l 0,1.05 -1.4,-0.11 0,-0.31 c 0.7,0 0.77,-0.07 0.77,-0.56 z"
       inkscape:connector-curvature="0" /><path
       id="path5100"
       style="fill:#000000;stroke-width:0"
       d="m 349.69,482.12 -0.24,0 c -0.02,-0.16 -0.09,-0.57 -0.18,-0.64 -0.05,-0.04 -0.59,-0.04 -0.69,-0.04 l -1.28,0 c 0.73,0.65 0.98,0.84 1.39,1.17 0.52,0.41 1,0.84 1,1.5 0,0.84 -0.74,1.36 -1.63,1.36 -0.86,0 -1.45,-0.61 -1.45,-1.25 0,-0.35 0.3,-0.39 0.37,-0.39 0.17,0 0.37,0.12 0.37,0.37 0,0.13 -0.05,0.37 -0.41,0.37 0.21,0.5 0.69,0.65 1.02,0.65 0.69,0 1.05,-0.54 1.05,-1.11 0,-0.6 -0.43,-1.08 -0.65,-1.33 l -1.68,-1.66 c -0.07,-0.06 -0.07,-0.07 -0.07,-0.27 l 2.87,0 z"
       inkscape:connector-curvature="0" /><path
       id="path5102"
       style="fill:#000000;stroke-width:0"
       d="m 353.52,479.72 0,0.07 0,0.08 -0.01,0.08 0,0.08 -0.01,0.17 -0.01,0.17 -0.01,0.18 -0.03,0.19 -0.02,0.2 -0.03,0.2 -0.04,0.2 -0.05,0.21 -0.05,0.21 -0.06,0.21 -0.07,0.21 -0.08,0.21 -0.05,0.11 -0.04,0.11 -0.05,0.1 -0.05,0.11 c -0.59,1.22 -1.45,1.86 -1.55,1.86 -0.06,0 -0.1,-0.03 -0.1,-0.09 0,-0.03 0,-0.05 0.19,-0.23 0.97,-0.99 1.54,-2.56 1.54,-4.64 0,-1.7 -0.37,-3.45 -1.6,-4.7 -0.13,-0.12 -0.13,-0.14 -0.13,-0.17 0,-0.06 0.04,-0.1 0.1,-0.1 0.1,0 0.99,0.68 1.58,1.94 0.51,1.09 0.63,2.19 0.63,3.03 z"
       inkscape:connector-curvature="0" /></g></svg>
