<?xml version="1.0" encoding="UTF-8" standalone="no"?>
<!-- Created with Inkscape (http://www.inkscape.org/) -->

<svg
   xmlns:ns0="http://www.iki.fi/pav/software/textext/"
   xmlns:dc="http://purl.org/dc/elements/1.1/"
   xmlns:cc="http://creativecommons.org/ns#"
   xmlns:rdf="http://www.w3.org/1999/02/22-rdf-syntax-ns#"
   xmlns:svg="http://www.w3.org/2000/svg"
   xmlns="http://www.w3.org/2000/svg"
   xmlns:sodipodi="http://sodipodi.sourceforge.net/DTD/sodipodi-0.dtd"
   xmlns:inkscape="http://www.inkscape.org/namespaces/inkscape"
   width="210mm"
   height="297mm"
   viewBox="0 0 744.09448819 1052.3622047"
   id="svg2"
   version="1.1"
   inkscape:version="0.91 r"
   sodipodi:docname="multiply_X_ByPi.svg">
  <sodipodi:namedview
     id="base"
     pagecolor="#ffffff"
     bordercolor="#666666"
     borderopacity="1.0"
     inkscape:pageopacity="0.0"
     inkscape:pageshadow="2"
     inkscape:zoom="4.018048005171"
     inkscape:cx="495.9314525437"
     inkscape:cy="620.6652618709"
     inkscape:document-units="px"
     inkscape:current-layer="svg2"
     showgrid="true"
     inkscape:object-nodes="true"
     inkscape:snap-text-baseline="true"
     inkscape:window-width="1920"
     inkscape:window-height="1062"
     inkscape:window-x="-4"
     inkscape:window-y="-6"
     inkscape:window-maximized="1">
    <inkscape:grid
       id="grid11558"
       type="xygrid" />
  </sodipodi:namedview>
  <defs
     id="defs4">
    <marker
       style="overflow:visible"
       id="Arrow1Sendu-6-2-9-1"
       refX="0"
       refY="0"
       orient="auto"
       inkscape:stockid="Arrow1Sendu">
      <path
         inkscape:connector-curvature="0"
         transform="matrix(-0.2,0,0,-0.2,-1.2,0)"
         style="fill:#ff0000;fill-rule:evenodd;stroke:#ff0000;stroke-width:1pt"
         d="M 0,0 5,-5 -12.5,0 5,5 0,0 Z"
         id="path5855-7-9-3-2" />
    </marker>
    <marker
       inkscape:stockid="ArrowAxisStart"
       style="overflow:visible"
       refY="0.0"
       refX="0.0"
       orient="auto"
       id="ArrowAxisStart">
      <path
         id="path11567"
         transform="scale(0.4) rotate(0) translate(8.818,0)"
         style="stroke-width:1.0;stroke:#000000;fill:#000000;fill-rule:evenodd"
         d="M 0.0,0.0 L 5.0,-5.0 L -12.5,0.0 L 5.0,5.0 L 0.0,0.0 z " />
    </marker>
    <marker
       inkscape:stockid="ArrowAxisEnd"
       style="overflow:visible"
       refY="0.0"
       refX="0.0"
       orient="auto"
       id="ArrowAxisEnd">
      <path
         id="path11570"
         transform="scale(0.4) rotate(180) translate(8.818,0)"
         style="stroke-width:1.0;stroke:#000000;fill:#000000;fill-rule:evenodd"
         d="M 0.0,0.0 L 5.0,-5.0 L -12.5,0.0 L 5.0,5.0 L 0.0,0.0 z " />
    </marker>
  </defs>
  <metadata
     id="metadata7">
    <rdf:RDF>
      <cc:Work
         rdf:about="">
        <dc:format>image/svg+xml</dc:format>
        <dc:type
           rdf:resource="http://purl.org/dc/dcmitype/StillImage" />
        <dc:title></dc:title>
      </cc:Work>
    </rdf:RDF>
  </metadata>
  <g
     inkscape:label="Layer 1"
     inkscape:groupmode="layer"
     id="layer1" />
  <g
     id="g11640"
     inkscape:label="PlotData"
     inkscape:export-xdpi="421.4947814941"
     inkscape:export-ydpi="421.4947814941">
    <g
       id="g11642"
       transform="translate(400.000000 450.000000)"
       inkscape:label="Plot">
      <g
         id="g11644"
         inkscape:label="Ticks">
        <g
           transform="translate(1.250000 2.500000) translate(-132.437875 286.301787) scale(0.591716 -0.591716)  "
           ns0:preamble="/home/fernando/.config/inkscape/extensions/textextLib/basicLatexPackages.tex"
           ns0:text=" $0$"
           text-anchor="start"
           word-spacing="normal"
           letter-spacing="normal"
           font-size-adjust="none"
           font-stretch="normal"
           font-weight="normal"
           font-variant="normal"
           font-style="normal"
           fill-opacity="1"
           fill-rule="evenodd"
           fill="none"
           stroke-opacity="1"
           stroke-dashoffset="0"
           stroke-dasharray="none"
           stroke-miterlimit="10.433"
           stroke-linejoin="miter"
           stroke-linecap="butt"
           stroke="black"
           xml:space="preserve"
           id="content"><path
             id="path11647"
             style="fill:#000000;stroke-width:0"
             fill="black"
             stroke-width="0"
             d="M228.01,480.41 L228.01,480.56 L228.01,480.71 L228,480.86 L228,481.01 L227.99,481.16 L227.97,481.3 L227.96,481.45 L227.94,481.6 L227.92,481.74 L227.89,481.89 L227.86,482.03 L227.82,482.18 L227.78,482.32 L227.73,482.46 L227.67,482.6 L227.64,482.67 L227.61,482.74 C227.15,483.69,226.34,483.85,225.92,483.85 C225.32,483.85,224.6,483.59,224.19,482.67 C223.87,481.98,223.82,481.21,223.82,480.41 C223.82,479.67,223.86,478.77,224.27,478.02 C224.7,477.21,225.42,477.02,225.91,477.02 V477.23 C225.52,477.23,224.93,477.48,224.76,478.44 C224.65,479.03,224.65,479.95,224.65,480.53 C224.65,481.17,224.65,481.82,224.73,482.36 C224.91,483.54,225.66,483.63,225.91,483.63 C226.24,483.63,226.89,483.45,227.08,482.47 C227.18,481.91,227.18,481.16,227.18,480.53 C227.18,479.79,227.18,479.11,227.07,478.48 C226.92,477.53,226.36,477.23,225.91,477.23 H225.91 V477.02 C226.45,477.02,227.2,477.23,227.64,478.17 C227.96,478.85,228.01,479.63,228.01,480.41 Z " /></g>        <path
           id="path11649"
           inkscape:label="none"
           style="stroke-linejoin:round;stroke:#B2B2B2;stroke-linecap:round;stroke-dasharray:none;stroke-width:0.4;fill:none"
           d="M  20.0 40.0 20.0 -40.0" />
        <path
           id="path11651"
           inkscape:label="none"
           style="stroke-linejoin:round;stroke:#4C4C4C;stroke-linecap:round;stroke-dasharray:none;stroke-width:0.571428571429;fill:none"
           d="m 20.0 -1.25 0 2.5" />
        <g
           transform="translate(18.750000 2.500000) translate(-135.544384 284.923088) scale(0.591716 -0.591716)  "
           ns0:preamble="/home/fernando/.config/inkscape/extensions/textextLib/basicLatexPackages.tex"
           ns0:text=" $\\pi$"
           text-anchor="start"
           word-spacing="normal"
           letter-spacing="normal"
           font-size-adjust="none"
           font-stretch="normal"
           font-weight="normal"
           font-variant="normal"
           font-style="normal"
           fill-opacity="1"
           fill-rule="evenodd"
           fill="none"
           stroke-opacity="1"
           stroke-dashoffset="0"
           stroke-dasharray="none"
           stroke-miterlimit="10.433"
           stroke-linejoin="miter"
           stroke-linecap="butt"
           stroke="black"
           xml:space="preserve"
           id="g11653"><path
             id="path11655"
             style="fill:#000000;stroke-width:0"
             fill="black"
             stroke-width="0"
             d="M226.07,480.94 H227.19 C226.86,479.47,226.77,479.04,226.77,478.38 C226.77,478.23,226.77,477.96,226.85,477.62 C226.95,477.18,227.06,477.13,227.21,477.13 C227.41,477.13,227.62,477.3,227.62,477.5 C227.62,477.56,227.62,477.58,227.56,477.72 C227.27,478.44,227.27,479.08,227.27,479.36 C227.27,479.89,227.34,480.42,227.45,480.94 H228.59 C228.71,480.94,229.07,480.94,229.07,481.28 C229.07,481.52,228.86,481.52,228.68,481.52 H225.34 C225.12,481.52,224.74,481.52,224.31,481.05 C223.96,480.66,223.7,480.2,223.7,480.16 C223.7,480.15,223.7,480.06,223.82,480.06 C223.9,480.06,223.92,480.1,223.98,480.17 C224.47,480.94,225.04,480.94,225.24,480.94 H225.81 C225.49,479.74,224.95,478.54,224.54,477.63 C224.46,477.48,224.46,477.46,224.46,477.39 C224.46,477.2,224.62,477.13,224.74,477.13 C225.04,477.13,225.12,477.4,225.24,477.77 C225.38,478.23,225.38,478.25,225.51,478.74 Z " /></g>        <path
           id="path11657"
           inkscape:label="none"
           style="stroke-linejoin:round;stroke:#B2B2B2;stroke-linecap:round;stroke-dasharray:none;stroke-width:0.4;fill:none"
           d="M  40.0 40.0 40.0 -40.0" />
        <path
           id="path11659"
           inkscape:label="none"
           style="stroke-linejoin:round;stroke:#4C4C4C;stroke-linecap:round;stroke-dasharray:none;stroke-width:0.571428571429;fill:none"
           d="m 40.0 -1.25 0 2.5" />
        <g
           transform="translate(38.750000 2.500000) translate(-138.491130 286.301787) scale(0.591716 -0.591716)  "
           ns0:preamble="/home/fernando/.config/inkscape/extensions/textextLib/basicLatexPackages.tex"
           ns0:text=" $2\\pi$"
           text-anchor="start"
           word-spacing="normal"
           letter-spacing="normal"
           font-size-adjust="none"
           font-stretch="normal"
           font-weight="normal"
           font-variant="normal"
           font-style="normal"
           fill-opacity="1"
           fill-rule="evenodd"
           fill="none"
           stroke-opacity="1"
           stroke-dashoffset="0"
           stroke-dasharray="none"
           stroke-miterlimit="10.433"
           stroke-linejoin="miter"
           stroke-linecap="butt"
           stroke="black"
           xml:space="preserve"
           id="g11661"><path
             id="path11663"
             style="fill:#000000;stroke-width:0"
             fill="black"
             stroke-width="0"
             d="M224.7,478 L225.75,479.02 C227.3,480.39,227.9,480.93,227.9,481.92 C227.9,483.06,227,483.85,225.79,483.85 C224.67,483.85,223.93,482.94,223.93,482.05 C223.93,481.5,224.43,481.5,224.46,481.5 C224.63,481.5,224.97,481.62,224.97,482.02 C224.97,482.28,224.79,482.54,224.45,482.54 C224.37,482.54,224.35,482.54,224.32,482.53 C224.55,483.17,225.08,483.54,225.66,483.54 C226.57,483.54,226.99,482.74,226.99,481.92 C226.99,481.13,226.5,480.34,225.95,479.73 L224.04,477.6 C223.93,477.49,223.93,477.47,223.93,477.23 H227.62 L227.9,478.96 H227.65 C227.6,478.67,227.53,478.23,227.43,478.08 C227.36,478,226.71,478,226.49,478 Z " /><path
             id="path11665"
             style="fill:#000000;stroke-width:0"
             fill="black"
             stroke-width="0"
             d="M231.05,480.94 H232.17 C231.85,479.47,231.76,479.04,231.76,478.38 C231.76,478.23,231.76,477.96,231.84,477.62 C231.93,477.18,232.04,477.13,232.19,477.13 C232.39,477.13,232.6,477.3,232.6,477.5 C232.6,477.56,232.6,477.58,232.54,477.72 C232.25,478.44,232.25,479.08,232.25,479.36 C232.25,479.89,232.32,480.42,232.43,480.94 H233.57 C233.7,480.94,234.05,480.94,234.05,481.28 C234.05,481.52,233.85,481.52,233.66,481.52 H230.32 C230.1,481.52,229.73,481.52,229.29,481.05 C228.94,480.66,228.68,480.2,228.68,480.16 C228.68,480.15,228.68,480.06,228.8,480.06 C228.88,480.06,228.9,480.1,228.96,480.17 C229.45,480.94,230.02,480.94,230.22,480.94 H230.79 C230.47,479.74,229.93,478.54,229.52,477.63 C229.44,477.48,229.44,477.46,229.44,477.39 C229.44,477.2,229.6,477.13,229.73,477.13 C230.02,477.13,230.1,477.4,230.22,477.77 C230.36,478.23,230.36,478.25,230.49,478.74 Z " /></g>        <path
           id="path11667"
           inkscape:label="none"
           style="stroke-linejoin:round;stroke:#B2B2B2;stroke-linecap:round;stroke-dasharray:none;stroke-width:0.4;fill:none"
           d="M  60.0 40.0 60.0 -40.0" />
        <path
           id="path11669"
           inkscape:label="none"
           style="stroke-linejoin:round;stroke:#4C4C4C;stroke-linecap:round;stroke-dasharray:none;stroke-width:0.571428571429;fill:none"
           d="m 60.0 -1.25 0 2.5" />
        <g
           transform="translate(58.750000 2.500000) translate(-138.491130 286.301787) scale(0.591716 -0.591716)  "
           ns0:preamble="/home/fernando/.config/inkscape/extensions/textextLib/basicLatexPackages.tex"
           ns0:text=" $3\\pi$"
           text-anchor="start"
           word-spacing="normal"
           letter-spacing="normal"
           font-size-adjust="none"
           font-stretch="normal"
           font-weight="normal"
           font-variant="normal"
           font-style="normal"
           fill-opacity="1"
           fill-rule="evenodd"
           fill="none"
           stroke-opacity="1"
           stroke-dashoffset="0"
           stroke-dasharray="none"
           stroke-miterlimit="10.433"
           stroke-linejoin="miter"
           stroke-linecap="butt"
           stroke="black"
           xml:space="preserve"
           id="g11671"><path
             id="path11673"
             style="fill:#000000;stroke-width:0"
             fill="black"
             stroke-width="0"
             d="M226.32,480.73 L226.39,480.76 L226.47,480.79 L226.54,480.82 L226.61,480.85 L226.68,480.89 L226.75,480.93 L226.81,480.97 L226.88,481.01 L226.94,481.05 L227,481.1 L227.06,481.15 L227.12,481.2 L227.17,481.25 L227.22,481.3 L227.27,481.36 L227.32,481.41 L227.36,481.47 L227.41,481.53 L227.45,481.59 L227.48,481.65 L227.52,481.72 L227.55,481.78 L227.58,481.85 L227.61,481.91 L227.63,481.98 L227.65,482.05 L227.67,482.12 L227.68,482.19 L227.7,482.26 L227.7,482.33 L227.71,482.41 L227.71,482.48 C227.71,483.3,226.84,483.85,225.88,483.85 C224.88,483.85,224.12,483.26,224.12,482.5 C224.12,482.17,224.34,481.98,224.63,481.98 C224.93,481.98,225.13,482.2,225.13,482.49 C225.13,482.99,224.67,482.99,224.52,482.99 C224.82,483.47,225.48,483.6,225.84,483.6 C226.25,483.6,226.79,483.38,226.79,482.49 C226.79,482.37,226.77,481.8,226.52,481.36 C226.22,480.88,225.88,480.85,225.63,480.84 C225.55,480.83,225.31,480.81,225.24,480.81 C225.16,480.8,225.09,480.79,225.09,480.69 C225.09,480.58,225.16,480.58,225.33,480.58 H225.77 C226.59,480.58,226.95,479.91,226.95,478.93 C226.95,477.58,226.27,477.3,225.83,477.3 C225.4,477.3,224.66,477.46,224.31,478.05 C224.66,478,224.96,478.22,224.96,478.6 C224.96,478.95,224.7,479.15,224.41,479.15 C224.17,479.15,223.85,479.01,223.85,478.58 C223.85,477.67,224.77,477.02,225.86,477.02 C227.07,477.02,227.98,477.92,227.98,478.93 C227.98,479.75,227.35,480.52,226.32,480.73 Z " /><path
             id="path11675"
             style="fill:#000000;stroke-width:0"
             fill="black"
             stroke-width="0"
             d="M231.05,480.94 H232.17 C231.85,479.47,231.76,479.04,231.76,478.38 C231.76,478.23,231.76,477.96,231.84,477.62 C231.93,477.18,232.04,477.13,232.19,477.13 C232.39,477.13,232.6,477.3,232.6,477.5 C232.6,477.56,232.6,477.58,232.54,477.72 C232.25,478.44,232.25,479.08,232.25,479.36 C232.25,479.89,232.32,480.42,232.43,480.94 H233.57 C233.7,480.94,234.05,480.94,234.05,481.28 C234.05,481.52,233.85,481.52,233.66,481.52 H230.32 C230.1,481.52,229.73,481.52,229.29,481.05 C228.94,480.66,228.68,480.2,228.68,480.16 C228.68,480.15,228.68,480.06,228.8,480.06 C228.88,480.06,228.9,480.1,228.96,480.17 C229.45,480.94,230.02,480.94,230.22,480.94 H230.79 C230.47,479.74,229.93,478.54,229.52,477.63 C229.44,477.48,229.44,477.46,229.44,477.39 C229.44,477.2,229.6,477.13,229.73,477.13 C230.02,477.13,230.1,477.4,230.22,477.77 C230.36,478.23,230.36,478.25,230.49,478.74 Z " /></g>        <path
           id="path11677"
           inkscape:label="none"
           style="stroke-linejoin:round;stroke:#B2B2B2;stroke-linecap:round;stroke-dasharray:none;stroke-width:0.4;fill:none"
           d="M  -20.0 40.0 -20.0 -40.0" />
        <path
           id="path11679"
           inkscape:label="none"
           style="stroke-linejoin:round;stroke:#4C4C4C;stroke-linecap:round;stroke-dasharray:none;stroke-width:0.571428571429;fill:none"
           d="m -20.0 -1.25 0 2.5" />
        <g
           transform="translate(-21.250000 2.500000) translate(-140.130183 284.923088) scale(0.591716 -0.591716)  "
           ns0:preamble="/home/fernando/.config/inkscape/extensions/textextLib/basicLatexPackages.tex"
           ns0:text=" $-\\pi$"
           text-anchor="start"
           word-spacing="normal"
           letter-spacing="normal"
           font-size-adjust="none"
           font-stretch="normal"
           font-weight="normal"
           font-variant="normal"
           font-style="normal"
           fill-opacity="1"
           fill-rule="evenodd"
           fill="none"
           stroke-opacity="1"
           stroke-dashoffset="0"
           stroke-dasharray="none"
           stroke-miterlimit="10.433"
           stroke-linejoin="miter"
           stroke-linecap="butt"
           stroke="black"
           xml:space="preserve"
           id="g11681"><path
             id="path11683"
             style="fill:#000000;stroke-width:0"
             fill="black"
             stroke-width="0"
             d="M229.99,479.52 L230.02,479.52 L230.05,479.52 L230.08,479.52 L230.1,479.52 L230.11,479.52 L230.13,479.52 L230.14,479.53 L230.16,479.53 L230.17,479.53 L230.19,479.53 L230.2,479.54 L230.21,479.54 L230.23,479.54 L230.24,479.55 L230.25,479.56 L230.26,479.56 L230.27,479.57 L230.28,479.58 L230.29,479.58 L230.3,479.59 L230.31,479.6 L230.31,479.61 L230.31,479.61 L230.32,479.62 L230.32,479.63 L230.32,479.63 L230.32,479.64 L230.33,479.65 L230.33,479.65 L230.33,479.66 L230.33,479.67 L230.33,479.68 L230.33,479.68 L230.34,479.69 L230.34,479.7 L230.34,479.71 L230.34,479.72 C230.34,479.92,230.16,479.92,229.99,479.92 H224.61 C224.44,479.92,224.26,479.92,224.26,479.72 C224.26,479.52,224.44,479.52,224.61,479.52 Z " /><path
             id="path11685"
             style="fill:#000000;stroke-width:0"
             fill="black"
             stroke-width="0"
             d="M233.82,480.94 H234.94 C234.61,479.47,234.52,479.04,234.52,478.38 C234.52,478.23,234.52,477.96,234.6,477.62 C234.7,477.18,234.81,477.13,234.96,477.13 C235.16,477.13,235.37,477.3,235.37,477.5 C235.37,477.56,235.37,477.58,235.31,477.72 C235.02,478.44,235.02,479.08,235.02,479.36 C235.02,479.89,235.09,480.42,235.2,480.94 H236.34 C236.46,480.94,236.82,480.94,236.82,481.28 C236.82,481.52,236.61,481.52,236.42,481.52 H233.09 C232.87,481.52,232.49,481.52,232.06,481.05 C231.71,480.66,231.45,480.2,231.45,480.16 C231.45,480.15,231.45,480.06,231.57,480.06 C231.65,480.06,231.67,480.1,231.73,480.17 C232.22,480.94,232.79,480.94,232.99,480.94 H233.56 C233.24,479.74,232.7,478.54,232.29,477.63 C232.21,477.48,232.21,477.46,232.21,477.39 C232.21,477.2,232.37,477.13,232.49,477.13 C232.79,477.13,232.87,477.4,232.99,477.77 C233.13,478.23,233.13,478.25,233.26,478.74 Z " /></g>        <path
           id="path11687"
           inkscape:label="none"
           style="stroke-linejoin:round;stroke:#B2B2B2;stroke-linecap:round;stroke-dasharray:none;stroke-width:0.4;fill:none"
           d="M  -40.0 40.0 -40.0 -40.0" />
        <path
           id="path11689"
           inkscape:label="none"
           style="stroke-linejoin:round;stroke:#4C4C4C;stroke-linecap:round;stroke-dasharray:none;stroke-width:0.571428571429;fill:none"
           d="m -40.0 -1.25 0 2.5" />
        <g
           transform="translate(-41.250000 2.500000) translate(-143.076929 286.301787) scale(0.591716 -0.591716)  "
           ns0:preamble="/home/fernando/.config/inkscape/extensions/textextLib/basicLatexPackages.tex"
           ns0:text=" $-2\\pi$"
           text-anchor="start"
           word-spacing="normal"
           letter-spacing="normal"
           font-size-adjust="none"
           font-stretch="normal"
           font-weight="normal"
           font-variant="normal"
           font-style="normal"
           fill-opacity="1"
           fill-rule="evenodd"
           fill="none"
           stroke-opacity="1"
           stroke-dashoffset="0"
           stroke-dasharray="none"
           stroke-miterlimit="10.433"
           stroke-linejoin="miter"
           stroke-linecap="butt"
           stroke="black"
           xml:space="preserve"
           id="g11691"><path
             id="path11693"
             style="fill:#000000;stroke-width:0"
             fill="black"
             stroke-width="0"
             d="M229.99,479.52 L230.02,479.52 L230.05,479.52 L230.08,479.52 L230.1,479.52 L230.11,479.52 L230.13,479.52 L230.14,479.53 L230.16,479.53 L230.17,479.53 L230.19,479.53 L230.2,479.54 L230.21,479.54 L230.23,479.54 L230.24,479.55 L230.25,479.56 L230.26,479.56 L230.27,479.57 L230.28,479.58 L230.29,479.58 L230.3,479.59 L230.31,479.6 L230.31,479.61 L230.31,479.61 L230.32,479.62 L230.32,479.63 L230.32,479.63 L230.32,479.64 L230.33,479.65 L230.33,479.65 L230.33,479.66 L230.33,479.67 L230.33,479.68 L230.33,479.68 L230.34,479.69 L230.34,479.7 L230.34,479.71 L230.34,479.72 C230.34,479.92,230.16,479.92,229.99,479.92 H224.61 C224.44,479.92,224.26,479.92,224.26,479.72 C224.26,479.52,224.44,479.52,224.61,479.52 Z " /><path
             id="path11695"
             style="fill:#000000;stroke-width:0"
             fill="black"
             stroke-width="0"
             d="M232.45,478 L233.5,479.02 C235.05,480.39,235.65,480.93,235.65,481.92 C235.65,483.06,234.75,483.85,233.54,483.85 C232.41,483.85,231.68,482.94,231.68,482.05 C231.68,481.5,232.18,481.5,232.21,481.5 C232.38,481.5,232.72,481.62,232.72,482.02 C232.72,482.28,232.54,482.54,232.2,482.54 C232.12,482.54,232.1,482.54,232.07,482.53 C232.29,483.17,232.83,483.54,233.41,483.54 C234.32,483.54,234.74,482.74,234.74,481.92 C234.74,481.13,234.24,480.34,233.7,479.73 L231.79,477.6 C231.68,477.49,231.68,477.47,231.68,477.23 H235.37 L235.65,478.96 H235.4 C235.35,478.67,235.28,478.23,235.18,478.08 C235.11,478,234.45,478,234.24,478 Z " /><path
             id="path11697"
             style="fill:#000000;stroke-width:0"
             fill="black"
             stroke-width="0"
             d="M238.8,480.94 H239.92 C239.59,479.47,239.51,479.04,239.51,478.38 C239.51,478.23,239.51,477.96,239.59,477.62 C239.68,477.18,239.79,477.13,239.94,477.13 C240.14,477.13,240.35,477.3,240.35,477.5 C240.35,477.56,240.35,477.58,240.29,477.72 C240,478.44,240,479.08,240,479.36 C240,479.89,240.07,480.42,240.18,480.94 H241.32 C241.45,480.94,241.8,480.94,241.8,481.28 C241.8,481.52,241.59,481.52,241.4,481.52 H238.07 C237.85,481.52,237.48,481.52,237.04,481.05 C236.69,480.66,236.43,480.2,236.43,480.16 C236.43,480.15,236.43,480.06,236.55,480.06 C236.63,480.06,236.65,480.1,236.71,480.17 C237.2,480.94,237.77,480.94,237.97,480.94 H238.54 C238.22,479.74,237.68,478.54,237.27,477.63 C237.19,477.48,237.19,477.46,237.19,477.39 C237.19,477.2,237.35,477.13,237.48,477.13 C237.77,477.13,237.85,477.4,237.97,477.77 C238.11,478.23,238.11,478.25,238.24,478.74 Z " /></g>        <path
           id="path11699"
           inkscape:label="none"
           style="stroke-linejoin:round;stroke:#B2B2B2;stroke-linecap:round;stroke-dasharray:none;stroke-width:0.4;fill:none"
           d="M  -60.0 40.0 -60.0 -40.0" />
        <path
           id="path11701"
           inkscape:label="none"
           style="stroke-linejoin:round;stroke:#4C4C4C;stroke-linecap:round;stroke-dasharray:none;stroke-width:0.571428571429;fill:none"
           d="m -60.0 -1.25 0 2.5" />
        <g
           transform="translate(-61.250000 2.500000) translate(-143.076929 286.301787) scale(0.591716 -0.591716)  "
           ns0:preamble="/home/fernando/.config/inkscape/extensions/textextLib/basicLatexPackages.tex"
           ns0:text=" $-3\\pi$"
           text-anchor="start"
           word-spacing="normal"
           letter-spacing="normal"
           font-size-adjust="none"
           font-stretch="normal"
           font-weight="normal"
           font-variant="normal"
           font-style="normal"
           fill-opacity="1"
           fill-rule="evenodd"
           fill="none"
           stroke-opacity="1"
           stroke-dashoffset="0"
           stroke-dasharray="none"
           stroke-miterlimit="10.433"
           stroke-linejoin="miter"
           stroke-linecap="butt"
           stroke="black"
           xml:space="preserve"
           id="g11703"><path
             id="path11705"
             style="fill:#000000;stroke-width:0"
             fill="black"
             stroke-width="0"
             d="M229.99,479.52 L230.02,479.52 L230.05,479.52 L230.08,479.52 L230.1,479.52 L230.11,479.52 L230.13,479.52 L230.14,479.53 L230.16,479.53 L230.17,479.53 L230.19,479.53 L230.2,479.54 L230.21,479.54 L230.23,479.54 L230.24,479.55 L230.25,479.56 L230.26,479.56 L230.27,479.57 L230.28,479.58 L230.29,479.58 L230.3,479.59 L230.31,479.6 L230.31,479.61 L230.31,479.61 L230.32,479.62 L230.32,479.63 L230.32,479.63 L230.32,479.64 L230.33,479.65 L230.33,479.65 L230.33,479.66 L230.33,479.67 L230.33,479.68 L230.33,479.68 L230.34,479.69 L230.34,479.7 L230.34,479.71 L230.34,479.72 C230.34,479.92,230.16,479.92,229.99,479.92 H224.61 C224.44,479.92,224.26,479.92,224.26,479.72 C224.26,479.52,224.44,479.52,224.61,479.52 Z " /><path
             id="path11707"
             style="fill:#000000;stroke-width:0"
             fill="black"
             stroke-width="0"
             d="M234.07,480.73 L234.14,480.76 L234.22,480.79 L234.29,480.82 L234.36,480.85 L234.43,480.89 L234.5,480.93 L234.56,480.97 L234.63,481.01 L234.69,481.05 L234.75,481.1 L234.81,481.15 L234.87,481.2 L234.92,481.25 L234.97,481.3 L235.02,481.36 L235.07,481.41 L235.11,481.47 L235.16,481.53 L235.2,481.59 L235.23,481.65 L235.27,481.72 L235.3,481.78 L235.33,481.85 L235.36,481.91 L235.38,481.98 L235.4,482.05 L235.42,482.12 L235.43,482.19 L235.44,482.26 L235.45,482.33 L235.46,482.41 L235.46,482.48 C235.46,483.3,234.58,483.85,233.63,483.85 C232.62,483.85,231.87,483.26,231.87,482.5 C231.87,482.17,232.09,481.98,232.38,481.98 C232.68,481.98,232.88,482.2,232.88,482.49 C232.88,482.99,232.41,482.99,232.26,482.99 C232.57,483.47,233.23,483.6,233.59,483.6 C234,483.6,234.54,483.38,234.54,482.49 C234.54,482.37,234.52,481.8,234.26,481.36 C233.97,480.88,233.63,480.85,233.38,480.84 C233.3,480.83,233.06,480.81,232.99,480.81 C232.91,480.8,232.84,480.79,232.84,480.69 C232.84,480.58,232.91,480.58,233.08,480.58 H233.52 C234.34,480.58,234.7,479.91,234.7,478.93 C234.7,477.58,234.02,477.3,233.58,477.3 C233.15,477.3,232.4,477.46,232.06,478.05 C232.4,478,232.71,478.22,232.71,478.6 C232.71,478.95,232.45,479.15,232.16,479.15 C231.92,479.15,231.6,479.01,231.6,478.58 C231.6,477.67,232.52,477.02,233.61,477.02 C234.82,477.02,235.73,477.92,235.73,478.93 C235.73,479.75,235.1,480.52,234.07,480.73 Z " /><path
             id="path11709"
             style="fill:#000000;stroke-width:0"
             fill="black"
             stroke-width="0"
             d="M238.8,480.94 H239.92 C239.59,479.47,239.51,479.04,239.51,478.38 C239.51,478.23,239.51,477.96,239.59,477.62 C239.68,477.18,239.79,477.13,239.94,477.13 C240.14,477.13,240.35,477.3,240.35,477.5 C240.35,477.56,240.35,477.58,240.29,477.72 C240,478.44,240,479.08,240,479.36 C240,479.89,240.07,480.42,240.18,480.94 H241.32 C241.45,480.94,241.8,480.94,241.8,481.28 C241.8,481.52,241.59,481.52,241.4,481.52 H238.07 C237.85,481.52,237.48,481.52,237.04,481.05 C236.69,480.66,236.43,480.2,236.43,480.16 C236.43,480.15,236.43,480.06,236.55,480.06 C236.63,480.06,236.65,480.1,236.71,480.17 C237.2,480.94,237.77,480.94,237.97,480.94 H238.54 C238.22,479.74,237.68,478.54,237.27,477.63 C237.19,477.48,237.19,477.46,237.19,477.39 C237.19,477.2,237.35,477.13,237.48,477.13 C237.77,477.13,237.85,477.4,237.97,477.77 C238.11,478.23,238.11,478.25,238.24,478.74 Z " /></g>        <g
           transform="translate(-2.500000 -1.250000) translate(-134.917165 282.260366) scale(0.591716 -0.591716)  "
           ns0:preamble="/home/fernando/.config/inkscape/extensions/textextLib/basicLatexPackages.tex"
           ns0:text=" $0$"
           text-anchor="start"
           word-spacing="normal"
           letter-spacing="normal"
           font-size-adjust="none"
           font-stretch="normal"
           font-weight="normal"
           font-variant="normal"
           font-style="normal"
           fill-opacity="1"
           fill-rule="evenodd"
           fill="none"
           stroke-opacity="1"
           stroke-dashoffset="0"
           stroke-dasharray="none"
           stroke-miterlimit="10.433"
           stroke-linejoin="miter"
           stroke-linecap="butt"
           stroke="black"
           xml:space="preserve"
           id="g11711"><path
             id="path11713"
             style="fill:#000000;stroke-width:0"
             fill="black"
             stroke-width="0"
             d="M228.01,480.41 L228.01,480.56 L228.01,480.71 L228,480.86 L228,481.01 L227.99,481.16 L227.97,481.3 L227.96,481.45 L227.94,481.6 L227.92,481.74 L227.89,481.89 L227.86,482.03 L227.82,482.18 L227.78,482.32 L227.73,482.46 L227.67,482.6 L227.64,482.67 L227.61,482.74 C227.15,483.69,226.34,483.85,225.92,483.85 C225.32,483.85,224.6,483.59,224.19,482.67 C223.87,481.98,223.82,481.21,223.82,480.41 C223.82,479.67,223.86,478.77,224.27,478.02 C224.7,477.21,225.42,477.02,225.91,477.02 V477.23 C225.52,477.23,224.93,477.48,224.76,478.44 C224.65,479.03,224.65,479.95,224.65,480.53 C224.65,481.17,224.65,481.82,224.73,482.36 C224.91,483.54,225.66,483.63,225.91,483.63 C226.24,483.63,226.89,483.45,227.08,482.47 C227.18,481.91,227.18,481.16,227.18,480.53 C227.18,479.79,227.18,479.11,227.07,478.48 C226.92,477.53,226.36,477.23,225.91,477.23 H225.91 V477.02 C226.45,477.02,227.2,477.23,227.64,478.17 C227.96,478.85,228.01,479.63,228.01,480.41 Z " /></g>        <path
           id="path11715"
           inkscape:label="none"
           style="stroke-linejoin:round;stroke:#B2B2B2;stroke-linecap:round;stroke-dasharray:none;stroke-width:0.4;fill:none"
           d="M  -60.0 -20.0 60.0 -20.0" />
        <path
           id="path11717"
           inkscape:label="none"
           style="stroke-linejoin:round;stroke:#4C4C4C;stroke-linecap:round;stroke-dasharray:none;stroke-width:0.571428571429;fill:none"
           d="m -1.25 -20.0 2.5 0" />
        <g
           transform="translate(-2.500000 -18.750000) translate(-139.437875 286.301787) scale(0.591716 -0.591716)  "
           ns0:preamble="/home/fernando/.config/inkscape/extensions/textextLib/basicLatexPackages.tex"
           ns0:text=" $0.5$"
           text-anchor="start"
           word-spacing="normal"
           letter-spacing="normal"
           font-size-adjust="none"
           font-stretch="normal"
           font-weight="normal"
           font-variant="normal"
           font-style="normal"
           fill-opacity="1"
           fill-rule="evenodd"
           fill="none"
           stroke-opacity="1"
           stroke-dashoffset="0"
           stroke-dasharray="none"
           stroke-miterlimit="10.433"
           stroke-linejoin="miter"
           stroke-linecap="butt"
           stroke="black"
           xml:space="preserve"
           id="g11719"><path
             id="path11721"
             style="fill:#000000;stroke-width:0"
             fill="black"
             stroke-width="0"
             d="M228.01,480.41 L228.01,480.56 L228.01,480.71 L228,480.86 L228,481.01 L227.99,481.16 L227.97,481.3 L227.96,481.45 L227.94,481.6 L227.92,481.74 L227.89,481.89 L227.86,482.03 L227.82,482.18 L227.78,482.32 L227.73,482.46 L227.67,482.6 L227.64,482.67 L227.61,482.74 C227.15,483.69,226.34,483.85,225.92,483.85 C225.32,483.85,224.6,483.59,224.19,482.67 C223.87,481.98,223.82,481.21,223.82,480.41 C223.82,479.67,223.86,478.77,224.27,478.02 C224.7,477.21,225.42,477.02,225.91,477.02 V477.23 C225.52,477.23,224.93,477.48,224.76,478.44 C224.65,479.03,224.65,479.95,224.65,480.53 C224.65,481.17,224.65,481.82,224.73,482.36 C224.91,483.54,225.66,483.63,225.91,483.63 C226.24,483.63,226.89,483.45,227.08,482.47 C227.18,481.91,227.18,481.16,227.18,480.53 C227.18,479.79,227.18,479.11,227.07,478.48 C226.92,477.53,226.36,477.23,225.91,477.23 H225.91 V477.02 C226.45,477.02,227.2,477.23,227.64,478.17 C227.96,478.85,228.01,479.63,228.01,480.41 Z " /><path
             id="path11723"
             style="fill:#000000;stroke-width:0"
             fill="black"
             stroke-width="0"
             d="M230.32,477.76 L230.32,477.79 L230.32,477.82 L230.32,477.84 L230.31,477.87 L230.31,477.89 L230.3,477.92 L230.29,477.94 L230.28,477.97 L230.27,477.99 L230.26,478.01 L230.25,478.03 L230.23,478.05 L230.22,478.08 L230.2,478.1 L230.19,478.11 L230.17,478.13 L230.15,478.15 L230.13,478.17 L230.11,478.18 L230.09,478.2 L230.07,478.21 L230.05,478.22 L230.02,478.24 L230,478.25 L229.98,478.26 L229.95,478.26 L229.93,478.27 L229.9,478.28 L229.88,478.28 L229.85,478.29 L229.82,478.29 L229.8,478.29 C229.51,478.29,229.27,478.05,229.27,477.76 C229.27,477.47,229.51,477.23,229.8,477.23 C230.08,477.23,230.32,477.47,230.32,477.76 Z " /><path
             id="path11725"
             style="fill:#000000;stroke-width:0"
             fill="black"
             stroke-width="0"
             d="M235.65,479.23 L235.65,479.34 L235.64,479.45 L235.63,479.56 L235.61,479.66 L235.59,479.77 L235.57,479.87 L235.54,479.97 L235.5,480.07 L235.47,480.17 L235.43,480.26 L235.38,480.35 L235.33,480.44 L235.28,480.53 L235.23,480.61 L235.17,480.69 L235.11,480.76 L235.04,480.84 L234.97,480.9 L234.9,480.97 L234.83,481.03 L234.75,481.09 L234.67,481.14 L234.59,481.19 L234.51,481.23 L234.42,481.27 L234.33,481.31 L234.24,481.34 L234.15,481.36 L234.05,481.38 L233.96,481.4 L233.86,481.4 L233.76,481.41 C233.28,481.41,232.85,481.25,232.49,480.9 V482.84 C232.69,482.78,233.02,482.71,233.34,482.71 C234.56,482.71,235.26,483.61,235.26,483.74 C235.26,483.8,235.23,483.85,235.16,483.85 C235.15,483.85,235.13,483.85,235.08,483.82 C234.88,483.73,234.4,483.53,233.73,483.53 C233.33,483.53,232.87,483.6,232.4,483.81 C232.32,483.84,232.3,483.84,232.29,483.84 C232.19,483.84,232.19,483.76,232.19,483.6 V480.66 C232.19,480.48,232.19,480.4,232.32,480.4 C232.4,480.4,232.41,480.43,232.46,480.49 C232.56,480.65,232.93,481.19,233.74,481.19 C234.26,481.19,234.5,480.73,234.58,480.55 C234.74,480.18,234.76,479.8,234.76,479.3 C234.76,478.95,234.76,478.36,234.52,477.94 C234.29,477.55,233.92,477.3,233.46,477.3 C232.73,477.3,232.17,477.82,232,478.41 C232.03,478.4,232.06,478.39,232.17,478.39 C232.49,478.39,232.66,478.64,232.66,478.87 C232.66,479.11,232.49,479.36,232.17,479.36 C232.03,479.36,231.68,479.29,231.68,478.83 C231.68,477.98,232.37,477.02,233.48,477.02 C234.63,477.02,235.65,477.97,235.65,479.23 Z " /></g>        <path
           id="path11727"
           inkscape:label="none"
           style="stroke-linejoin:round;stroke:#B2B2B2;stroke-linecap:round;stroke-dasharray:none;stroke-width:0.4;fill:none"
           d="M  -60.0 -40.0 60.0 -40.0" />
        <path
           id="path11729"
           inkscape:label="none"
           style="stroke-linejoin:round;stroke:#4C4C4C;stroke-linecap:round;stroke-dasharray:none;stroke-width:0.571428571429;fill:none"
           d="m -1.25 -40.0 2.5 0" />
        <g
           transform="translate(-2.500000 -38.750000) translate(-134.674562 286.301787) scale(0.591716 -0.591716)  "
           ns0:preamble="/home/fernando/.config/inkscape/extensions/textextLib/basicLatexPackages.tex"
           ns0:text=" $1$"
           text-anchor="start"
           word-spacing="normal"
           letter-spacing="normal"
           font-size-adjust="none"
           font-stretch="normal"
           font-weight="normal"
           font-variant="normal"
           font-style="normal"
           fill-opacity="1"
           fill-rule="evenodd"
           fill="none"
           stroke-opacity="1"
           stroke-dashoffset="0"
           stroke-dasharray="none"
           stroke-miterlimit="10.433"
           stroke-linejoin="miter"
           stroke-linecap="butt"
           stroke="black"
           xml:space="preserve"
           id="g11731"><path
             id="path11733"
             style="fill:#000000;stroke-width:0"
             fill="black"
             stroke-width="0"
             d="M226.36,483.59 L226.36,483.6 L226.36,483.61 L226.36,483.63 L226.36,483.64 L226.36,483.64 L226.36,483.65 L226.36,483.66 L226.36,483.67 L226.36,483.68 L226.36,483.69 L226.36,483.7 L226.36,483.71 L226.36,483.71 L226.35,483.72 L226.35,483.73 L226.35,483.73 L226.35,483.74 L226.35,483.75 L226.35,483.76 L226.35,483.77 L226.34,483.78 L226.34,483.79 L226.34,483.8 L226.33,483.8 L226.33,483.81 L226.32,483.82 L226.32,483.82 L226.31,483.83 L226.3,483.83 L226.29,483.84 L226.29,483.84 L226.28,483.84 L226.28,483.84 L226.27,483.84 L226.27,483.84 L226.26,483.84 L226.25,483.85 L226.25,483.85 L226.24,483.85 L226.23,483.85 L226.23,483.85 L226.22,483.85 L226.21,483.85 L226.2,483.85 L226.2,483.85 L226.19,483.85 L226.18,483.85 L226.17,483.85 L226.16,483.85 L226.15,483.85 L226.14,483.85 L226.13,483.85 C225.51,483.21,224.64,483.21,224.32,483.21 V482.91 C224.52,482.91,225.1,482.91,225.62,483.17 V478.02 C225.62,477.66,225.59,477.54,224.7,477.54 H224.38 V477.23 C224.73,477.27,225.59,477.27,225.99,477.27 C226.39,477.27,227.25,477.27,227.6,477.23 V477.54 H227.28 C226.39,477.54,226.36,477.65,226.36,478.02 Z " /></g>        <path
           id="path11735"
           inkscape:label="none"
           style="stroke-linejoin:round;stroke:#B2B2B2;stroke-linecap:round;stroke-dasharray:none;stroke-width:0.4;fill:none"
           d="M  -60.0 20.0 60.0 20.0" />
        <path
           id="path11737"
           inkscape:label="none"
           style="stroke-linejoin:round;stroke:#4C4C4C;stroke-linecap:round;stroke-dasharray:none;stroke-width:0.571428571429;fill:none"
           d="m -1.25 20.0 2.5 0" />
        <g
           transform="translate(-2.500000 21.250000) translate(-144.023674 286.301787) scale(0.591716 -0.591716)  "
           ns0:preamble="/home/fernando/.config/inkscape/extensions/textextLib/basicLatexPackages.tex"
           ns0:text=" $-0.5$"
           text-anchor="start"
           word-spacing="normal"
           letter-spacing="normal"
           font-size-adjust="none"
           font-stretch="normal"
           font-weight="normal"
           font-variant="normal"
           font-style="normal"
           fill-opacity="1"
           fill-rule="evenodd"
           fill="none"
           stroke-opacity="1"
           stroke-dashoffset="0"
           stroke-dasharray="none"
           stroke-miterlimit="10.433"
           stroke-linejoin="miter"
           stroke-linecap="butt"
           stroke="black"
           xml:space="preserve"
           id="g11739"><path
             id="path11741"
             style="fill:#000000;stroke-width:0"
             fill="black"
             stroke-width="0"
             d="M229.99,479.52 L230.02,479.52 L230.05,479.52 L230.08,479.52 L230.1,479.52 L230.11,479.52 L230.13,479.52 L230.14,479.53 L230.16,479.53 L230.17,479.53 L230.19,479.53 L230.2,479.54 L230.21,479.54 L230.23,479.54 L230.24,479.55 L230.25,479.56 L230.26,479.56 L230.27,479.57 L230.28,479.58 L230.29,479.58 L230.3,479.59 L230.31,479.6 L230.31,479.61 L230.31,479.61 L230.32,479.62 L230.32,479.63 L230.32,479.63 L230.32,479.64 L230.33,479.65 L230.33,479.65 L230.33,479.66 L230.33,479.67 L230.33,479.68 L230.33,479.68 L230.34,479.69 L230.34,479.7 L230.34,479.71 L230.34,479.72 C230.34,479.92,230.16,479.92,229.99,479.92 H224.61 C224.44,479.92,224.26,479.92,224.26,479.72 C224.26,479.52,224.44,479.52,224.61,479.52 Z " /><path
             id="path11743"
             style="fill:#000000;stroke-width:0"
             fill="black"
             stroke-width="0"
             d="M235.76,480.41 L235.76,480.56 L235.76,480.71 L235.75,480.86 L235.74,481.01 L235.74,481.16 L235.72,481.3 L235.71,481.45 L235.69,481.6 L235.67,481.74 L235.64,481.89 L235.61,482.03 L235.57,482.18 L235.53,482.32 L235.48,482.46 L235.42,482.6 L235.39,482.67 L235.36,482.74 C234.9,483.69,234.09,483.85,233.67,483.85 C233.07,483.85,232.35,483.59,231.94,482.67 C231.62,481.98,231.57,481.21,231.57,480.41 C231.57,479.67,231.61,478.77,232.02,478.02 C232.45,477.21,233.17,477.02,233.66,477.02 V477.23 C233.27,477.23,232.68,477.48,232.5,478.44 C232.4,479.03,232.4,479.95,232.4,480.53 C232.4,481.17,232.4,481.82,232.47,482.36 C232.66,483.54,233.41,483.63,233.66,483.63 C233.99,483.63,234.64,483.45,234.83,482.47 C234.93,481.91,234.93,481.16,234.93,480.53 C234.93,479.79,234.93,479.11,234.82,478.48 C234.67,477.53,234.11,477.23,233.66,477.23 H233.66 V477.02 C234.2,477.02,234.95,477.23,235.39,478.17 C235.71,478.85,235.76,479.63,235.76,480.41 Z " /><path
             id="path11745"
             style="fill:#000000;stroke-width:0"
             fill="black"
             stroke-width="0"
             d="M238.07,477.76 L238.07,477.79 L238.07,477.82 L238.07,477.84 L238.06,477.87 L238.06,477.89 L238.05,477.92 L238.04,477.94 L238.03,477.97 L238.02,477.99 L238.01,478.01 L237.99,478.03 L237.98,478.05 L237.97,478.08 L237.95,478.1 L237.93,478.11 L237.92,478.13 L237.9,478.15 L237.88,478.17 L237.86,478.18 L237.84,478.2 L237.82,478.21 L237.79,478.22 L237.77,478.24 L237.75,478.25 L237.72,478.26 L237.7,478.26 L237.68,478.27 L237.65,478.28 L237.62,478.28 L237.6,478.29 L237.57,478.29 L237.54,478.29 C237.26,478.29,237.02,478.05,237.02,477.76 C237.02,477.47,237.26,477.23,237.54,477.23 C237.83,477.23,238.07,477.47,238.07,477.76 Z " /><path
             id="path11747"
             style="fill:#000000;stroke-width:0"
             fill="black"
             stroke-width="0"
             d="M243.4,479.23 L243.39,479.34 L243.39,479.45 L243.38,479.56 L243.36,479.66 L243.34,479.77 L243.31,479.87 L243.29,479.97 L243.25,480.07 L243.22,480.17 L243.17,480.26 L243.13,480.35 L243.08,480.44 L243.03,480.53 L242.98,480.61 L242.92,480.69 L242.85,480.76 L242.79,480.84 L242.72,480.9 L242.65,480.97 L242.58,481.03 L242.5,481.09 L242.42,481.14 L242.34,481.19 L242.26,481.23 L242.17,481.27 L242.08,481.31 L241.99,481.34 L241.9,481.36 L241.8,481.38 L241.71,481.4 L241.61,481.4 L241.51,481.41 C241.03,481.41,240.6,481.25,240.24,480.9 V482.84 C240.44,482.78,240.77,482.71,241.09,482.71 C242.31,482.71,243.01,483.61,243.01,483.74 C243.01,483.8,242.98,483.85,242.91,483.85 C242.9,483.85,242.88,483.85,242.83,483.82 C242.63,483.73,242.14,483.53,241.48,483.53 C241.08,483.53,240.62,483.6,240.15,483.81 C240.07,483.84,240.05,483.84,240.03,483.84 C239.93,483.84,239.93,483.76,239.93,483.6 V480.66 C239.93,480.48,239.93,480.4,240.07,480.4 C240.14,480.4,240.16,480.43,240.2,480.49 C240.31,480.65,240.68,481.19,241.49,481.19 C242,481.19,242.25,480.73,242.33,480.55 C242.49,480.18,242.51,479.8,242.51,479.3 C242.51,478.95,242.51,478.36,242.27,477.94 C242.03,477.55,241.67,477.3,241.21,477.3 C240.48,477.3,239.91,477.82,239.75,478.41 C239.78,478.4,239.81,478.39,239.91,478.39 C240.24,478.39,240.41,478.64,240.41,478.87 C240.41,479.11,240.24,479.36,239.91,479.36 C239.78,479.36,239.43,479.29,239.43,478.83 C239.43,477.98,240.11,477.02,241.23,477.02 C242.38,477.02,243.4,477.97,243.4,479.23 Z " /></g>        <path
           id="path11749"
           inkscape:label="none"
           style="stroke-linejoin:round;stroke:#B2B2B2;stroke-linecap:round;stroke-dasharray:none;stroke-width:0.4;fill:none"
           d="M  -60.0 40.0 60.0 40.0" />
        <path
           id="path11751"
           inkscape:label="none"
           style="stroke-linejoin:round;stroke:#4C4C4C;stroke-linecap:round;stroke-dasharray:none;stroke-width:0.571428571429;fill:none"
           d="m -1.25 40.0 2.5 0" />
        <g
           transform="translate(-2.500000 41.250000) translate(-139.260361 286.301787) scale(0.591716 -0.591716)  "
           ns0:preamble="/home/fernando/.config/inkscape/extensions/textextLib/basicLatexPackages.tex"
           ns0:text=" $-1$"
           text-anchor="start"
           word-spacing="normal"
           letter-spacing="normal"
           font-size-adjust="none"
           font-stretch="normal"
           font-weight="normal"
           font-variant="normal"
           font-style="normal"
           fill-opacity="1"
           fill-rule="evenodd"
           fill="none"
           stroke-opacity="1"
           stroke-dashoffset="0"
           stroke-dasharray="none"
           stroke-miterlimit="10.433"
           stroke-linejoin="miter"
           stroke-linecap="butt"
           stroke="black"
           xml:space="preserve"
           id="g11753"><path
             id="path11755"
             style="fill:#000000;stroke-width:0"
             fill="black"
             stroke-width="0"
             d="M229.99,479.52 L230.02,479.52 L230.05,479.52 L230.08,479.52 L230.1,479.52 L230.11,479.52 L230.13,479.52 L230.14,479.53 L230.16,479.53 L230.17,479.53 L230.19,479.53 L230.2,479.54 L230.21,479.54 L230.23,479.54 L230.24,479.55 L230.25,479.56 L230.26,479.56 L230.27,479.57 L230.28,479.58 L230.29,479.58 L230.3,479.59 L230.31,479.6 L230.31,479.61 L230.31,479.61 L230.32,479.62 L230.32,479.63 L230.32,479.63 L230.32,479.64 L230.33,479.65 L230.33,479.65 L230.33,479.66 L230.33,479.67 L230.33,479.68 L230.33,479.68 L230.34,479.69 L230.34,479.7 L230.34,479.71 L230.34,479.72 C230.34,479.92,230.16,479.92,229.99,479.92 H224.61 C224.44,479.92,224.26,479.92,224.26,479.72 C224.26,479.52,224.44,479.52,224.61,479.52 Z " /><path
             id="path11757"
             style="fill:#000000;stroke-width:0"
             fill="black"
             stroke-width="0"
             d="M234.11,483.59 L234.11,483.6 L234.11,483.61 L234.11,483.63 L234.11,483.64 L234.11,483.64 L234.11,483.65 L234.11,483.66 L234.11,483.67 L234.11,483.68 L234.11,483.69 L234.1,483.7 L234.1,483.71 L234.1,483.71 L234.1,483.72 L234.1,483.73 L234.1,483.73 L234.1,483.74 L234.1,483.75 L234.1,483.76 L234.1,483.77 L234.09,483.78 L234.09,483.79 L234.09,483.8 L234.08,483.8 L234.08,483.81 L234.07,483.82 L234.07,483.82 L234.06,483.83 L234.05,483.83 L234.04,483.84 L234.04,483.84 L234.03,483.84 L234.03,483.84 L234.02,483.84 L234.02,483.84 L234.01,483.84 L234,483.85 L234,483.85 L233.99,483.85 L233.98,483.85 L233.98,483.85 L233.97,483.85 L233.96,483.85 L233.95,483.85 L233.94,483.85 L233.94,483.85 L233.93,483.85 L233.92,483.85 L233.91,483.85 L233.9,483.85 L233.89,483.85 L233.88,483.85 C233.26,483.21,232.38,483.21,232.07,483.21 V482.91 C232.26,482.91,232.85,482.91,233.37,483.17 V478.02 C233.37,477.66,233.34,477.54,232.45,477.54 H232.13 V477.23 C232.47,477.27,233.34,477.27,233.74,477.27 C234.14,477.27,235,477.27,235.35,477.23 V477.54 H235.03 C234.14,477.54,234.11,477.65,234.11,478.02 Z " /></g>      </g>
      <g
         id="g11759"
         inkscape:label="Axis">
        <path
           id="path11761"
           inkscape:label="Xaxis"
           style="stroke-linejoin:round;marker-end:url(#ArrowAxisEnd);stroke:#4C4C4C;stroke-linecap:round;stroke-dasharray:none;stroke-width:0.571428571429;fill:none"
           d="M  -60.0 0.0 70.0 0.0" />
        <g
           transform="translate(68.333333 2.500000) translate(-165.473379 356.235221) scale(0.739645 -0.739645)  "
           ns0:preamble="/home/fernando/.config/inkscape/extensions/textextLib/basicLatexPackages.tex"
           ns0:text=" $x$"
           text-anchor="start"
           word-spacing="normal"
           letter-spacing="normal"
           font-size-adjust="none"
           font-stretch="normal"
           font-weight="normal"
           font-variant="normal"
           font-style="normal"
           fill-opacity="1"
           fill-rule="evenodd"
           fill="none"
           stroke-opacity="1"
           stroke-dashoffset="0"
           stroke-dasharray="none"
           stroke-miterlimit="10.433"
           stroke-linejoin="miter"
           stroke-linecap="butt"
           stroke="black"
           xml:space="preserve"
           id="g11763"><path
             id="path11765"
             style="fill:#000000;stroke-width:0"
             fill="black"
             stroke-width="0"
             d="M226.76,480.23 L226.76,480.26 L226.77,480.29 L226.78,480.32 L226.79,480.36 L226.8,480.4 L226.81,480.44 L226.82,480.48 L226.84,480.53 L226.85,480.57 L226.87,480.62 L226.89,480.67 L226.91,480.72 L226.93,480.77 L226.96,480.82 L226.98,480.87 L227.01,480.92 L227.04,480.97 L227.07,481.01 L227.1,481.06 L227.14,481.1 L227.18,481.15 L227.22,481.19 L227.26,481.23 L227.3,481.26 L227.35,481.29 L227.4,481.32 L227.42,481.33 L227.45,481.35 L227.47,481.36 L227.5,481.37 L227.53,481.38 L227.56,481.38 L227.59,481.39 L227.61,481.4 L227.65,481.4 L227.68,481.4 L227.71,481.41 L227.74,481.41 C227.79,481.41,228.03,481.41,228.24,481.28 C227.96,481.23,227.76,480.98,227.76,480.74 C227.76,480.58,227.87,480.39,228.14,480.39 C228.36,480.39,228.68,480.57,228.68,480.97 C228.68,481.49,228.09,481.63,227.75,481.63 C227.17,481.63,226.82,481.1,226.71,480.87 C226.46,481.53,225.92,481.63,225.63,481.63 C224.6,481.63,224.03,480.34,224.03,480.1 C224.03,480,224.13,480,224.15,480 C224.23,480,224.26,480.02,224.28,480.11 C224.62,481.16,225.27,481.41,225.61,481.41 C225.8,481.41,226.15,481.32,226.15,480.74 C226.15,480.43,225.98,479.77,225.61,478.38 C225.45,477.76,225.1,477.34,224.67,477.34 C224.61,477.34,224.38,477.34,224.17,477.47 C224.42,477.52,224.64,477.73,224.64,478.01 C224.64,478.28,224.42,478.36,224.27,478.36 C223.97,478.36,223.72,478.1,223.72,477.78 C223.72,477.32,224.22,477.13,224.66,477.13 C225.31,477.13,225.67,477.82,225.7,477.88 C225.82,477.51,226.18,477.13,226.77,477.13 C227.8,477.13,228.37,478.41,228.37,478.66 C228.37,478.76,228.28,478.76,228.25,478.76 C228.16,478.76,228.14,478.71,228.12,478.65 C227.79,477.58,227.11,477.34,226.79,477.34 C226.41,477.34,226.25,477.66,226.25,478 C226.25,478.22,226.31,478.44,226.42,478.87 Z " /></g>        <path
           id="path11767"
           inkscape:label="Yaxis"
           style="stroke-linejoin:round;marker-end:url(#ArrowAxisEnd);stroke:#4C4C4C;stroke-linecap:round;stroke-dasharray:none;stroke-width:0.571428571429;fill:none"
           d="M  0.0 40.0 0.0 -55.0" />
        <g
           transform="translate(2.500000 -55.000000) translate(-165.473379 358.491139) scale(0.739645 -0.739645)  "
           ns0:preamble="/home/fernando/.config/inkscape/extensions/textextLib/basicLatexPackages.tex"
           ns0:text=" $y(x)=sin(x)$"
           text-anchor="start"
           word-spacing="normal"
           letter-spacing="normal"
           font-size-adjust="none"
           font-stretch="normal"
           font-weight="normal"
           font-variant="normal"
           font-style="normal"
           fill-opacity="1"
           fill-rule="evenodd"
           fill="none"
           stroke-opacity="1"
           stroke-dashoffset="0"
           stroke-dasharray="none"
           stroke-miterlimit="10.433"
           stroke-linejoin="miter"
           stroke-linecap="butt"
           stroke="black"
           xml:space="preserve"
           id="g11769"><path
             id="path11771"
             style="fill:#000000;stroke-width:0"
             fill="black"
             stroke-width="0"
             d="M228.27,481.02 L228.27,481.03 L228.27,481.03 L228.27,481.04 L228.27,481.04 L228.28,481.06 L228.28,481.07 L228.28,481.08 L228.29,481.09 L228.29,481.1 L228.29,481.1 L228.29,481.11 L228.29,481.12 L228.3,481.13 L228.3,481.14 L228.3,481.14 L228.3,481.15 L228.3,481.15 L228.3,481.16 L228.3,481.17 L228.3,481.17 L228.3,481.18 L228.3,481.18 L228.31,481.19 L228.31,481.2 L228.31,481.21 L228.31,481.22 L228.31,481.23 L228.31,481.24 L228.31,481.24 L228.31,481.25 C228.31,481.43,228.17,481.52,228.02,481.52 C227.92,481.52,227.76,481.46,227.67,481.31 C227.65,481.26,227.57,480.95,227.53,480.77 C227.46,480.51,227.39,480.24,227.33,479.98 L226.88,478.19 C226.85,478.04,226.42,477.34,225.76,477.34 C225.25,477.34,225.14,477.78,225.14,478.15 C225.14,478.61,225.31,479.22,225.65,480.1 C225.81,480.5,225.85,480.61,225.85,480.81 C225.85,481.26,225.53,481.63,225.03,481.63 C224.09,481.63,223.72,480.18,223.72,480.1 C223.72,480,223.82,480,223.84,480 C223.94,480,223.95,480.02,224,480.17 C224.27,481.11,224.67,481.41,225,481.41 C225.08,481.41,225.25,481.41,225.25,481.09 C225.25,480.84,225.15,480.58,225.08,480.39 C224.69,479.34,224.51,478.77,224.51,478.31 C224.51,477.42,225.13,477.13,225.72,477.13 C226.11,477.13,226.45,477.3,226.73,477.57 C226.6,477.06,226.48,476.57,226.08,476.04 C225.82,475.7,225.44,475.42,224.98,475.42 C224.85,475.42,224.4,475.45,224.23,475.83 C224.39,475.83,224.52,475.83,224.66,475.95 C224.76,476.04,224.85,476.17,224.85,476.36 C224.85,476.67,224.59,476.71,224.49,476.71 C224.26,476.71,223.93,476.55,223.93,476.06 C223.93,475.57,224.37,475.2,224.98,475.2 C226.01,475.2,227.03,476.1,227.31,477.23 Z " /><path
             id="path11773"
             style="fill:#000000;stroke-width:0"
             fill="black"
             stroke-width="0"
             d="M231.97,474.85 L231.97,474.86 L231.97,474.86 L231.97,474.86 L231.97,474.87 L231.97,474.87 L231.96,474.87 L231.96,474.88 L231.96,474.88 L231.96,474.88 L231.96,474.89 L231.96,474.89 L231.95,474.9 L231.95,474.9 L231.95,474.91 L231.94,474.91 L231.94,474.92 L231.93,474.93 L231.93,474.93 L231.92,474.94 L231.92,474.94 L231.92,474.95 L231.91,474.95 L231.91,474.95 L231.9,474.96 L231.9,474.96 L231.9,474.97 L231.89,474.97 L231.89,474.98 L231.88,474.98 L231.88,474.99 L231.87,474.99 L231.87,475 L231.86,475.01 L231.85,475.01 L231.85,475.02 L231.84,475.03 L231.83,475.03 L231.83,475.04 L231.82,475.05 L231.81,475.05 L231.81,475.06 L231.8,475.07 C230.55,476.32,230.24,478.2,230.24,479.72 C230.24,481.45,230.61,483.17,231.84,484.42 C231.97,484.54,231.97,484.56,231.97,484.59 C231.97,484.66,231.93,484.68,231.87,484.68 C231.77,484.68,230.87,484.01,230.29,482.75 C229.78,481.66,229.66,480.55,229.66,479.72 C229.66,478.94,229.77,477.74,230.32,476.62 C230.91,475.4,231.77,474.75,231.87,474.75 C231.93,474.75,231.97,474.78,231.97,474.85 Z " /><path
             id="path11775"
             style="fill:#000000;stroke-width:0"
             fill="black"
             stroke-width="0"
             d="M235.87,480.23 L235.88,480.26 L235.88,480.29 L235.89,480.32 L235.9,480.36 L235.91,480.4 L235.92,480.44 L235.94,480.48 L235.95,480.53 L235.97,480.57 L235.99,480.62 L236,480.67 L236.03,480.72 L236.05,480.77 L236.07,480.82 L236.1,480.87 L236.13,480.92 L236.15,480.97 L236.19,481.01 L236.22,481.06 L236.25,481.1 L236.29,481.15 L236.33,481.19 L236.37,481.23 L236.42,481.26 L236.46,481.29 L236.51,481.32 L236.54,481.33 L236.56,481.35 L236.59,481.36 L236.62,481.37 L236.64,481.38 L236.67,481.38 L236.7,481.39 L236.73,481.4 L236.76,481.4 L236.79,481.4 L236.82,481.41 L236.86,481.41 C236.91,481.41,237.15,481.41,237.35,481.28 C237.07,481.23,236.88,480.98,236.88,480.74 C236.88,480.58,236.99,480.39,237.25,480.39 C237.47,480.39,237.79,480.57,237.79,480.97 C237.79,481.49,237.2,481.63,236.87,481.63 C236.29,481.63,235.94,481.1,235.82,480.87 C235.57,481.53,235.04,481.63,234.75,481.63 C233.71,481.63,233.15,480.34,233.15,480.1 C233.15,480,233.24,480,233.26,480 C233.34,480,233.37,480.02,233.39,480.11 C233.73,481.16,234.39,481.41,234.73,481.41 C234.92,481.41,235.26,481.32,235.26,480.74 C235.26,480.43,235.1,479.77,234.73,478.38 C234.57,477.76,234.22,477.34,233.78,477.34 C233.72,477.34,233.49,477.34,233.28,477.47 C233.53,477.52,233.75,477.73,233.75,478.01 C233.75,478.28,233.53,478.36,233.38,478.36 C233.09,478.36,232.84,478.1,232.84,477.78 C232.84,477.32,233.33,477.13,233.77,477.13 C234.43,477.13,234.79,477.82,234.82,477.88 C234.94,477.51,235.29,477.13,235.89,477.13 C236.92,477.13,237.48,478.41,237.48,478.66 C237.48,478.76,237.39,478.76,237.36,478.76 C237.27,478.76,237.25,478.71,237.23,478.65 C236.91,477.58,236.23,477.34,235.91,477.34 C235.52,477.34,235.36,477.66,235.36,478 C235.36,478.22,235.42,478.44,235.53,478.87 Z " /><path
             id="path11777"
             style="fill:#000000;stroke-width:0"
             fill="black"
             stroke-width="0"
             d="M241.12,479.72 L241.12,479.79 L241.12,479.87 L241.11,479.95 L241.11,480.03 L241.1,480.2 L241.09,480.37 L241.08,480.55 L241.05,480.74 L241.03,480.94 L240.99,481.14 L240.95,481.34 L240.91,481.55 L240.86,481.76 L240.79,481.97 L240.72,482.18 L240.65,482.39 L240.6,482.5 L240.56,482.61 L240.51,482.71 L240.46,482.82 C239.86,484.04,239.01,484.68,238.91,484.68 C238.85,484.68,238.81,484.65,238.81,484.59 C238.81,484.56,238.81,484.54,239,484.36 C239.97,483.37,240.54,481.8,240.54,479.72 C240.54,478.02,240.17,476.27,238.94,475.02 C238.81,474.9,238.81,474.88,238.81,474.85 C238.81,474.79,238.85,474.75,238.91,474.75 C239.01,474.75,239.9,475.43,240.49,476.69 C241,477.78,241.12,478.88,241.12,479.72 Z " /><path
             id="path11779"
             style="fill:#000000;stroke-width:0"
             fill="black"
             stroke-width="0"
             d="M251.72,480.48 L251.75,480.48 L251.78,480.48 L251.81,480.48 L251.82,480.49 L251.84,480.49 L251.85,480.49 L251.87,480.49 L251.88,480.49 L251.89,480.49 L251.91,480.5 L251.92,480.5 L251.93,480.5 L251.95,480.51 L251.96,480.51 L251.97,480.52 L251.98,480.52 L251.99,480.53 L252,480.54 L252.01,480.55 L252.02,480.56 L252.03,480.57 L252.03,480.57 L252.03,480.58 L252.04,480.58 L252.04,480.59 L252.04,480.6 L252.05,480.6 L252.05,480.61 L252.05,480.62 L252.05,480.62 L252.05,480.63 L252.06,480.64 L252.06,480.65 L252.06,480.66 L252.06,480.66 L252.06,480.67 L252.06,480.68 C252.06,480.88,251.87,480.88,251.73,480.88 H245.77 C245.63,480.88,245.44,480.88,245.44,480.68 C245.44,480.48,245.63,480.48,245.78,480.48 Z " /><path
             id="path11781"
             style="fill:#000000;stroke-width:0"
             fill="black"
             stroke-width="0"
             d="M251.73,478.56 L251.74,478.56 L251.76,478.56 L251.79,478.56 L251.81,478.56 L251.83,478.56 L251.84,478.56 L251.85,478.56 L251.87,478.56 L251.88,478.56 L251.9,478.57 L251.91,478.57 L251.92,478.57 L251.93,478.58 L251.95,478.58 L251.96,478.59 L251.97,478.59 L251.98,478.6 L251.99,478.6 L252,478.61 L252.01,478.62 L252.02,478.63 L252.02,478.63 L252.03,478.64 L252.03,478.65 L252.03,478.65 L252.04,478.66 L252.04,478.66 L252.04,478.67 L252.05,478.68 L252.05,478.68 L252.05,478.69 L252.05,478.7 L252.05,478.7 L252.06,478.71 L252.06,478.72 L252.06,478.73 L252.06,478.74 L252.06,478.75 L252.06,478.76 C252.06,478.95,251.87,478.95,251.72,478.95 H245.78 C245.63,478.95,245.44,478.95,245.44,478.76 C245.44,478.56,245.63,478.56,245.77,478.56 Z " /><path
             id="path11783"
             style="fill:#000000;stroke-width:0"
             fill="black"
             stroke-width="0"
             d="M259.29,480.95 L259.26,480.95 L259.24,480.95 L259.21,480.94 L259.19,480.94 L259.17,480.93 L259.14,480.92 L259.12,480.92 L259.1,480.91 L259.08,480.9 L259.06,480.89 L259.04,480.87 L259.02,480.86 L259,480.85 L258.98,480.83 L258.96,480.82 L258.95,480.8 L258.93,480.79 L258.92,480.77 L258.9,480.76 L258.89,480.74 L258.88,480.72 L258.87,480.7 L258.86,480.68 L258.85,480.66 L258.84,480.64 L258.83,480.62 L258.83,480.6 L258.82,480.58 L258.82,480.56 L258.82,480.54 L258.81,480.52 L258.81,480.5 C258.81,480.36,258.9,480.21,259.12,480.21 C259.34,480.21,259.58,480.38,259.58,480.77 C259.58,481.22,259.15,481.63,258.39,481.63 C257.08,481.63,256.71,480.61,256.71,480.17 C256.71,479.4,257.45,479.25,257.74,479.19 C258.26,479.09,258.77,478.98,258.77,478.44 C258.77,478.18,258.54,477.34,257.35,477.34 C257.21,477.34,256.45,477.34,256.22,477.87 C256.59,477.82,256.84,478.12,256.84,478.4 C256.84,478.63,256.68,478.74,256.47,478.74 C256.22,478.74,255.92,478.54,255.92,478.09 C255.92,477.52,256.48,477.13,257.34,477.13 C258.95,477.13,259.34,478.33,259.34,478.77 C259.34,479.13,259.15,479.38,259.03,479.5 C258.76,479.78,258.47,479.83,258.04,479.92 C257.68,480,257.28,480.07,257.28,480.51 C257.28,480.8,257.52,481.41,258.39,481.41 C258.64,481.41,259.14,481.34,259.29,480.95 Z " /><path
             id="path11785"
             style="fill:#000000;stroke-width:0"
             fill="black"
             stroke-width="0"
             d="M262.9,483.44 L262.9,483.46 L262.89,483.48 L262.89,483.5 L262.89,483.52 L262.89,483.53 L262.88,483.55 L262.88,483.57 L262.87,483.58 L262.86,483.6 L262.86,483.61 L262.85,483.63 L262.84,483.64 L262.83,483.66 L262.82,483.67 L262.81,483.68 L262.8,483.7 L262.79,483.71 L262.77,483.72 L262.76,483.73 L262.75,483.74 L262.73,483.75 L262.71,483.76 L262.7,483.77 L262.68,483.77 L262.66,483.78 L262.65,483.79 L262.63,483.79 L262.61,483.79 L262.59,483.8 L262.57,483.8 L262.55,483.8 L262.53,483.8 C262.26,483.8,261.99,483.54,261.99,483.27 C261.99,483.09,262.13,482.92,262.37,482.92 C262.6,482.92,262.9,483.15,262.9,483.44 Z " /><path
             id="path11787"
             style="fill:#000000;stroke-width:0"
             fill="black"
             stroke-width="0"
             d="M262.14,479.71 L262.15,479.73 L262.16,479.76 L262.17,479.78 L262.18,479.8 L262.19,479.83 L262.2,479.85 L262.2,479.86 L262.21,479.88 L262.22,479.9 L262.22,479.92 L262.23,479.93 L262.24,479.95 L262.24,479.96 L262.25,479.98 L262.26,480 L262.27,480.03 L262.28,480.06 L262.28,480.08 L262.29,480.09 L262.29,480.11 L262.3,480.12 L262.31,480.14 L262.31,480.16 L262.32,480.18 L262.33,480.19 L262.33,480.22 L262.34,480.24 L262.35,480.26 L262.36,480.29 C262.44,480.48,262.49,480.62,262.49,480.81 C262.49,481.26,262.17,481.63,261.67,481.63 C260.74,481.63,260.36,480.18,260.36,480.1 C260.36,480,260.46,480,260.48,480 C260.58,480,260.59,480.02,260.64,480.17 C260.91,481.11,261.3,481.41,261.64,481.41 C261.72,481.41,261.89,481.41,261.89,481.09 C261.89,480.88,261.82,480.67,261.78,480.57 C261.7,480.31,261.25,479.16,261.1,478.73 C261,478.48,260.87,478.15,260.87,477.94 C260.87,477.47,261.2,477.13,261.68,477.13 C262.62,477.13,262.99,478.57,262.99,478.66 C262.99,478.76,262.9,478.76,262.87,478.76 C262.77,478.76,262.77,478.73,262.72,478.58 C262.54,477.95,262.21,477.34,261.7,477.34 C261.53,477.34,261.46,477.44,261.46,477.67 C261.46,477.92,261.52,478.06,261.75,478.67 Z " /><path
             id="path11789"
             style="fill:#000000;stroke-width:0"
             fill="black"
             stroke-width="0"
             d="M264.38,477.82 L264.38,477.81 L264.37,477.79 L264.37,477.78 L264.37,477.76 L264.36,477.73 L264.35,477.7 L264.34,477.67 L264.34,477.63 L264.33,477.6 L264.32,477.57 L264.32,477.56 L264.32,477.54 L264.31,477.53 L264.31,477.51 L264.31,477.5 L264.3,477.49 L264.3,477.47 L264.3,477.46 L264.3,477.45 L264.29,477.44 L264.29,477.43 L264.29,477.42 L264.29,477.41 L264.29,477.41 L264.29,477.4 L264.29,477.39 C264.29,477.21,264.43,477.13,264.58,477.13 C264.7,477.13,264.88,477.2,264.95,477.4 C264.95,477.42,265.07,477.89,265.13,478.14 L265.35,479.03 C265.41,479.25,265.47,479.47,265.52,479.7 C265.56,479.87,265.64,480.16,265.65,480.2 C265.8,480.5,266.33,481.41,267.27,481.41 C267.72,481.41,267.81,481.04,267.81,480.71 C267.81,480.1,267.32,478.82,267.16,478.4 C267.07,478.17,267.06,478.05,267.06,477.94 C267.06,477.47,267.41,477.13,267.88,477.13 C268.82,477.13,269.18,478.58,269.18,478.66 C269.18,478.76,269.09,478.76,269.06,478.76 C268.96,478.76,268.96,478.73,268.92,478.58 C268.72,477.9,268.39,477.34,267.9,477.34 C267.73,477.34,267.66,477.44,267.66,477.67 C267.66,477.92,267.75,478.16,267.84,478.38 C268.03,478.9,268.45,480,268.45,480.56 C268.45,481.23,268.02,481.63,267.3,481.63 C266.41,481.63,265.92,480.99,265.75,480.76 C265.7,481.32,265.29,481.63,264.84,481.63 C264.38,481.63,264.19,481.24,264.09,481.06 C263.93,480.72,263.79,480.14,263.79,480.1 C263.79,480,263.89,480,263.91,480 C264.01,480,264.02,480.01,264.08,480.23 C264.25,480.93,264.45,481.41,264.81,481.41 C265.01,481.41,265.11,481.28,265.11,480.95 C265.11,480.74,265.08,480.63,264.95,480.12 Z " /><path
             id="path11791"
             style="fill:#000000;stroke-width:0"
             fill="black"
             stroke-width="0"
             d="M272.77,474.85 L272.77,474.86 L272.77,474.86 L272.77,474.86 L272.77,474.87 L272.77,474.87 L272.77,474.87 L272.77,474.88 L272.77,474.88 L272.77,474.88 L272.77,474.89 L272.76,474.89 L272.76,474.9 L272.76,474.9 L272.75,474.91 L272.75,474.91 L272.74,474.92 L272.74,474.93 L272.73,474.93 L272.73,474.94 L272.73,474.94 L272.72,474.95 L272.72,474.95 L272.72,474.95 L272.71,474.96 L272.71,474.96 L272.7,474.97 L272.7,474.97 L272.69,474.98 L272.69,474.98 L272.68,474.99 L272.68,474.99 L272.67,475 L272.67,475.01 L272.66,475.01 L272.66,475.02 L272.65,475.03 L272.64,475.03 L272.64,475.04 L272.63,475.05 L272.62,475.05 L272.61,475.06 L272.61,475.07 C271.36,476.32,271.04,478.2,271.04,479.72 C271.04,481.45,271.42,483.17,272.65,484.42 C272.77,484.54,272.77,484.56,272.77,484.59 C272.77,484.66,272.73,484.68,272.68,484.68 C272.58,484.68,271.68,484.01,271.09,482.75 C270.59,481.66,270.47,480.55,270.47,479.72 C270.47,478.94,270.58,477.74,271.12,476.62 C271.72,475.4,272.58,474.75,272.68,474.75 C272.73,474.75,272.77,474.78,272.77,474.85 Z " /><path
             id="path11793"
             style="fill:#000000;stroke-width:0"
             fill="black"
             stroke-width="0"
             d="M276.68,480.23 L276.69,480.26 L276.69,480.29 L276.7,480.32 L276.71,480.36 L276.72,480.4 L276.73,480.44 L276.75,480.48 L276.76,480.53 L276.78,480.57 L276.79,480.62 L276.81,480.67 L276.83,480.72 L276.86,480.77 L276.88,480.82 L276.91,480.87 L276.93,480.92 L276.96,480.97 L276.99,481.01 L277.03,481.06 L277.06,481.1 L277.1,481.15 L277.14,481.19 L277.18,481.23 L277.23,481.26 L277.27,481.29 L277.32,481.32 L277.35,481.33 L277.37,481.35 L277.4,481.36 L277.43,481.37 L277.45,481.38 L277.48,481.38 L277.51,481.39 L277.54,481.4 L277.57,481.4 L277.6,481.4 L277.63,481.41 L277.67,481.41 C277.71,481.41,277.95,481.41,278.16,481.28 C277.88,481.23,277.68,480.98,277.68,480.74 C277.68,480.58,277.79,480.39,278.06,480.39 C278.28,480.39,278.6,480.57,278.6,480.97 C278.6,481.49,278.01,481.63,277.67,481.63 C277.1,481.63,276.75,481.1,276.63,480.87 C276.38,481.53,275.84,481.63,275.56,481.63 C274.52,481.63,273.95,480.34,273.95,480.1 C273.95,480,274.05,480,274.07,480 C274.15,480,274.18,480.02,274.2,480.11 C274.54,481.16,275.2,481.41,275.54,481.41 C275.73,481.41,276.07,481.32,276.07,480.74 C276.07,480.43,275.9,479.77,275.54,478.38 C275.38,477.76,275.03,477.34,274.59,477.34 C274.53,477.34,274.3,477.34,274.09,477.47 C274.34,477.52,274.56,477.73,274.56,478.01 C274.56,478.28,274.34,478.36,274.19,478.36 C273.89,478.36,273.65,478.1,273.65,477.78 C273.65,477.32,274.14,477.13,274.58,477.13 C275.24,477.13,275.6,477.82,275.62,477.88 C275.74,477.51,276.1,477.13,276.7,477.13 C277.73,477.13,278.29,478.41,278.29,478.66 C278.29,478.76,278.2,478.76,278.17,478.76 C278.08,478.76,278.06,478.71,278.04,478.65 C277.71,477.58,277.04,477.34,276.72,477.34 C276.33,477.34,276.17,477.66,276.17,478 C276.17,478.22,276.23,478.44,276.34,478.87 Z " /><path
             id="path11795"
             style="fill:#000000;stroke-width:0"
             fill="black"
             stroke-width="0"
             d="M281.93,479.72 L281.93,479.79 L281.92,479.87 L281.92,479.95 L281.92,480.03 L281.91,480.2 L281.9,480.37 L281.88,480.55 L281.86,480.74 L281.84,480.94 L281.8,481.14 L281.76,481.34 L281.72,481.55 L281.66,481.76 L281.6,481.97 L281.53,482.18 L281.46,482.39 L281.41,482.5 L281.37,482.61 L281.32,482.71 L281.27,482.82 C280.67,484.04,279.82,484.68,279.72,484.68 C279.66,484.68,279.62,484.65,279.62,484.59 C279.62,484.56,279.62,484.54,279.81,484.36 C280.78,483.37,281.35,481.8,281.35,479.72 C281.35,478.02,280.98,476.27,279.75,475.02 C279.62,474.9,279.62,474.88,279.62,474.85 C279.62,474.79,279.66,474.75,279.72,474.75 C279.82,474.75,280.71,475.43,281.3,476.69 C281.81,477.78,281.93,478.88,281.93,479.72 Z " /></g>      </g>
    </g>
    <path
       id="path11797"
       inkscape:label="none"
       style="stroke-linejoin:round;stroke:#0000FF;stroke-linecap:round;stroke-dasharray:none;stroke-width:0.666666666667;fill:none"
       d="M  340.0 450.0 341.2 457.495252583 342.4 464.724982107 343.6 471.433071799 344.8 477.381884237 346.0 482.360679775 347.2 486.193082099 348.4 488.743326445 349.6 489.921069137 350.8 489.684588053 352.0 488.042260652 353.2 485.052267202 354.4 480.820529711 355.6 475.49695959 356.8 469.270146964 358.0 462.360679775 359.2 455.013329343 360.4 447.488379219 361.6 440.052404513 362.8 432.968828337 364.0 426.488589908 365.2 420.841254903 366.4 416.22688298 367.6 412.808940564 368.8 410.708509971 370.0 410.0 371.2 410.708509971 372.4 412.808940564 373.6 416.22688298 374.8 420.841254903 376.0 426.488589908 377.2 432.968828337 378.4 440.052404513 379.6 447.488379219 380.8 455.013329343 382.0 462.360679775 383.2 469.270146964 384.4 475.49695959 385.6 480.820529711 386.8 485.052267202 388.0 488.042260652 389.2 489.684588053 390.4 489.921069137 391.6 488.743326445 392.8 486.193082099 394.0 482.360679775 395.2 477.381884237 396.4 471.433071799 397.6 464.724982107 398.8 457.495252583 400.0 450.0 401.2 442.504747417 402.4 435.275017893 403.6 428.566928201 404.8 422.618115763 406.0 417.639320225 407.2 413.806917901 408.4 411.256673555 409.6 410.078930863 410.8 410.315411947 412.0 411.957739348 413.2 414.947732798 414.4 419.179470289 415.6 424.50304041 416.8 430.729853036 418.0 437.639320225 419.2 444.986670657 420.4 452.511620781 421.6 459.947595487 422.8 467.031171663 424.0 473.511410092 425.2 479.158745097 426.4 483.77311702 427.6 487.191059436 428.8 489.291490029 430.0 490.0 431.2 489.291490029 432.4 487.191059436 433.6 483.77311702 434.8 479.158745097 436.0 473.511410092 437.2 467.031171663 438.4 459.947595487 439.6 452.511620781 440.8 444.986670657 442.0 437.639320225 443.2 430.729853036 444.4 424.50304041 445.6 419.179470289 446.8 414.947732798 448.0 411.957739348 449.2 410.315411947 450.4 410.078930863 451.6 411.256673555 452.8 413.806917901 454.0 417.639320225 455.2 422.618115763 456.4 428.566928201 457.6 435.275017893 458.8 442.504747417 460.0 450.0" />
  </g>
  <text
     xml:space="preserve"
     style="font-style:normal;font-variant:normal;font-weight:normal;font-stretch:normal;font-size:10px;line-height:100%;font-family:Verdana;-inkscape-font-specification:Verdana;text-align:end;letter-spacing:0px;word-spacing:0px;writing-mode:lr-tb;text-anchor:end;fill:#000000;fill-opacity:1;stroke:none;stroke-width:1px;stroke-linecap:butt;stroke-linejoin:miter;stroke-opacity:1"
     x="585"
     y="427.36218"
     id="text11955"
     sodipodi:linespacing="100%"
     inkscape:export-xdpi="421.4947814941"
     inkscape:export-ydpi="421.4947814941"><tspan
       sodipodi:role="line"
       id="tspan11957"
       x="585"
       y="427.36218">xMin=-3</tspan><tspan
       sodipodi:role="line"
       x="585"
       y="437.36218"
       id="tspan11959">xMax=3</tspan><tspan
       sodipodi:role="line"
       x="585"
       y="447.36218"
       id="tspan11961">yMin=-1</tspan><tspan
       sodipodi:role="line"
       x="585"
       y="457.36218"
       id="tspan11963">yMax=1</tspan><tspan
       sodipodi:role="line"
       x="585"
       y="467.36218"
       id="tspan11965">multiply X by pi=True</tspan></text>
</svg>
