<?xml version="1.0" encoding="UTF-8" standalone="no"?>
<!-- Created with Inkscape (http://www.inkscape.org/) -->

<svg
   xmlns:ns0="http://www.iki.fi/pav/software/textext/"
   xmlns:dc="http://purl.org/dc/elements/1.1/"
   xmlns:cc="http://creativecommons.org/ns#"
   xmlns:rdf="http://www.w3.org/1999/02/22-rdf-syntax-ns#"
   xmlns:svg="http://www.w3.org/2000/svg"
   xmlns="http://www.w3.org/2000/svg"
   xmlns:sodipodi="http://sodipodi.sourceforge.net/DTD/sodipodi-0.dtd"
   xmlns:inkscape="http://www.inkscape.org/namespaces/inkscape"
   inkscape:export-ydpi="319.1808776855"
   inkscape:export-xdpi="319.1808776855"
   sodipodi:docname="TickSuffix.svg"
   inkscape:version="0.91 r"
   version="1.1"
   id="svg2"
   viewBox="0 0 744.09448819 1052.3622047"
   height="297mm"
   width="210mm">
  <sodipodi:namedview
     inkscape:window-maximized="1"
     inkscape:window-y="-6"
     inkscape:window-x="-4"
     inkscape:window-height="1062"
     inkscape:window-width="1920"
     inkscape:snap-text-baseline="true"
     inkscape:object-nodes="true"
     showgrid="false"
     inkscape:current-layer="svg2"
     inkscape:document-units="px"
     inkscape:cy="870.9857107029"
     inkscape:cx="248.3609957196"
     inkscape:zoom="2.050537861085"
     inkscape:pageshadow="2"
     inkscape:pageopacity="0.0"
     borderopacity="1.0"
     bordercolor="#666666"
     pagecolor="#ffffff"
     id="base">
    <inkscape:grid
       type="xygrid"
       id="grid4936" />
  </sodipodi:namedview>
  <defs
     id="defs4">
    <marker
       inkscape:isstock="true"
       style="overflow:visible"
       id="DotSN-3x"
       refX="0"
       refY="0"
       orient="auto"
       inkscape:stockid="DotSN-3x">
      <path
         inkscape:connector-curvature="0"
         transform="matrix(0.2,0,0,0.2,1.48,0.2)"
         style="stroke-width:1pt;stroke:#ff8080;fill-rule:evenodd;fill:#ff8080"
         d="m -2.5,-1 c 0,2.76 -2.24,5 -5,5 -2.76,0 -5,-2.24 -5,-5 0,-2.76 2.24,-5 5,-5 2.76,0 5,2.24 5,5 z"
         id="path6936" />
    </marker>
    <marker
       style="overflow:visible"
       id="Arrow1SenduH-7Z"
       refX="0"
       refY="0"
       orient="auto"
       inkscape:stockid="Arrow1SenduH-7Z">
      <path
         inkscape:connector-curvature="0"
         transform="matrix(-0.2,0,0,-0.2,-1.2,0)"
         style="stroke-width:1pt;stroke:#ff8080;fill-rule:evenodd;fill:#ff8080"
         d="M 0,0 5,-5 -12.5,0 5,5 0,0 Z"
         id="path6939" />
    </marker>
    <marker
       inkscape:isstock="true"
       style="overflow:visible"
       id="DotSN-3x-7"
       refX="0"
       refY="0"
       orient="auto"
       inkscape:stockid="DotSN-3x">
      <path
         inkscape:connector-curvature="0"
         transform="matrix(0.2,0,0,0.2,1.48,0.2)"
         style="fill:#ff8080;fill-rule:evenodd;stroke:#ff8080;stroke-width:1pt"
         d="m -2.5,-1 c 0,2.76 -2.24,5 -5,5 -2.76,0 -5,-2.24 -5,-5 0,-2.76 2.24,-5 5,-5 2.76,0 5,2.24 5,5 z"
         id="path6936-4" />
    </marker>
    <marker
       style="overflow:visible"
       id="Arrow1SenduH-7Z-4"
       refX="0"
       refY="0"
       orient="auto"
       inkscape:stockid="Arrow1SenduH-7Z">
      <path
         inkscape:connector-curvature="0"
         transform="matrix(-0.2,0,0,-0.2,-1.2,0)"
         style="fill:#ff8080;fill-rule:evenodd;stroke:#ff8080;stroke-width:1pt"
         d="M 0,0 5,-5 -12.5,0 5,5 0,0 Z"
         id="path6939-3" />
    </marker>
    <marker
       id="DimmArrow_Start"
       orient="auto"
       refX="0.0"
       refY="0.0"
       style="overflow:visible"
       inkscape:stockid="DimmArrow_Start">
      <path
         d="M 0.0,0.0 L -10.000000,1.763270 L -10.000000,-1.763270 L 0.0,0.0 z "
         style="stroke-width:1.0;stroke:none;fill:#FF0000;fill-rule:evenodd"
         transform="scale (1.0)rotate(180)translate (10.0,0)"
         id="path11713" />
    </marker>
    <marker
       id="DimmArrow_End"
       orient="auto"
       refX="0.0"
       refY="0.0"
       style="overflow:visible"
       inkscape:stockid="DimmArrow_End">
      <path
         d="M 0.0,0.0 L -10.000000,1.763270 L -10.000000,-1.763270 L 0.0,0.0 z "
         style="stroke-width:1.0;stroke:none;fill:#FF0000;fill-rule:evenodd"
         transform="scale (1.0)translate (10.0,0)"
         id="path11716" />
    </marker>
    <marker
       id="DimmArrow_Start-3"
       orient="auto"
       refX="0"
       refY="0"
       style="overflow:visible"
       inkscape:stockid="DimmArrow_Start">
      <path
         inkscape:connector-curvature="0"
         d="M 0,0 -10,1.76327 -10,-1.76327 0,0 Z"
         style="fill:#ff0000;fill-rule:evenodd;stroke:none;stroke-width:1"
         transform="matrix(-1,0,0,-1,-10,0)"
         id="path11713-6" />
    </marker>
    <marker
       id="DimmArrow_End-7"
       orient="auto"
       refX="0"
       refY="0"
       style="overflow:visible"
       inkscape:stockid="DimmArrow_End">
      <path
         inkscape:connector-curvature="0"
         d="M 0,0 -10,1.76327 -10,-1.76327 0,0 Z"
         style="fill:#ff0000;fill-rule:evenodd;stroke:none;stroke-width:1"
         transform="translate(10,0)"
         id="path11716-5" />
    </marker>
    <marker
       id="DimmArrow_Start-9"
       orient="auto"
       refX="0"
       refY="0"
       style="overflow:visible"
       inkscape:stockid="DimmArrow_Start">
      <path
         inkscape:connector-curvature="0"
         d="M 0,0 -10,1.76327 -10,-1.76327 0,0 Z"
         style="fill:#ff0000;fill-rule:evenodd;stroke:none;stroke-width:1"
         transform="matrix(-1,0,0,-1,-10,0)"
         id="path11713-4" />
    </marker>
    <marker
       id="DimmArrow_End-78"
       orient="auto"
       refX="0"
       refY="0"
       style="overflow:visible"
       inkscape:stockid="DimmArrow_End">
      <path
         inkscape:connector-curvature="0"
         d="M 0,0 -10,1.76327 -10,-1.76327 0,0 Z"
         style="fill:#ff0000;fill-rule:evenodd;stroke:none;stroke-width:1"
         transform="translate(10,0)"
         id="path11716-4" />
    </marker>
    <marker
       inkscape:stockid="ArrowAxisStart"
       style="overflow:visible"
       refY="0.0"
       refX="0.0"
       orient="auto"
       id="ArrowAxisStart">
      <path
         id="path15743"
         transform="scale(0.4) rotate(0) translate(8.818,0)"
         style="stroke-width:1.0;stroke:#000000;fill:#000000;fill-rule:evenodd"
         d="M 0.0,0.0 L 5.0,-5.0 L -12.5,0.0 L 5.0,5.0 L 0.0,0.0 z " />
    </marker>
    <marker
       inkscape:stockid="ArrowAxisEnd"
       style="overflow:visible"
       refY="0.0"
       refX="0.0"
       orient="auto"
       id="ArrowAxisEnd">
      <path
         id="path15746"
         transform="scale(0.4) rotate(180) translate(8.818,0)"
         style="stroke-width:1.0;stroke:#000000;fill:#000000;fill-rule:evenodd"
         d="M 0.0,0.0 L 5.0,-5.0 L -12.5,0.0 L 5.0,5.0 L 0.0,0.0 z " />
    </marker>
  </defs>
  <metadata
     id="metadata7">
    <rdf:RDF>
      <cc:Work
         rdf:about="">
        <dc:format>image/svg+xml</dc:format>
        <dc:type
           rdf:resource="http://purl.org/dc/dcmitype/StillImage" />
        <dc:title />
      </cc:Work>
    </rdf:RDF>
  </metadata>
  <g
     inkscape:label="Layer 1"
     inkscape:groupmode="layer"
     id="layer1" />
  <g
     id="g15750"
     transform="translate(250.000000 190.000000)"
     inkscape:label="Plot">
    <g
       id="g15752"
       inkscape:label="Ticks">
      <g
         transform="translate(2.500000 5.000000) translate(-264.875750 572.603573) scale(1.183432 -1.183432)  "
         ns0:preamble="/home/fernando/.config/inkscape/extensions/textextLib/basicLatexPackages.tex"
         ns0:text=" $0$"
         text-anchor="start"
         word-spacing="normal"
         letter-spacing="normal"
         font-size-adjust="none"
         font-stretch="normal"
         font-weight="normal"
         font-variant="normal"
         font-style="normal"
         fill-opacity="1"
         fill-rule="evenodd"
         fill="none"
         stroke-opacity="1"
         stroke-dashoffset="0"
         stroke-dasharray="none"
         stroke-miterlimit="10.433"
         stroke-linejoin="miter"
         stroke-linecap="butt"
         stroke="black"
         xml:space="preserve"
         id="content"><path
           id="path15755"
           style="fill:#000000;stroke-width:0"
           fill="black"
           stroke-width="0"
           d="M228.01,480.41 L228.01,480.56 L228.01,480.71 L228,480.86 L228,481.01 L227.99,481.16 L227.97,481.3 L227.96,481.45 L227.94,481.6 L227.92,481.74 L227.89,481.89 L227.86,482.03 L227.82,482.18 L227.78,482.32 L227.73,482.46 L227.67,482.6 L227.64,482.67 L227.61,482.74 C227.15,483.69,226.34,483.85,225.92,483.85 C225.32,483.85,224.6,483.59,224.19,482.67 C223.87,481.98,223.82,481.21,223.82,480.41 C223.82,479.67,223.86,478.77,224.27,478.02 C224.7,477.21,225.42,477.02,225.91,477.02 V477.23 C225.52,477.23,224.93,477.48,224.76,478.44 C224.65,479.03,224.65,479.95,224.65,480.53 C224.65,481.17,224.65,481.82,224.73,482.36 C224.91,483.54,225.66,483.63,225.91,483.63 C226.24,483.63,226.89,483.45,227.08,482.47 C227.18,481.91,227.18,481.16,227.18,480.53 C227.18,479.79,227.18,479.11,227.07,478.48 C226.92,477.53,226.36,477.23,225.91,477.23 H225.91 V477.02 C226.45,477.02,227.2,477.23,227.64,478.17 C227.96,478.85,228.01,479.63,228.01,480.41 Z " /></g>      <path
         id="path15757"
         inkscape:label="none"
         style="stroke-linejoin:round;stroke:#4C4C4C;stroke-linecap:round;stroke-dasharray:none;stroke-width:1.14285714286;fill:none"
         d="m 40.0 -2.5 0 5.0" />
      <g
         transform="translate(37.500000 5.000000) translate(-286.153858 572.603573) scale(1.183432 -1.183432)  "
         ns0:preamble="/home/fernando/.config/inkscape/extensions/textextLib/basicLatexPackages.tex"
         ns0:text=" $0.5\\pi$"
         text-anchor="start"
         word-spacing="normal"
         letter-spacing="normal"
         font-size-adjust="none"
         font-stretch="normal"
         font-weight="normal"
         font-variant="normal"
         font-style="normal"
         fill-opacity="1"
         fill-rule="evenodd"
         fill="none"
         stroke-opacity="1"
         stroke-dashoffset="0"
         stroke-dasharray="none"
         stroke-miterlimit="10.433"
         stroke-linejoin="miter"
         stroke-linecap="butt"
         stroke="black"
         xml:space="preserve"
         id="g15759"><path
           id="path15761"
           style="fill:#000000;stroke-width:0"
           fill="black"
           stroke-width="0"
           d="M228.01,480.41 L228.01,480.56 L228.01,480.71 L228,480.86 L228,481.01 L227.99,481.16 L227.97,481.3 L227.96,481.45 L227.94,481.6 L227.92,481.74 L227.89,481.89 L227.86,482.03 L227.82,482.18 L227.78,482.32 L227.73,482.46 L227.67,482.6 L227.64,482.67 L227.61,482.74 C227.15,483.69,226.34,483.85,225.92,483.85 C225.32,483.85,224.6,483.59,224.19,482.67 C223.87,481.98,223.82,481.21,223.82,480.41 C223.82,479.67,223.86,478.77,224.27,478.02 C224.7,477.21,225.42,477.02,225.91,477.02 V477.23 C225.52,477.23,224.93,477.48,224.76,478.44 C224.65,479.03,224.65,479.95,224.65,480.53 C224.65,481.17,224.65,481.82,224.73,482.36 C224.91,483.54,225.66,483.63,225.91,483.63 C226.24,483.63,226.89,483.45,227.08,482.47 C227.18,481.91,227.18,481.16,227.18,480.53 C227.18,479.79,227.18,479.11,227.07,478.48 C226.92,477.53,226.36,477.23,225.91,477.23 H225.91 V477.02 C226.45,477.02,227.2,477.23,227.64,478.17 C227.96,478.85,228.01,479.63,228.01,480.41 Z " /><path
           id="path15763"
           style="fill:#000000;stroke-width:0"
           fill="black"
           stroke-width="0"
           d="M230.32,477.76 L230.32,477.79 L230.32,477.82 L230.32,477.84 L230.31,477.87 L230.31,477.89 L230.3,477.92 L230.29,477.94 L230.28,477.97 L230.27,477.99 L230.26,478.01 L230.25,478.03 L230.23,478.05 L230.22,478.08 L230.2,478.1 L230.19,478.11 L230.17,478.13 L230.15,478.15 L230.13,478.17 L230.11,478.18 L230.09,478.2 L230.07,478.21 L230.05,478.22 L230.02,478.24 L230,478.25 L229.98,478.26 L229.95,478.26 L229.93,478.27 L229.9,478.28 L229.88,478.28 L229.85,478.29 L229.82,478.29 L229.8,478.29 C229.51,478.29,229.27,478.05,229.27,477.76 C229.27,477.47,229.51,477.23,229.8,477.23 C230.08,477.23,230.32,477.47,230.32,477.76 Z " /><path
           id="path15765"
           style="fill:#000000;stroke-width:0"
           fill="black"
           stroke-width="0"
           d="M235.65,479.23 L235.65,479.34 L235.64,479.45 L235.63,479.56 L235.61,479.66 L235.59,479.77 L235.57,479.87 L235.54,479.97 L235.5,480.07 L235.47,480.17 L235.43,480.26 L235.38,480.35 L235.33,480.44 L235.28,480.53 L235.23,480.61 L235.17,480.69 L235.11,480.76 L235.04,480.84 L234.97,480.9 L234.9,480.97 L234.83,481.03 L234.75,481.09 L234.67,481.14 L234.59,481.19 L234.51,481.23 L234.42,481.27 L234.33,481.31 L234.24,481.34 L234.15,481.36 L234.05,481.38 L233.96,481.4 L233.86,481.4 L233.76,481.41 C233.28,481.41,232.85,481.25,232.49,480.9 V482.84 C232.69,482.78,233.02,482.71,233.34,482.71 C234.56,482.71,235.26,483.61,235.26,483.74 C235.26,483.8,235.23,483.85,235.16,483.85 C235.15,483.85,235.13,483.85,235.08,483.82 C234.88,483.73,234.4,483.53,233.73,483.53 C233.33,483.53,232.87,483.6,232.4,483.81 C232.32,483.84,232.3,483.84,232.29,483.84 C232.19,483.84,232.19,483.76,232.19,483.6 V480.66 C232.19,480.48,232.19,480.4,232.32,480.4 C232.4,480.4,232.41,480.43,232.46,480.49 C232.56,480.65,232.93,481.19,233.74,481.19 C234.26,481.19,234.5,480.73,234.58,480.55 C234.74,480.18,234.76,479.8,234.76,479.3 C234.76,478.95,234.76,478.36,234.52,477.94 C234.29,477.55,233.92,477.3,233.46,477.3 C232.73,477.3,232.17,477.82,232,478.41 C232.03,478.4,232.06,478.39,232.17,478.39 C232.49,478.39,232.66,478.64,232.66,478.87 C232.66,479.11,232.49,479.36,232.17,479.36 C232.03,479.36,231.68,479.29,231.68,478.83 C231.68,477.98,232.37,477.02,233.48,477.02 C234.63,477.02,235.65,477.97,235.65,479.23 Z " /><path
           id="path15767"
           style="fill:#000000;stroke-width:0"
           fill="black"
           stroke-width="0"
           d="M238.8,480.94 H239.92 C239.59,479.47,239.51,479.04,239.51,478.38 C239.51,478.23,239.51,477.96,239.59,477.62 C239.68,477.18,239.79,477.13,239.94,477.13 C240.14,477.13,240.35,477.3,240.35,477.5 C240.35,477.56,240.35,477.58,240.29,477.72 C240,478.44,240,479.08,240,479.36 C240,479.89,240.07,480.42,240.18,480.94 H241.32 C241.45,480.94,241.8,480.94,241.8,481.28 C241.8,481.52,241.59,481.52,241.4,481.52 H238.07 C237.85,481.52,237.48,481.52,237.04,481.05 C236.69,480.66,236.43,480.2,236.43,480.16 C236.43,480.15,236.43,480.06,236.55,480.06 C236.63,480.06,236.65,480.1,236.71,480.17 C237.2,480.94,237.77,480.94,237.97,480.94 H238.54 C238.22,479.74,237.68,478.54,237.27,477.63 C237.19,477.48,237.19,477.46,237.19,477.39 C237.19,477.2,237.35,477.13,237.48,477.13 C237.77,477.13,237.85,477.4,237.97,477.77 C238.11,478.23,238.11,478.25,238.24,478.74 Z " /></g>      <path
         id="path15769"
         inkscape:label="none"
         style="stroke-linejoin:round;stroke:#4C4C4C;stroke-linecap:round;stroke-dasharray:none;stroke-width:1.14285714286;fill:none"
         d="m 80.0 -2.5 0 5.0" />
      <g
         transform="translate(77.500000 5.000000) translate(-271.088768 569.846177) scale(1.183432 -1.183432)  "
         ns0:preamble="/home/fernando/.config/inkscape/extensions/textextLib/basicLatexPackages.tex"
         ns0:text=" $\\pi$"
         text-anchor="start"
         word-spacing="normal"
         letter-spacing="normal"
         font-size-adjust="none"
         font-stretch="normal"
         font-weight="normal"
         font-variant="normal"
         font-style="normal"
         fill-opacity="1"
         fill-rule="evenodd"
         fill="none"
         stroke-opacity="1"
         stroke-dashoffset="0"
         stroke-dasharray="none"
         stroke-miterlimit="10.433"
         stroke-linejoin="miter"
         stroke-linecap="butt"
         stroke="black"
         xml:space="preserve"
         id="g15771"><path
           id="path15773"
           style="fill:#000000;stroke-width:0"
           fill="black"
           stroke-width="0"
           d="M226.07,480.94 H227.19 C226.86,479.47,226.77,479.04,226.77,478.38 C226.77,478.23,226.77,477.96,226.85,477.62 C226.95,477.18,227.06,477.13,227.21,477.13 C227.41,477.13,227.62,477.3,227.62,477.5 C227.62,477.56,227.62,477.58,227.56,477.72 C227.27,478.44,227.27,479.08,227.27,479.36 C227.27,479.89,227.34,480.42,227.45,480.94 H228.59 C228.71,480.94,229.07,480.94,229.07,481.28 C229.07,481.52,228.86,481.52,228.68,481.52 H225.34 C225.12,481.52,224.74,481.52,224.31,481.05 C223.96,480.66,223.7,480.2,223.7,480.16 C223.7,480.15,223.7,480.06,223.82,480.06 C223.9,480.06,223.92,480.1,223.98,480.17 C224.47,480.94,225.04,480.94,225.24,480.94 H225.81 C225.49,479.74,224.95,478.54,224.54,477.63 C224.46,477.48,224.46,477.46,224.46,477.39 C224.46,477.2,224.62,477.13,224.74,477.13 C225.04,477.13,225.12,477.4,225.24,477.77 C225.38,478.23,225.38,478.25,225.51,478.74 Z " /></g>      <path
         id="path15775"
         inkscape:label="none"
         style="stroke-linejoin:round;stroke:#4C4C4C;stroke-linecap:round;stroke-dasharray:none;stroke-width:1.14285714286;fill:none"
         d="m 120.0 -2.5 0 5.0" />
      <g
         transform="translate(117.500000 5.000000) translate(-286.153858 572.603573) scale(1.183432 -1.183432)  "
         ns0:preamble="/home/fernando/.config/inkscape/extensions/textextLib/basicLatexPackages.tex"
         ns0:text=" $1.5\\pi$"
         text-anchor="start"
         word-spacing="normal"
         letter-spacing="normal"
         font-size-adjust="none"
         font-stretch="normal"
         font-weight="normal"
         font-variant="normal"
         font-style="normal"
         fill-opacity="1"
         fill-rule="evenodd"
         fill="none"
         stroke-opacity="1"
         stroke-dashoffset="0"
         stroke-dasharray="none"
         stroke-miterlimit="10.433"
         stroke-linejoin="miter"
         stroke-linecap="butt"
         stroke="black"
         xml:space="preserve"
         id="g15777"><path
           id="path15779"
           style="fill:#000000;stroke-width:0"
           fill="black"
           stroke-width="0"
           d="M226.36,483.59 L226.36,483.6 L226.36,483.61 L226.36,483.63 L226.36,483.64 L226.36,483.64 L226.36,483.65 L226.36,483.66 L226.36,483.67 L226.36,483.68 L226.36,483.69 L226.36,483.7 L226.36,483.71 L226.36,483.71 L226.35,483.72 L226.35,483.73 L226.35,483.73 L226.35,483.74 L226.35,483.75 L226.35,483.76 L226.35,483.77 L226.34,483.78 L226.34,483.79 L226.34,483.8 L226.33,483.8 L226.33,483.81 L226.32,483.82 L226.32,483.82 L226.31,483.83 L226.3,483.83 L226.29,483.84 L226.29,483.84 L226.28,483.84 L226.28,483.84 L226.27,483.84 L226.27,483.84 L226.26,483.84 L226.25,483.85 L226.25,483.85 L226.24,483.85 L226.23,483.85 L226.23,483.85 L226.22,483.85 L226.21,483.85 L226.2,483.85 L226.2,483.85 L226.19,483.85 L226.18,483.85 L226.17,483.85 L226.16,483.85 L226.15,483.85 L226.14,483.85 L226.13,483.85 C225.51,483.21,224.64,483.21,224.32,483.21 V482.91 C224.52,482.91,225.1,482.91,225.62,483.17 V478.02 C225.62,477.66,225.59,477.54,224.7,477.54 H224.38 V477.23 C224.73,477.27,225.59,477.27,225.99,477.27 C226.39,477.27,227.25,477.27,227.6,477.23 V477.54 H227.28 C226.39,477.54,226.36,477.65,226.36,478.02 Z " /><path
           id="path15781"
           style="fill:#000000;stroke-width:0"
           fill="black"
           stroke-width="0"
           d="M230.32,477.76 L230.32,477.79 L230.32,477.82 L230.32,477.84 L230.31,477.87 L230.31,477.89 L230.3,477.92 L230.29,477.94 L230.28,477.97 L230.27,477.99 L230.26,478.01 L230.25,478.03 L230.23,478.05 L230.22,478.08 L230.2,478.1 L230.19,478.11 L230.17,478.13 L230.15,478.15 L230.13,478.17 L230.11,478.18 L230.09,478.2 L230.07,478.21 L230.05,478.22 L230.02,478.24 L230,478.25 L229.98,478.26 L229.95,478.26 L229.93,478.27 L229.9,478.28 L229.88,478.28 L229.85,478.29 L229.82,478.29 L229.8,478.29 C229.51,478.29,229.27,478.05,229.27,477.76 C229.27,477.47,229.51,477.23,229.8,477.23 C230.08,477.23,230.32,477.47,230.32,477.76 Z " /><path
           id="path15783"
           style="fill:#000000;stroke-width:0"
           fill="black"
           stroke-width="0"
           d="M235.65,479.23 L235.65,479.34 L235.64,479.45 L235.63,479.56 L235.61,479.66 L235.59,479.77 L235.57,479.87 L235.54,479.97 L235.5,480.07 L235.47,480.17 L235.43,480.26 L235.38,480.35 L235.33,480.44 L235.28,480.53 L235.23,480.61 L235.17,480.69 L235.11,480.76 L235.04,480.84 L234.97,480.9 L234.9,480.97 L234.83,481.03 L234.75,481.09 L234.67,481.14 L234.59,481.19 L234.51,481.23 L234.42,481.27 L234.33,481.31 L234.24,481.34 L234.15,481.36 L234.05,481.38 L233.96,481.4 L233.86,481.4 L233.76,481.41 C233.28,481.41,232.85,481.25,232.49,480.9 V482.84 C232.69,482.78,233.02,482.71,233.34,482.71 C234.56,482.71,235.26,483.61,235.26,483.74 C235.26,483.8,235.23,483.85,235.16,483.85 C235.15,483.85,235.13,483.85,235.08,483.82 C234.88,483.73,234.4,483.53,233.73,483.53 C233.33,483.53,232.87,483.6,232.4,483.81 C232.32,483.84,232.3,483.84,232.29,483.84 C232.19,483.84,232.19,483.76,232.19,483.6 V480.66 C232.19,480.48,232.19,480.4,232.32,480.4 C232.4,480.4,232.41,480.43,232.46,480.49 C232.56,480.65,232.93,481.19,233.74,481.19 C234.26,481.19,234.5,480.73,234.58,480.55 C234.74,480.18,234.76,479.8,234.76,479.3 C234.76,478.95,234.76,478.36,234.52,477.94 C234.29,477.55,233.92,477.3,233.46,477.3 C232.73,477.3,232.17,477.82,232,478.41 C232.03,478.4,232.06,478.39,232.17,478.39 C232.49,478.39,232.66,478.64,232.66,478.87 C232.66,479.11,232.49,479.36,232.17,479.36 C232.03,479.36,231.68,479.29,231.68,478.83 C231.68,477.98,232.37,477.02,233.48,477.02 C234.63,477.02,235.65,477.97,235.65,479.23 Z " /><path
           id="path15785"
           style="fill:#000000;stroke-width:0"
           fill="black"
           stroke-width="0"
           d="M238.8,480.94 H239.92 C239.59,479.47,239.51,479.04,239.51,478.38 C239.51,478.23,239.51,477.96,239.59,477.62 C239.68,477.18,239.79,477.13,239.94,477.13 C240.14,477.13,240.35,477.3,240.35,477.5 C240.35,477.56,240.35,477.58,240.29,477.72 C240,478.44,240,479.08,240,479.36 C240,479.89,240.07,480.42,240.18,480.94 H241.32 C241.45,480.94,241.8,480.94,241.8,481.28 C241.8,481.52,241.59,481.52,241.4,481.52 H238.07 C237.85,481.52,237.48,481.52,237.04,481.05 C236.69,480.66,236.43,480.2,236.43,480.16 C236.43,480.15,236.43,480.06,236.55,480.06 C236.63,480.06,236.65,480.1,236.71,480.17 C237.2,480.94,237.77,480.94,237.97,480.94 H238.54 C238.22,479.74,237.68,478.54,237.27,477.63 C237.19,477.48,237.19,477.46,237.19,477.39 C237.19,477.2,237.35,477.13,237.48,477.13 C237.77,477.13,237.85,477.4,237.97,477.77 C238.11,478.23,238.11,478.25,238.24,478.74 Z " /></g>      <path
         id="path15787"
         inkscape:label="none"
         style="stroke-linejoin:round;stroke:#4C4C4C;stroke-linecap:round;stroke-dasharray:none;stroke-width:1.14285714286;fill:none"
         d="m 160.0 -2.5 0 5.0" />
      <g
         transform="translate(157.500000 5.000000) translate(-276.982260 572.603573) scale(1.183432 -1.183432)  "
         ns0:preamble="/home/fernando/.config/inkscape/extensions/textextLib/basicLatexPackages.tex"
         ns0:text=" $2\\pi$"
         text-anchor="start"
         word-spacing="normal"
         letter-spacing="normal"
         font-size-adjust="none"
         font-stretch="normal"
         font-weight="normal"
         font-variant="normal"
         font-style="normal"
         fill-opacity="1"
         fill-rule="evenodd"
         fill="none"
         stroke-opacity="1"
         stroke-dashoffset="0"
         stroke-dasharray="none"
         stroke-miterlimit="10.433"
         stroke-linejoin="miter"
         stroke-linecap="butt"
         stroke="black"
         xml:space="preserve"
         id="g15789"><path
           id="path15791"
           style="fill:#000000;stroke-width:0"
           fill="black"
           stroke-width="0"
           d="M224.7,478 L225.75,479.02 C227.3,480.39,227.9,480.93,227.9,481.92 C227.9,483.06,227,483.85,225.79,483.85 C224.67,483.85,223.93,482.94,223.93,482.05 C223.93,481.5,224.43,481.5,224.46,481.5 C224.63,481.5,224.97,481.62,224.97,482.02 C224.97,482.28,224.79,482.54,224.45,482.54 C224.37,482.54,224.35,482.54,224.32,482.53 C224.55,483.17,225.08,483.54,225.66,483.54 C226.57,483.54,226.99,482.74,226.99,481.92 C226.99,481.13,226.5,480.34,225.95,479.73 L224.04,477.6 C223.93,477.49,223.93,477.47,223.93,477.23 H227.62 L227.9,478.96 H227.65 C227.6,478.67,227.53,478.23,227.43,478.08 C227.36,478,226.71,478,226.49,478 Z " /><path
           id="path15793"
           style="fill:#000000;stroke-width:0"
           fill="black"
           stroke-width="0"
           d="M231.05,480.94 H232.17 C231.85,479.47,231.76,479.04,231.76,478.38 C231.76,478.23,231.76,477.96,231.84,477.62 C231.93,477.18,232.04,477.13,232.19,477.13 C232.39,477.13,232.6,477.3,232.6,477.5 C232.6,477.56,232.6,477.58,232.54,477.72 C232.25,478.44,232.25,479.08,232.25,479.36 C232.25,479.89,232.32,480.42,232.43,480.94 H233.57 C233.7,480.94,234.05,480.94,234.05,481.28 C234.05,481.52,233.85,481.52,233.66,481.52 H230.32 C230.1,481.52,229.73,481.52,229.29,481.05 C228.94,480.66,228.68,480.2,228.68,480.16 C228.68,480.15,228.68,480.06,228.8,480.06 C228.88,480.06,228.9,480.1,228.96,480.17 C229.45,480.94,230.02,480.94,230.22,480.94 H230.79 C230.47,479.74,229.93,478.54,229.52,477.63 C229.44,477.48,229.44,477.46,229.44,477.39 C229.44,477.2,229.6,477.13,229.73,477.13 C230.02,477.13,230.1,477.4,230.22,477.77 C230.36,478.23,230.36,478.25,230.49,478.74 Z " /></g>      <path
         id="path15795"
         inkscape:label="none"
         style="stroke-linejoin:round;stroke:#4C4C4C;stroke-linecap:round;stroke-dasharray:none;stroke-width:1.14285714286;fill:none"
         d="m -40.0 -2.5 0 5.0" />
      <g
         transform="translate(-42.500000 5.000000) translate(-295.325456 572.603573) scale(1.183432 -1.183432)  "
         ns0:preamble="/home/fernando/.config/inkscape/extensions/textextLib/basicLatexPackages.tex"
         ns0:text=" $-0.5\\pi$"
         text-anchor="start"
         word-spacing="normal"
         letter-spacing="normal"
         font-size-adjust="none"
         font-stretch="normal"
         font-weight="normal"
         font-variant="normal"
         font-style="normal"
         fill-opacity="1"
         fill-rule="evenodd"
         fill="none"
         stroke-opacity="1"
         stroke-dashoffset="0"
         stroke-dasharray="none"
         stroke-miterlimit="10.433"
         stroke-linejoin="miter"
         stroke-linecap="butt"
         stroke="black"
         xml:space="preserve"
         id="g15797"><path
           id="path15799"
           style="fill:#000000;stroke-width:0"
           fill="black"
           stroke-width="0"
           d="M229.99,479.52 L230.02,479.52 L230.05,479.52 L230.08,479.52 L230.1,479.52 L230.11,479.52 L230.13,479.52 L230.14,479.53 L230.16,479.53 L230.17,479.53 L230.19,479.53 L230.2,479.54 L230.21,479.54 L230.23,479.54 L230.24,479.55 L230.25,479.56 L230.26,479.56 L230.27,479.57 L230.28,479.58 L230.29,479.58 L230.3,479.59 L230.31,479.6 L230.31,479.61 L230.31,479.61 L230.32,479.62 L230.32,479.63 L230.32,479.63 L230.32,479.64 L230.33,479.65 L230.33,479.65 L230.33,479.66 L230.33,479.67 L230.33,479.68 L230.33,479.68 L230.34,479.69 L230.34,479.7 L230.34,479.71 L230.34,479.72 C230.34,479.92,230.16,479.92,229.99,479.92 H224.61 C224.44,479.92,224.26,479.92,224.26,479.72 C224.26,479.52,224.44,479.52,224.61,479.52 Z " /><path
           id="path15801"
           style="fill:#000000;stroke-width:0"
           fill="black"
           stroke-width="0"
           d="M235.76,480.41 L235.76,480.56 L235.76,480.71 L235.75,480.86 L235.74,481.01 L235.74,481.16 L235.72,481.3 L235.71,481.45 L235.69,481.6 L235.67,481.74 L235.64,481.89 L235.61,482.03 L235.57,482.18 L235.53,482.32 L235.48,482.46 L235.42,482.6 L235.39,482.67 L235.36,482.74 C234.9,483.69,234.09,483.85,233.67,483.85 C233.07,483.85,232.35,483.59,231.94,482.67 C231.62,481.98,231.57,481.21,231.57,480.41 C231.57,479.67,231.61,478.77,232.02,478.02 C232.45,477.21,233.17,477.02,233.66,477.02 V477.23 C233.27,477.23,232.68,477.48,232.5,478.44 C232.4,479.03,232.4,479.95,232.4,480.53 C232.4,481.17,232.4,481.82,232.47,482.36 C232.66,483.54,233.41,483.63,233.66,483.63 C233.99,483.63,234.64,483.45,234.83,482.47 C234.93,481.91,234.93,481.16,234.93,480.53 C234.93,479.79,234.93,479.11,234.82,478.48 C234.67,477.53,234.11,477.23,233.66,477.23 H233.66 V477.02 C234.2,477.02,234.95,477.23,235.39,478.17 C235.71,478.85,235.76,479.63,235.76,480.41 Z " /><path
           id="path15803"
           style="fill:#000000;stroke-width:0"
           fill="black"
           stroke-width="0"
           d="M238.07,477.76 L238.07,477.79 L238.07,477.82 L238.07,477.84 L238.06,477.87 L238.06,477.89 L238.05,477.92 L238.04,477.94 L238.03,477.97 L238.02,477.99 L238.01,478.01 L237.99,478.03 L237.98,478.05 L237.97,478.08 L237.95,478.1 L237.93,478.11 L237.92,478.13 L237.9,478.15 L237.88,478.17 L237.86,478.18 L237.84,478.2 L237.82,478.21 L237.79,478.22 L237.77,478.24 L237.75,478.25 L237.72,478.26 L237.7,478.26 L237.68,478.27 L237.65,478.28 L237.62,478.28 L237.6,478.29 L237.57,478.29 L237.54,478.29 C237.26,478.29,237.02,478.05,237.02,477.76 C237.02,477.47,237.26,477.23,237.54,477.23 C237.83,477.23,238.07,477.47,238.07,477.76 Z " /><path
           id="path15805"
           style="fill:#000000;stroke-width:0"
           fill="black"
           stroke-width="0"
           d="M243.4,479.23 L243.39,479.34 L243.39,479.45 L243.38,479.56 L243.36,479.66 L243.34,479.77 L243.31,479.87 L243.29,479.97 L243.25,480.07 L243.22,480.17 L243.17,480.26 L243.13,480.35 L243.08,480.44 L243.03,480.53 L242.98,480.61 L242.92,480.69 L242.85,480.76 L242.79,480.84 L242.72,480.9 L242.65,480.97 L242.58,481.03 L242.5,481.09 L242.42,481.14 L242.34,481.19 L242.26,481.23 L242.17,481.27 L242.08,481.31 L241.99,481.34 L241.9,481.36 L241.8,481.38 L241.71,481.4 L241.61,481.4 L241.51,481.41 C241.03,481.41,240.6,481.25,240.24,480.9 V482.84 C240.44,482.78,240.77,482.71,241.09,482.71 C242.31,482.71,243.01,483.61,243.01,483.74 C243.01,483.8,242.98,483.85,242.91,483.85 C242.9,483.85,242.88,483.85,242.83,483.82 C242.63,483.73,242.14,483.53,241.48,483.53 C241.08,483.53,240.62,483.6,240.15,483.81 C240.07,483.84,240.05,483.84,240.03,483.84 C239.93,483.84,239.93,483.76,239.93,483.6 V480.66 C239.93,480.48,239.93,480.4,240.07,480.4 C240.14,480.4,240.16,480.43,240.2,480.49 C240.31,480.65,240.68,481.19,241.49,481.19 C242,481.19,242.25,480.73,242.33,480.55 C242.49,480.18,242.51,479.8,242.51,479.3 C242.51,478.95,242.51,478.36,242.27,477.94 C242.03,477.55,241.67,477.3,241.21,477.3 C240.48,477.3,239.91,477.82,239.75,478.41 C239.78,478.4,239.81,478.39,239.91,478.39 C240.24,478.39,240.41,478.64,240.41,478.87 C240.41,479.11,240.24,479.36,239.91,479.36 C239.78,479.36,239.43,479.29,239.43,478.83 C239.43,477.98,240.11,477.02,241.23,477.02 C242.38,477.02,243.4,477.97,243.4,479.23 Z " /><path
           id="path15807"
           style="fill:#000000;stroke-width:0"
           fill="black"
           stroke-width="0"
           d="M246.55,480.94 H247.67 C247.34,479.47,247.25,479.04,247.25,478.38 C247.25,478.23,247.25,477.96,247.33,477.62 C247.43,477.18,247.54,477.13,247.69,477.13 C247.89,477.13,248.1,477.3,248.1,477.5 C248.1,477.56,248.1,477.58,248.04,477.72 C247.75,478.44,247.75,479.08,247.75,479.36 C247.75,479.89,247.82,480.42,247.93,480.94 H249.07 C249.19,480.94,249.55,480.94,249.55,481.28 C249.55,481.52,249.34,481.52,249.15,481.52 H245.82 C245.6,481.52,245.22,481.52,244.79,481.05 C244.44,480.66,244.18,480.2,244.18,480.16 C244.18,480.15,244.18,480.06,244.3,480.06 C244.38,480.06,244.4,480.1,244.46,480.17 C244.95,480.94,245.52,480.94,245.72,480.94 H246.29 C245.97,479.74,245.43,478.54,245.01,477.63 C244.94,477.48,244.94,477.46,244.94,477.39 C244.94,477.2,245.1,477.13,245.22,477.13 C245.52,477.13,245.6,477.4,245.72,477.77 C245.86,478.23,245.86,478.25,245.99,478.74 Z " /></g>      <path
         id="path15809"
         inkscape:label="none"
         style="stroke-linejoin:round;stroke:#4C4C4C;stroke-linecap:round;stroke-dasharray:none;stroke-width:1.14285714286;fill:none"
         d="m -80.0 -2.5 0 5.0" />
      <g
         transform="translate(-82.500000 5.000000) translate(-280.260366 569.846177) scale(1.183432 -1.183432)  "
         ns0:preamble="/home/fernando/.config/inkscape/extensions/textextLib/basicLatexPackages.tex"
         ns0:text=" $-\\pi$"
         text-anchor="start"
         word-spacing="normal"
         letter-spacing="normal"
         font-size-adjust="none"
         font-stretch="normal"
         font-weight="normal"
         font-variant="normal"
         font-style="normal"
         fill-opacity="1"
         fill-rule="evenodd"
         fill="none"
         stroke-opacity="1"
         stroke-dashoffset="0"
         stroke-dasharray="none"
         stroke-miterlimit="10.433"
         stroke-linejoin="miter"
         stroke-linecap="butt"
         stroke="black"
         xml:space="preserve"
         id="g15811"><path
           id="path15813"
           style="fill:#000000;stroke-width:0"
           fill="black"
           stroke-width="0"
           d="M229.99,479.52 L230.02,479.52 L230.05,479.52 L230.08,479.52 L230.1,479.52 L230.11,479.52 L230.13,479.52 L230.14,479.53 L230.16,479.53 L230.17,479.53 L230.19,479.53 L230.2,479.54 L230.21,479.54 L230.23,479.54 L230.24,479.55 L230.25,479.56 L230.26,479.56 L230.27,479.57 L230.28,479.58 L230.29,479.58 L230.3,479.59 L230.31,479.6 L230.31,479.61 L230.31,479.61 L230.32,479.62 L230.32,479.63 L230.32,479.63 L230.32,479.64 L230.33,479.65 L230.33,479.65 L230.33,479.66 L230.33,479.67 L230.33,479.68 L230.33,479.68 L230.34,479.69 L230.34,479.7 L230.34,479.71 L230.34,479.72 C230.34,479.92,230.16,479.92,229.99,479.92 H224.61 C224.44,479.92,224.26,479.92,224.26,479.72 C224.26,479.52,224.44,479.52,224.61,479.52 Z " /><path
           id="path15815"
           style="fill:#000000;stroke-width:0"
           fill="black"
           stroke-width="0"
           d="M233.82,480.94 H234.94 C234.61,479.47,234.52,479.04,234.52,478.38 C234.52,478.23,234.52,477.96,234.6,477.62 C234.7,477.18,234.81,477.13,234.96,477.13 C235.16,477.13,235.37,477.3,235.37,477.5 C235.37,477.56,235.37,477.58,235.31,477.72 C235.02,478.44,235.02,479.08,235.02,479.36 C235.02,479.89,235.09,480.42,235.2,480.94 H236.34 C236.46,480.94,236.82,480.94,236.82,481.28 C236.82,481.52,236.61,481.52,236.42,481.52 H233.09 C232.87,481.52,232.49,481.52,232.06,481.05 C231.71,480.66,231.45,480.2,231.45,480.16 C231.45,480.15,231.45,480.06,231.57,480.06 C231.65,480.06,231.67,480.1,231.73,480.17 C232.22,480.94,232.79,480.94,232.99,480.94 H233.56 C233.24,479.74,232.7,478.54,232.29,477.63 C232.21,477.48,232.21,477.46,232.21,477.39 C232.21,477.2,232.37,477.13,232.49,477.13 C232.79,477.13,232.87,477.4,232.99,477.77 C233.13,478.23,233.13,478.25,233.26,478.74 Z " /></g>      <path
         id="path15817"
         inkscape:label="none"
         style="stroke-linejoin:round;stroke:#4C4C4C;stroke-linecap:round;stroke-dasharray:none;stroke-width:1.14285714286;fill:none"
         d="m -120.0 -2.5 0 5.0" />
      <g
         transform="translate(-122.500000 5.000000) translate(-295.325456 572.603573) scale(1.183432 -1.183432)  "
         ns0:preamble="/home/fernando/.config/inkscape/extensions/textextLib/basicLatexPackages.tex"
         ns0:text=" $-1.5\\pi$"
         text-anchor="start"
         word-spacing="normal"
         letter-spacing="normal"
         font-size-adjust="none"
         font-stretch="normal"
         font-weight="normal"
         font-variant="normal"
         font-style="normal"
         fill-opacity="1"
         fill-rule="evenodd"
         fill="none"
         stroke-opacity="1"
         stroke-dashoffset="0"
         stroke-dasharray="none"
         stroke-miterlimit="10.433"
         stroke-linejoin="miter"
         stroke-linecap="butt"
         stroke="black"
         xml:space="preserve"
         id="g15819"><path
           id="path15821"
           style="fill:#000000;stroke-width:0"
           fill="black"
           stroke-width="0"
           d="M229.99,479.52 L230.02,479.52 L230.05,479.52 L230.08,479.52 L230.1,479.52 L230.11,479.52 L230.13,479.52 L230.14,479.53 L230.16,479.53 L230.17,479.53 L230.19,479.53 L230.2,479.54 L230.21,479.54 L230.23,479.54 L230.24,479.55 L230.25,479.56 L230.26,479.56 L230.27,479.57 L230.28,479.58 L230.29,479.58 L230.3,479.59 L230.31,479.6 L230.31,479.61 L230.31,479.61 L230.32,479.62 L230.32,479.63 L230.32,479.63 L230.32,479.64 L230.33,479.65 L230.33,479.65 L230.33,479.66 L230.33,479.67 L230.33,479.68 L230.33,479.68 L230.34,479.69 L230.34,479.7 L230.34,479.71 L230.34,479.72 C230.34,479.92,230.16,479.92,229.99,479.92 H224.61 C224.44,479.92,224.26,479.92,224.26,479.72 C224.26,479.52,224.44,479.52,224.61,479.52 Z " /><path
           id="path15823"
           style="fill:#000000;stroke-width:0"
           fill="black"
           stroke-width="0"
           d="M234.11,483.59 L234.11,483.6 L234.11,483.61 L234.11,483.63 L234.11,483.64 L234.11,483.64 L234.11,483.65 L234.11,483.66 L234.11,483.67 L234.11,483.68 L234.11,483.69 L234.1,483.7 L234.1,483.71 L234.1,483.71 L234.1,483.72 L234.1,483.73 L234.1,483.73 L234.1,483.74 L234.1,483.75 L234.1,483.76 L234.1,483.77 L234.09,483.78 L234.09,483.79 L234.09,483.8 L234.08,483.8 L234.08,483.81 L234.07,483.82 L234.07,483.82 L234.06,483.83 L234.05,483.83 L234.04,483.84 L234.04,483.84 L234.03,483.84 L234.03,483.84 L234.02,483.84 L234.02,483.84 L234.01,483.84 L234,483.85 L234,483.85 L233.99,483.85 L233.98,483.85 L233.98,483.85 L233.97,483.85 L233.96,483.85 L233.95,483.85 L233.94,483.85 L233.94,483.85 L233.93,483.85 L233.92,483.85 L233.91,483.85 L233.9,483.85 L233.89,483.85 L233.88,483.85 C233.26,483.21,232.38,483.21,232.07,483.21 V482.91 C232.26,482.91,232.85,482.91,233.37,483.17 V478.02 C233.37,477.66,233.34,477.54,232.45,477.54 H232.13 V477.23 C232.47,477.27,233.34,477.27,233.74,477.27 C234.14,477.27,235,477.27,235.35,477.23 V477.54 H235.03 C234.14,477.54,234.11,477.65,234.11,478.02 Z " /><path
           id="path15825"
           style="fill:#000000;stroke-width:0"
           fill="black"
           stroke-width="0"
           d="M238.07,477.76 L238.07,477.79 L238.07,477.82 L238.07,477.84 L238.06,477.87 L238.06,477.89 L238.05,477.92 L238.04,477.94 L238.03,477.97 L238.02,477.99 L238.01,478.01 L237.99,478.03 L237.98,478.05 L237.97,478.08 L237.95,478.1 L237.93,478.11 L237.92,478.13 L237.9,478.15 L237.88,478.17 L237.86,478.18 L237.84,478.2 L237.82,478.21 L237.79,478.22 L237.77,478.24 L237.75,478.25 L237.72,478.26 L237.7,478.26 L237.68,478.27 L237.65,478.28 L237.62,478.28 L237.6,478.29 L237.57,478.29 L237.54,478.29 C237.26,478.29,237.02,478.05,237.02,477.76 C237.02,477.47,237.26,477.23,237.54,477.23 C237.83,477.23,238.07,477.47,238.07,477.76 Z " /><path
           id="path15827"
           style="fill:#000000;stroke-width:0"
           fill="black"
           stroke-width="0"
           d="M243.4,479.23 L243.39,479.34 L243.39,479.45 L243.38,479.56 L243.36,479.66 L243.34,479.77 L243.31,479.87 L243.29,479.97 L243.25,480.07 L243.22,480.17 L243.17,480.26 L243.13,480.35 L243.08,480.44 L243.03,480.53 L242.98,480.61 L242.92,480.69 L242.85,480.76 L242.79,480.84 L242.72,480.9 L242.65,480.97 L242.58,481.03 L242.5,481.09 L242.42,481.14 L242.34,481.19 L242.26,481.23 L242.17,481.27 L242.08,481.31 L241.99,481.34 L241.9,481.36 L241.8,481.38 L241.71,481.4 L241.61,481.4 L241.51,481.41 C241.03,481.41,240.6,481.25,240.24,480.9 V482.84 C240.44,482.78,240.77,482.71,241.09,482.71 C242.31,482.71,243.01,483.61,243.01,483.74 C243.01,483.8,242.98,483.85,242.91,483.85 C242.9,483.85,242.88,483.85,242.83,483.82 C242.63,483.73,242.14,483.53,241.48,483.53 C241.08,483.53,240.62,483.6,240.15,483.81 C240.07,483.84,240.05,483.84,240.03,483.84 C239.93,483.84,239.93,483.76,239.93,483.6 V480.66 C239.93,480.48,239.93,480.4,240.07,480.4 C240.14,480.4,240.16,480.43,240.2,480.49 C240.31,480.65,240.68,481.19,241.49,481.19 C242,481.19,242.25,480.73,242.33,480.55 C242.49,480.18,242.51,479.8,242.51,479.3 C242.51,478.95,242.51,478.36,242.27,477.94 C242.03,477.55,241.67,477.3,241.21,477.3 C240.48,477.3,239.91,477.82,239.75,478.41 C239.78,478.4,239.81,478.39,239.91,478.39 C240.24,478.39,240.41,478.64,240.41,478.87 C240.41,479.11,240.24,479.36,239.91,479.36 C239.78,479.36,239.43,479.29,239.43,478.83 C239.43,477.98,240.11,477.02,241.23,477.02 C242.38,477.02,243.4,477.97,243.4,479.23 Z " /><path
           id="path15829"
           style="fill:#000000;stroke-width:0"
           fill="black"
           stroke-width="0"
           d="M246.55,480.94 H247.67 C247.34,479.47,247.25,479.04,247.25,478.38 C247.25,478.23,247.25,477.96,247.33,477.62 C247.43,477.18,247.54,477.13,247.69,477.13 C247.89,477.13,248.1,477.3,248.1,477.5 C248.1,477.56,248.1,477.58,248.04,477.72 C247.75,478.44,247.75,479.08,247.75,479.36 C247.75,479.89,247.82,480.42,247.93,480.94 H249.07 C249.19,480.94,249.55,480.94,249.55,481.28 C249.55,481.52,249.34,481.52,249.15,481.52 H245.82 C245.6,481.52,245.22,481.52,244.79,481.05 C244.44,480.66,244.18,480.2,244.18,480.16 C244.18,480.15,244.18,480.06,244.3,480.06 C244.38,480.06,244.4,480.1,244.46,480.17 C244.95,480.94,245.52,480.94,245.72,480.94 H246.29 C245.97,479.74,245.43,478.54,245.01,477.63 C244.94,477.48,244.94,477.46,244.94,477.39 C244.94,477.2,245.1,477.13,245.22,477.13 C245.52,477.13,245.6,477.4,245.72,477.77 C245.86,478.23,245.86,478.25,245.99,478.74 Z " /></g>      <path
         id="path15831"
         inkscape:label="none"
         style="stroke-linejoin:round;stroke:#4C4C4C;stroke-linecap:round;stroke-dasharray:none;stroke-width:1.14285714286;fill:none"
         d="m -160.0 -2.5 0 5.0" />
      <g
         transform="translate(-162.500000 5.000000) translate(-286.153858 572.603573) scale(1.183432 -1.183432)  "
         ns0:preamble="/home/fernando/.config/inkscape/extensions/textextLib/basicLatexPackages.tex"
         ns0:text=" $-2\\pi$"
         text-anchor="start"
         word-spacing="normal"
         letter-spacing="normal"
         font-size-adjust="none"
         font-stretch="normal"
         font-weight="normal"
         font-variant="normal"
         font-style="normal"
         fill-opacity="1"
         fill-rule="evenodd"
         fill="none"
         stroke-opacity="1"
         stroke-dashoffset="0"
         stroke-dasharray="none"
         stroke-miterlimit="10.433"
         stroke-linejoin="miter"
         stroke-linecap="butt"
         stroke="black"
         xml:space="preserve"
         id="g15833"><path
           id="path15835"
           style="fill:#000000;stroke-width:0"
           fill="black"
           stroke-width="0"
           d="M229.99,479.52 L230.02,479.52 L230.05,479.52 L230.08,479.52 L230.1,479.52 L230.11,479.52 L230.13,479.52 L230.14,479.53 L230.16,479.53 L230.17,479.53 L230.19,479.53 L230.2,479.54 L230.21,479.54 L230.23,479.54 L230.24,479.55 L230.25,479.56 L230.26,479.56 L230.27,479.57 L230.28,479.58 L230.29,479.58 L230.3,479.59 L230.31,479.6 L230.31,479.61 L230.31,479.61 L230.32,479.62 L230.32,479.63 L230.32,479.63 L230.32,479.64 L230.33,479.65 L230.33,479.65 L230.33,479.66 L230.33,479.67 L230.33,479.68 L230.33,479.68 L230.34,479.69 L230.34,479.7 L230.34,479.71 L230.34,479.72 C230.34,479.92,230.16,479.92,229.99,479.92 H224.61 C224.44,479.92,224.26,479.92,224.26,479.72 C224.26,479.52,224.44,479.52,224.61,479.52 Z " /><path
           id="path15837"
           style="fill:#000000;stroke-width:0"
           fill="black"
           stroke-width="0"
           d="M232.45,478 L233.5,479.02 C235.05,480.39,235.65,480.93,235.65,481.92 C235.65,483.06,234.75,483.85,233.54,483.85 C232.41,483.85,231.68,482.94,231.68,482.05 C231.68,481.5,232.18,481.5,232.21,481.5 C232.38,481.5,232.72,481.62,232.72,482.02 C232.72,482.28,232.54,482.54,232.2,482.54 C232.12,482.54,232.1,482.54,232.07,482.53 C232.29,483.17,232.83,483.54,233.41,483.54 C234.32,483.54,234.74,482.74,234.74,481.92 C234.74,481.13,234.24,480.34,233.7,479.73 L231.79,477.6 C231.68,477.49,231.68,477.47,231.68,477.23 H235.37 L235.65,478.96 H235.4 C235.35,478.67,235.28,478.23,235.18,478.08 C235.11,478,234.45,478,234.24,478 Z " /><path
           id="path15839"
           style="fill:#000000;stroke-width:0"
           fill="black"
           stroke-width="0"
           d="M238.8,480.94 H239.92 C239.59,479.47,239.51,479.04,239.51,478.38 C239.51,478.23,239.51,477.96,239.59,477.62 C239.68,477.18,239.79,477.13,239.94,477.13 C240.14,477.13,240.35,477.3,240.35,477.5 C240.35,477.56,240.35,477.58,240.29,477.72 C240,478.44,240,479.08,240,479.36 C240,479.89,240.07,480.42,240.18,480.94 H241.32 C241.45,480.94,241.8,480.94,241.8,481.28 C241.8,481.52,241.59,481.52,241.4,481.52 H238.07 C237.85,481.52,237.48,481.52,237.04,481.05 C236.69,480.66,236.43,480.2,236.43,480.16 C236.43,480.15,236.43,480.06,236.55,480.06 C236.63,480.06,236.65,480.1,236.71,480.17 C237.2,480.94,237.77,480.94,237.97,480.94 H238.54 C238.22,479.74,237.68,478.54,237.27,477.63 C237.19,477.48,237.19,477.46,237.19,477.39 C237.19,477.2,237.35,477.13,237.48,477.13 C237.77,477.13,237.85,477.4,237.97,477.77 C238.11,478.23,238.11,478.25,238.24,478.74 Z " /></g>      <g
         transform="translate(-5.000000 -2.500000) translate(-269.834330 564.520733) scale(1.183432 -1.183432)  "
         ns0:preamble="/home/fernando/.config/inkscape/extensions/textextLib/basicLatexPackages.tex"
         ns0:text=" $0$"
         text-anchor="start"
         word-spacing="normal"
         letter-spacing="normal"
         font-size-adjust="none"
         font-stretch="normal"
         font-weight="normal"
         font-variant="normal"
         font-style="normal"
         fill-opacity="1"
         fill-rule="evenodd"
         fill="none"
         stroke-opacity="1"
         stroke-dashoffset="0"
         stroke-dasharray="none"
         stroke-miterlimit="10.433"
         stroke-linejoin="miter"
         stroke-linecap="butt"
         stroke="black"
         xml:space="preserve"
         id="g15841"><path
           id="path15843"
           style="fill:#000000;stroke-width:0"
           fill="black"
           stroke-width="0"
           d="M228.01,480.41 L228.01,480.56 L228.01,480.71 L228,480.86 L228,481.01 L227.99,481.16 L227.97,481.3 L227.96,481.45 L227.94,481.6 L227.92,481.74 L227.89,481.89 L227.86,482.03 L227.82,482.18 L227.78,482.32 L227.73,482.46 L227.67,482.6 L227.64,482.67 L227.61,482.74 C227.15,483.69,226.34,483.85,225.92,483.85 C225.32,483.85,224.6,483.59,224.19,482.67 C223.87,481.98,223.82,481.21,223.82,480.41 C223.82,479.67,223.86,478.77,224.27,478.02 C224.7,477.21,225.42,477.02,225.91,477.02 V477.23 C225.52,477.23,224.93,477.48,224.76,478.44 C224.65,479.03,224.65,479.95,224.65,480.53 C224.65,481.17,224.65,481.82,224.73,482.36 C224.91,483.54,225.66,483.63,225.91,483.63 C226.24,483.63,226.89,483.45,227.08,482.47 C227.18,481.91,227.18,481.16,227.18,480.53 C227.18,479.79,227.18,479.11,227.07,478.48 C226.92,477.53,226.36,477.23,225.91,477.23 H225.91 V477.02 C226.45,477.02,227.2,477.23,227.64,478.17 C227.96,478.85,228.01,479.63,228.01,480.41 Z " /></g>      <path
         id="path15845"
         inkscape:label="none"
         style="stroke-linejoin:round;stroke:#4C4C4C;stroke-linecap:round;stroke-dasharray:none;stroke-width:1.14285714286;fill:none"
         d="m -2.5 -50.0 5.0 0" />
      <g
         transform="translate(-5.000000 -47.500000) translate(-282.331372 574.437893) scale(1.183432 -1.183432)  "
         ns0:preamble="/home/fernando/.config/inkscape/extensions/textextLib/basicLatexPackages.tex"
         ns0:text=" $\\sqrt{\\frac{a}{b}}$"
         text-anchor="start"
         word-spacing="normal"
         letter-spacing="normal"
         font-size-adjust="none"
         font-stretch="normal"
         font-weight="normal"
         font-variant="normal"
         font-style="normal"
         fill-opacity="1"
         fill-rule="evenodd"
         fill="none"
         stroke-opacity="1"
         stroke-dashoffset="0"
         stroke-dasharray="none"
         stroke-miterlimit="10.433"
         stroke-linejoin="miter"
         stroke-linecap="butt"
         stroke="black"
         xml:space="preserve"
         id="g15847"><path
           id="path15849"
           style="fill:#000000;stroke-width:0"
           fill="black"
           stroke-width="0"
           d="M227.65,473.48 L227.67,473.48 L227.68,473.49 L227.69,473.49 L227.71,473.49 L227.72,473.49 L227.73,473.49 L227.74,473.49 L227.75,473.49 L227.76,473.49 L227.78,473.49 L227.79,473.49 L227.8,473.49 L227.81,473.49 L227.83,473.49 L227.85,473.49 L227.86,473.49 L227.88,473.5 L227.89,473.5 L227.9,473.5 L227.92,473.5 L227.93,473.51 L227.94,473.51 L227.95,473.52 L227.96,473.52 L227.97,473.53 L227.97,473.54 L227.98,473.55 L227.99,473.55 L228,473.56 L228,473.57 L228.01,473.58 L228.02,473.59 L228.03,473.61 L228.03,473.62 L228.04,473.63 L228.05,473.65 L228.06,473.67 L228.07,473.68 L233.51,485.03 C233.58,485.16,233.58,485.18,233.58,485.21 C233.58,485.32,233.5,485.4,233.38,485.4 C233.25,485.4,233.21,485.32,233.16,485.21 L228.03,474.52 L225.91,479.45 L224.53,478.38 L224.68,478.22 L225.38,478.76 Z " /><line
           id="line15851"
           stroke-width="0.398"
           y2="485.21"
           x2="240.11"
           y1="485.21"
           x1="233.4" /><path
           id="path15853"
           style="fill:#000000;stroke-width:0"
           fill="black"
           stroke-width="0"
           d="M237.53,483.81 L237.52,483.84 L237.5,483.86 L237.49,483.88 L237.47,483.9 L237.45,483.92 L237.44,483.94 L237.42,483.96 L237.4,483.98 L237.38,483.99 L237.37,484.01 L237.35,484.03 L237.33,484.05 L237.31,484.06 L237.28,484.08 L237.26,484.09 L237.24,484.11 L237.22,484.12 L237.2,484.13 L237.17,484.14 L237.15,484.16 L237.12,484.17 L237.1,484.18 L237.07,484.18 L237.04,484.19 L237.02,484.2 L236.99,484.21 L236.96,484.21 L236.93,484.22 L236.9,484.22 L236.87,484.22 L236.84,484.22 L236.81,484.23 V484.03 C237.3,484.03,237.43,483.5,237.43,483.42 C237.43,483.4,237.42,483.35,237.41,483.33 L237.08,482.03 C237.04,481.83,236.88,481.69,236.73,481.56 C236.66,481.51,236.39,481.28,236.09,481.28 C235.83,481.28,235.58,481.46,235.58,481.96 C235.58,482.33,235.78,483.09,235.94,483.37 C236.26,483.93,236.62,484.03,236.81,484.03 V484.23 C235.92,484.23,235.01,483.24,235.01,482.24 C235.01,481.57,235.47,481.09,236.07,481.09 C236.44,481.09,236.78,481.3,237.05,481.58 C237.19,481.16,237.59,481.09,237.77,481.09 C238.02,481.09,238.2,481.24,238.32,481.46 C238.48,481.73,238.57,482.12,238.57,482.15 C238.57,482.24,238.48,482.24,238.46,482.24 C238.36,482.24,238.35,482.21,238.3,482.03 C238.22,481.69,238.09,481.28,237.79,481.28 C237.61,481.28,237.56,481.44,237.56,481.62 C237.56,481.74,237.62,481.99,237.67,482.17 C237.72,482.36,237.79,482.65,237.82,482.8 L237.96,483.33 C238,483.51,238.09,483.83,238.09,483.87 C238.09,484.02,237.96,484.09,237.85,484.09 C237.73,484.09,237.57,484.01,237.53,483.81 Z " /><line
           id="line15855"
           stroke-width="0.398"
           y2="479.73"
           x2="238.91"
           y1="479.73"
           x1="234.59" /><path
           id="path15857"
           style="fill:#000000;stroke-width:0"
           fill="black"
           stroke-width="0"
           d="M236.84,478.42 L236.84,478.42 L236.84,478.42 L236.84,478.42 L236.84,478.42 L236.84,478.42 L236.84,478.42 L236.84,478.42 L236.84,478.43 L236.84,478.43 L236.84,478.43 L236.84,478.44 L236.85,478.44 L236.85,478.44 L236.85,478.45 L236.85,478.45 L236.85,478.46 L236.85,478.46 L236.85,478.47 L236.85,478.48 L236.86,478.49 L236.86,478.49 L236.86,478.49 L236.86,478.5 L236.86,478.5 L236.86,478.51 L236.86,478.51 L236.86,478.51 L236.86,478.52 L236.86,478.52 L236.86,478.52 L236.86,478.52 L236.86,478.52 L236.86,478.52 L236.86,478.52 L236.86,478.53 L236.86,478.53 L236.86,478.53 L236.86,478.53 L236.86,478.53 L236.87,478.53 C236.87,478.56,236.84,478.63,236.75,478.63 C236.62,478.63,236.04,478.57,235.86,478.56 C235.81,478.55,235.71,478.54,235.71,478.4 C235.71,478.3,235.81,478.3,235.89,478.3 C236.23,478.3,236.23,478.25,236.23,478.2 C236.23,478.15,236.15,477.87,236.11,477.71 L235.95,477.07 C235.89,476.83,235.51,475.31,235.49,475.22 C235.46,475.05,235.46,474.96,235.46,474.88 C235.46,474.17,235.9,473.73,236.48,473.73 L236.49,473.92 C236.15,473.92,235.95,474.22,235.95,474.63 C235.95,474.89,236.02,475.13,236.21,475.91 C236.25,476.05,236.25,476.06,236.38,476.21 C236.65,476.52,236.96,476.67,237.21,476.67 C237.49,476.67,237.72,476.47,237.72,476 C237.72,475.71,237.57,475,237.36,474.6 C237.19,474.26,236.85,473.92,236.49,473.92 H236.49 L236.48,473.73 C237.35,473.73,238.28,474.68,238.28,475.7 C238.28,476.52,237.71,476.87,237.24,476.87 C236.87,476.87,236.57,476.67,236.36,476.48 Z " /></g>      <path
         id="path15859"
         inkscape:label="none"
         style="stroke-linejoin:round;stroke:#4C4C4C;stroke-linecap:round;stroke-dasharray:none;stroke-width:1.14285714286;fill:none"
         d="m -2.5 -100.0 5.0 0" />
      <g
         transform="translate(-5.000000 -97.500000) translate(-288.224864 574.437893) scale(1.183432 -1.183432)  "
         ns0:preamble="/home/fernando/.config/inkscape/extensions/textextLib/basicLatexPackages.tex"
         ns0:text=" $2\\sqrt{\\frac{a}{b}}$"
         text-anchor="start"
         word-spacing="normal"
         letter-spacing="normal"
         font-size-adjust="none"
         font-stretch="normal"
         font-weight="normal"
         font-variant="normal"
         font-style="normal"
         fill-opacity="1"
         fill-rule="evenodd"
         fill="none"
         stroke-opacity="1"
         stroke-dashoffset="0"
         stroke-dasharray="none"
         stroke-miterlimit="10.433"
         stroke-linejoin="miter"
         stroke-linecap="butt"
         stroke="black"
         xml:space="preserve"
         id="g15861"><path
           id="path15863"
           style="fill:#000000;stroke-width:0"
           fill="black"
           stroke-width="0"
           d="M224.7,478 L225.75,479.02 C227.3,480.39,227.9,480.93,227.9,481.92 C227.9,483.06,227,483.85,225.79,483.85 C224.67,483.85,223.93,482.94,223.93,482.05 C223.93,481.5,224.43,481.5,224.46,481.5 C224.63,481.5,224.97,481.62,224.97,482.02 C224.97,482.28,224.79,482.54,224.45,482.54 C224.37,482.54,224.35,482.54,224.32,482.53 C224.55,483.17,225.08,483.54,225.66,483.54 C226.57,483.54,226.99,482.74,226.99,481.92 C226.99,481.13,226.5,480.34,225.95,479.73 L224.04,477.6 C223.93,477.49,223.93,477.47,223.93,477.23 H227.62 L227.9,478.96 H227.65 C227.6,478.67,227.53,478.23,227.43,478.08 C227.36,478,226.71,478,226.49,478 Z " /><path
           id="path15865"
           style="fill:#000000;stroke-width:0"
           fill="black"
           stroke-width="0"
           d="M232.63,473.48 L232.65,473.48 L232.66,473.49 L232.67,473.49 L232.69,473.49 L232.7,473.49 L232.71,473.49 L232.72,473.49 L232.73,473.49 L232.75,473.49 L232.76,473.49 L232.77,473.49 L232.78,473.49 L232.8,473.49 L232.81,473.49 L232.83,473.49 L232.85,473.49 L232.86,473.5 L232.87,473.5 L232.89,473.5 L232.9,473.5 L232.91,473.51 L232.92,473.51 L232.93,473.52 L232.94,473.52 L232.95,473.53 L232.95,473.54 L232.96,473.55 L232.97,473.55 L232.98,473.56 L232.99,473.57 L232.99,473.58 L233,473.59 L233.01,473.61 L233.02,473.62 L233.02,473.63 L233.03,473.65 L233.04,473.67 L233.05,473.68 L238.49,485.03 C238.56,485.16,238.56,485.18,238.56,485.21 C238.56,485.32,238.48,485.4,238.36,485.4 C238.23,485.4,238.19,485.32,238.14,485.21 L233.01,474.52 L230.89,479.45 L229.51,478.38 L229.66,478.22 L230.36,478.76 Z " /><line
           id="line15867"
           stroke-width="0.398"
           y2="485.21"
           x2="245.09"
           y1="485.21"
           x1="238.38" /><path
           id="path15869"
           style="fill:#000000;stroke-width:0"
           fill="black"
           stroke-width="0"
           d="M242.51,483.81 L242.5,483.84 L242.48,483.86 L242.47,483.88 L242.45,483.9 L242.44,483.92 L242.42,483.94 L242.4,483.96 L242.38,483.98 L242.37,483.99 L242.35,484.01 L242.33,484.03 L242.31,484.05 L242.29,484.06 L242.27,484.08 L242.25,484.09 L242.22,484.11 L242.2,484.12 L242.18,484.13 L242.15,484.14 L242.13,484.16 L242.1,484.17 L242.08,484.18 L242.05,484.18 L242.03,484.19 L242,484.2 L241.97,484.21 L241.94,484.21 L241.91,484.22 L241.89,484.22 L241.86,484.22 L241.83,484.22 L241.79,484.23 V484.03 C242.28,484.03,242.41,483.5,242.41,483.42 C242.41,483.4,242.4,483.35,242.39,483.33 L242.07,482.03 C242.02,481.83,241.86,481.69,241.71,481.56 C241.65,481.51,241.37,481.28,241.07,481.28 C240.81,481.28,240.56,481.46,240.56,481.96 C240.56,482.33,240.76,483.09,240.92,483.37 C241.24,483.93,241.6,484.03,241.79,484.03 V484.23 C240.9,484.23,240,483.24,240,482.24 C240,481.57,240.45,481.09,241.05,481.09 C241.43,481.09,241.76,481.3,242.04,481.58 C242.17,481.16,242.57,481.09,242.76,481.09 C243.01,481.09,243.18,481.24,243.3,481.46 C243.46,481.73,243.55,482.12,243.55,482.15 C243.55,482.24,243.46,482.24,243.44,482.24 C243.34,482.24,243.33,482.21,243.28,482.03 C243.2,481.69,243.07,481.28,242.78,481.28 C242.6,481.28,242.55,481.44,242.55,481.62 C242.55,481.74,242.6,481.99,242.65,482.17 C242.7,482.36,242.77,482.65,242.8,482.8 L242.94,483.33 C242.99,483.51,243.07,483.83,243.07,483.87 C243.07,484.02,242.94,484.09,242.83,484.09 C242.71,484.09,242.55,484.01,242.51,483.81 Z " /><line
           id="line15871"
           stroke-width="0.398"
           y2="479.73"
           x2="243.89"
           y1="479.73"
           x1="239.57" /><path
           id="path15873"
           style="fill:#000000;stroke-width:0"
           fill="black"
           stroke-width="0"
           d="M241.82,478.42 L241.82,478.42 L241.82,478.42 L241.82,478.42 L241.82,478.42 L241.82,478.42 L241.82,478.42 L241.82,478.42 L241.82,478.43 L241.82,478.43 L241.83,478.43 L241.83,478.44 L241.83,478.44 L241.83,478.44 L241.83,478.45 L241.83,478.45 L241.83,478.46 L241.83,478.46 L241.83,478.47 L241.84,478.48 L241.84,478.49 L241.84,478.49 L241.84,478.49 L241.84,478.5 L241.84,478.5 L241.84,478.51 L241.84,478.51 L241.84,478.51 L241.85,478.52 L241.85,478.52 L241.85,478.52 L241.85,478.52 L241.85,478.52 L241.85,478.52 L241.85,478.52 L241.85,478.53 L241.85,478.53 L241.85,478.53 L241.85,478.53 L241.85,478.53 L241.85,478.53 C241.85,478.56,241.82,478.63,241.74,478.63 C241.6,478.63,241.02,478.57,240.85,478.56 C240.79,478.55,240.69,478.54,240.69,478.4 C240.69,478.3,240.79,478.3,240.87,478.3 C241.21,478.3,241.21,478.25,241.21,478.2 C241.21,478.15,241.14,477.87,241.1,477.71 L240.93,477.07 C240.87,476.83,240.49,475.31,240.48,475.22 C240.44,475.05,240.44,474.96,240.44,474.88 C240.44,474.17,240.89,473.73,241.46,473.73 L241.47,473.92 C241.13,473.92,240.93,474.22,240.93,474.63 C240.93,474.89,241,475.13,241.19,475.91 C241.24,476.05,241.24,476.06,241.37,476.21 C241.63,476.52,241.95,476.67,242.2,476.67 C242.47,476.67,242.7,476.47,242.7,476 C242.7,475.71,242.55,475,242.34,474.6 C242.18,474.26,241.83,473.92,241.47,473.92 H241.47 L241.46,473.73 C242.34,473.73,243.26,474.68,243.26,475.7 C243.26,476.52,242.7,476.87,242.22,476.87 C241.85,476.87,241.55,476.67,241.34,476.48 Z " /></g>      <path
         id="path15875"
         inkscape:label="none"
         style="stroke-linejoin:round;stroke:#4C4C4C;stroke-linecap:round;stroke-dasharray:none;stroke-width:1.14285714286;fill:none"
         d="m -2.5 50.0 5.0 0" />
      <g
         transform="translate(-5.000000 52.500000) translate(-291.502970 574.437893) scale(1.183432 -1.183432)  "
         ns0:preamble="/home/fernando/.config/inkscape/extensions/textextLib/basicLatexPackages.tex"
         ns0:text=" $-\\sqrt{\\frac{a}{b}}$"
         text-anchor="start"
         word-spacing="normal"
         letter-spacing="normal"
         font-size-adjust="none"
         font-stretch="normal"
         font-weight="normal"
         font-variant="normal"
         font-style="normal"
         fill-opacity="1"
         fill-rule="evenodd"
         fill="none"
         stroke-opacity="1"
         stroke-dashoffset="0"
         stroke-dasharray="none"
         stroke-miterlimit="10.433"
         stroke-linejoin="miter"
         stroke-linecap="butt"
         stroke="black"
         xml:space="preserve"
         id="g15877"><path
           id="path15879"
           style="fill:#000000;stroke-width:0"
           fill="black"
           stroke-width="0"
           d="M229.99,479.52 L230.02,479.52 L230.05,479.52 L230.08,479.52 L230.1,479.52 L230.11,479.52 L230.13,479.52 L230.14,479.53 L230.16,479.53 L230.17,479.53 L230.19,479.53 L230.2,479.54 L230.21,479.54 L230.23,479.54 L230.24,479.55 L230.25,479.56 L230.26,479.56 L230.27,479.57 L230.28,479.58 L230.29,479.58 L230.3,479.59 L230.31,479.6 L230.31,479.61 L230.31,479.61 L230.32,479.62 L230.32,479.63 L230.32,479.63 L230.32,479.64 L230.33,479.65 L230.33,479.65 L230.33,479.66 L230.33,479.67 L230.33,479.68 L230.33,479.68 L230.34,479.69 L230.34,479.7 L230.34,479.71 L230.34,479.72 C230.34,479.92,230.16,479.92,229.99,479.92 H224.61 C224.44,479.92,224.26,479.92,224.26,479.72 C224.26,479.52,224.44,479.52,224.61,479.52 Z " /><path
           id="path15881"
           style="fill:#000000;stroke-width:0"
           fill="black"
           stroke-width="0"
           d="M235.4,473.48 L235.41,473.48 L235.43,473.49 L235.44,473.49 L235.45,473.49 L235.47,473.49 L235.48,473.49 L235.49,473.49 L235.5,473.49 L235.51,473.49 L235.52,473.49 L235.53,473.49 L235.54,473.49 L235.56,473.49 L235.58,473.49 L235.6,473.49 L235.61,473.49 L235.63,473.5 L235.64,473.5 L235.65,473.5 L235.67,473.5 L235.68,473.51 L235.69,473.51 L235.7,473.52 L235.71,473.52 L235.71,473.53 L235.72,473.54 L235.73,473.55 L235.74,473.55 L235.75,473.56 L235.75,473.57 L235.76,473.58 L235.77,473.59 L235.78,473.61 L235.78,473.62 L235.79,473.63 L235.8,473.65 L235.81,473.67 L235.82,473.68 L241.26,485.03 C241.33,485.16,241.33,485.18,241.33,485.21 C241.33,485.32,241.25,485.4,241.13,485.4 C241,485.4,240.96,485.32,240.91,485.21 L235.78,474.52 L233.66,479.45 L232.27,478.38 L232.43,478.22 L233.13,478.76 Z " /><line
           id="line15883"
           stroke-width="0.398"
           y2="485.21"
           x2="247.86"
           y1="485.21"
           x1="241.14" /><path
           id="path15885"
           style="fill:#000000;stroke-width:0"
           fill="black"
           stroke-width="0"
           d="M245.28,483.81 L245.26,483.84 L245.25,483.86 L245.23,483.88 L245.22,483.9 L245.2,483.92 L245.19,483.94 L245.17,483.96 L245.15,483.98 L245.13,483.99 L245.11,484.01 L245.09,484.03 L245.08,484.05 L245.05,484.06 L245.03,484.08 L245.01,484.09 L244.99,484.11 L244.97,484.12 L244.94,484.13 L244.92,484.14 L244.9,484.16 L244.87,484.17 L244.85,484.18 L244.82,484.18 L244.79,484.19 L244.77,484.2 L244.74,484.21 L244.71,484.21 L244.68,484.22 L244.65,484.22 L244.62,484.22 L244.59,484.22 L244.56,484.23 V484.03 C245.05,484.03,245.18,483.5,245.18,483.42 C245.18,483.4,245.17,483.35,245.16,483.33 L244.83,482.03 C244.78,481.83,244.63,481.69,244.48,481.56 C244.41,481.51,244.14,481.28,243.84,481.28 C243.58,481.28,243.33,481.46,243.33,481.96 C243.33,482.33,243.53,483.09,243.69,483.37 C244.01,483.93,244.37,484.03,244.56,484.03 V484.23 C243.67,484.23,242.76,483.24,242.76,482.24 C242.76,481.57,243.22,481.09,243.82,481.09 C244.19,481.09,244.53,481.3,244.8,481.58 C244.94,481.16,245.34,481.09,245.52,481.09 C245.77,481.09,245.95,481.24,246.07,481.46 C246.23,481.73,246.32,482.12,246.32,482.15 C246.32,482.24,246.23,482.24,246.2,482.24 C246.11,482.24,246.1,482.21,246.05,482.03 C245.97,481.69,245.84,481.28,245.54,481.28 C245.36,481.28,245.31,481.44,245.31,481.62 C245.31,481.74,245.37,481.99,245.42,482.17 C245.47,482.36,245.54,482.65,245.57,482.8 L245.71,483.33 C245.75,483.51,245.84,483.83,245.84,483.87 C245.84,484.02,245.71,484.09,245.6,484.09 C245.48,484.09,245.32,484.01,245.28,483.81 Z " /><line
           id="line15887"
           stroke-width="0.398"
           y2="479.73"
           x2="246.66"
           y1="479.73"
           x1="242.34" /><path
           id="path15889"
           style="fill:#000000;stroke-width:0"
           fill="black"
           stroke-width="0"
           d="M244.59,478.42 L244.59,478.42 L244.59,478.42 L244.59,478.42 L244.59,478.42 L244.59,478.42 L244.59,478.42 L244.59,478.42 L244.59,478.43 L244.59,478.43 L244.59,478.43 L244.59,478.44 L244.59,478.44 L244.6,478.44 L244.6,478.45 L244.6,478.45 L244.6,478.46 L244.6,478.46 L244.6,478.47 L244.6,478.48 L244.61,478.49 L244.61,478.49 L244.61,478.49 L244.61,478.5 L244.61,478.5 L244.61,478.51 L244.61,478.51 L244.61,478.51 L244.61,478.52 L244.61,478.52 L244.61,478.52 L244.61,478.52 L244.61,478.52 L244.61,478.52 L244.61,478.52 L244.61,478.53 L244.61,478.53 L244.61,478.53 L244.61,478.53 L244.61,478.53 L244.61,478.53 C244.61,478.56,244.59,478.63,244.5,478.63 C244.36,478.63,243.79,478.57,243.61,478.56 C243.56,478.55,243.46,478.54,243.46,478.4 C243.46,478.3,243.56,478.3,243.64,478.3 C243.97,478.3,243.97,478.25,243.97,478.2 C243.97,478.15,243.9,477.87,243.86,477.71 L243.7,477.07 C243.64,476.83,243.26,475.31,243.24,475.22 C243.21,475.05,243.21,474.96,243.21,474.88 C243.21,474.17,243.65,473.73,244.23,473.73 L244.24,473.92 C243.9,473.92,243.7,474.22,243.7,474.63 C243.7,474.89,243.76,475.13,243.96,475.91 C244,476.05,244,476.06,244.13,476.21 C244.4,476.52,244.71,476.67,244.96,476.67 C245.23,476.67,245.47,476.47,245.47,476 C245.47,475.71,245.32,475,245.11,474.6 C244.94,474.26,244.59,473.92,244.24,473.92 H244.24 L244.23,473.73 C245.1,473.73,246.03,474.68,246.03,475.7 C246.03,476.52,245.46,476.87,244.98,476.87 C244.62,476.87,244.32,476.67,244.11,476.48 Z " /></g>      <path
         id="path15891"
         inkscape:label="none"
         style="stroke-linejoin:round;stroke:#4C4C4C;stroke-linecap:round;stroke-dasharray:none;stroke-width:1.14285714286;fill:none"
         d="m -2.5 100.0 5.0 0" />
      <g
         transform="translate(-5.000000 102.500000) translate(-297.396462 574.437893) scale(1.183432 -1.183432)  "
         ns0:preamble="/home/fernando/.config/inkscape/extensions/textextLib/basicLatexPackages.tex"
         ns0:text=" $-2\\sqrt{\\frac{a}{b}}$"
         text-anchor="start"
         word-spacing="normal"
         letter-spacing="normal"
         font-size-adjust="none"
         font-stretch="normal"
         font-weight="normal"
         font-variant="normal"
         font-style="normal"
         fill-opacity="1"
         fill-rule="evenodd"
         fill="none"
         stroke-opacity="1"
         stroke-dashoffset="0"
         stroke-dasharray="none"
         stroke-miterlimit="10.433"
         stroke-linejoin="miter"
         stroke-linecap="butt"
         stroke="black"
         xml:space="preserve"
         id="g15893"><path
           id="path15895"
           style="fill:#000000;stroke-width:0"
           fill="black"
           stroke-width="0"
           d="M229.99,479.52 L230.02,479.52 L230.05,479.52 L230.08,479.52 L230.1,479.52 L230.11,479.52 L230.13,479.52 L230.14,479.53 L230.16,479.53 L230.17,479.53 L230.19,479.53 L230.2,479.54 L230.21,479.54 L230.23,479.54 L230.24,479.55 L230.25,479.56 L230.26,479.56 L230.27,479.57 L230.28,479.58 L230.29,479.58 L230.3,479.59 L230.31,479.6 L230.31,479.61 L230.31,479.61 L230.32,479.62 L230.32,479.63 L230.32,479.63 L230.32,479.64 L230.33,479.65 L230.33,479.65 L230.33,479.66 L230.33,479.67 L230.33,479.68 L230.33,479.68 L230.34,479.69 L230.34,479.7 L230.34,479.71 L230.34,479.72 C230.34,479.92,230.16,479.92,229.99,479.92 H224.61 C224.44,479.92,224.26,479.92,224.26,479.72 C224.26,479.52,224.44,479.52,224.61,479.52 Z " /><path
           id="path15897"
           style="fill:#000000;stroke-width:0"
           fill="black"
           stroke-width="0"
           d="M232.45,478 L233.5,479.02 C235.05,480.39,235.65,480.93,235.65,481.92 C235.65,483.06,234.75,483.85,233.54,483.85 C232.41,483.85,231.68,482.94,231.68,482.05 C231.68,481.5,232.18,481.5,232.21,481.5 C232.38,481.5,232.72,481.62,232.72,482.02 C232.72,482.28,232.54,482.54,232.2,482.54 C232.12,482.54,232.1,482.54,232.07,482.53 C232.29,483.17,232.83,483.54,233.41,483.54 C234.32,483.54,234.74,482.74,234.74,481.92 C234.74,481.13,234.24,480.34,233.7,479.73 L231.79,477.6 C231.68,477.49,231.68,477.47,231.68,477.23 H235.37 L235.65,478.96 H235.4 C235.35,478.67,235.28,478.23,235.18,478.08 C235.11,478,234.45,478,234.24,478 Z " /><path
           id="path15899"
           style="fill:#000000;stroke-width:0"
           fill="black"
           stroke-width="0"
           d="M240.38,473.48 L240.4,473.48 L240.41,473.49 L240.42,473.49 L240.44,473.49 L240.45,473.49 L240.46,473.49 L240.47,473.49 L240.48,473.49 L240.49,473.49 L240.51,473.49 L240.52,473.49 L240.53,473.49 L240.54,473.49 L240.56,473.49 L240.58,473.49 L240.59,473.49 L240.61,473.5 L240.62,473.5 L240.63,473.5 L240.65,473.5 L240.66,473.51 L240.67,473.51 L240.68,473.52 L240.69,473.52 L240.7,473.53 L240.7,473.54 L240.71,473.55 L240.72,473.55 L240.73,473.56 L240.73,473.57 L240.74,473.58 L240.75,473.59 L240.76,473.61 L240.76,473.62 L240.77,473.63 L240.78,473.65 L240.79,473.67 L240.8,473.68 L246.24,485.03 C246.31,485.16,246.31,485.18,246.31,485.21 C246.31,485.32,246.23,485.4,246.11,485.4 C245.98,485.4,245.94,485.32,245.89,485.21 L240.76,474.52 L238.64,479.45 L237.26,478.38 L237.41,478.22 L238.11,478.76 Z " /><line
           id="line15901"
           stroke-width="0.398"
           y2="485.21"
           x2="252.84"
           y1="485.21"
           x1="246.12" /><path
           id="path15903"
           style="fill:#000000;stroke-width:0"
           fill="black"
           stroke-width="0"
           d="M250.26,483.81 L250.25,483.84 L250.23,483.86 L250.22,483.88 L250.2,483.9 L250.18,483.92 L250.17,483.94 L250.15,483.96 L250.13,483.98 L250.11,483.99 L250.1,484.01 L250.08,484.03 L250.06,484.05 L250.04,484.06 L250.01,484.08 L249.99,484.09 L249.97,484.11 L249.95,484.12 L249.93,484.13 L249.9,484.14 L249.88,484.16 L249.85,484.17 L249.83,484.18 L249.8,484.18 L249.77,484.19 L249.75,484.2 L249.72,484.21 L249.69,484.21 L249.66,484.22 L249.63,484.22 L249.6,484.22 L249.57,484.22 L249.54,484.23 V484.03 C250.03,484.03,250.16,483.5,250.16,483.42 C250.16,483.4,250.15,483.35,250.14,483.33 L249.81,482.03 C249.76,481.83,249.61,481.69,249.46,481.56 C249.4,481.51,249.12,481.28,248.82,481.28 C248.56,481.28,248.31,481.46,248.31,481.96 C248.31,482.33,248.51,483.09,248.67,483.37 C248.99,483.93,249.35,484.03,249.54,484.03 V484.23 C248.65,484.23,247.74,483.24,247.74,482.24 C247.74,481.57,248.2,481.09,248.8,481.09 C249.17,481.09,249.51,481.3,249.79,481.58 C249.92,481.16,250.32,481.09,250.5,481.09 C250.75,481.09,250.93,481.24,251.05,481.46 C251.21,481.73,251.3,482.12,251.3,482.15 C251.3,482.24,251.21,482.24,251.18,482.24 C251.09,482.24,251.08,482.21,251.03,482.03 C250.95,481.69,250.82,481.28,250.52,481.28 C250.34,481.28,250.29,481.44,250.29,481.62 C250.29,481.74,250.35,481.99,250.4,482.17 C250.45,482.36,250.52,482.65,250.55,482.8 L250.69,483.33 C250.73,483.51,250.82,483.83,250.82,483.87 C250.82,484.02,250.69,484.09,250.58,484.09 C250.46,484.09,250.3,484.01,250.26,483.81 Z " /><line
           id="line15905"
           stroke-width="0.398"
           y2="479.73"
           x2="251.64"
           y1="479.73"
           x1="247.32" /><path
           id="path15907"
           style="fill:#000000;stroke-width:0"
           fill="black"
           stroke-width="0"
           d="M249.57,478.42 L249.57,478.42 L249.57,478.42 L249.57,478.42 L249.57,478.42 L249.57,478.42 L249.57,478.42 L249.57,478.42 L249.57,478.43 L249.57,478.43 L249.57,478.43 L249.57,478.44 L249.58,478.44 L249.58,478.44 L249.58,478.45 L249.58,478.45 L249.58,478.46 L249.58,478.46 L249.58,478.47 L249.58,478.48 L249.59,478.49 L249.59,478.49 L249.59,478.49 L249.59,478.5 L249.59,478.5 L249.59,478.51 L249.59,478.51 L249.59,478.51 L249.59,478.52 L249.59,478.52 L249.59,478.52 L249.59,478.52 L249.59,478.52 L249.59,478.52 L249.59,478.52 L249.59,478.53 L249.59,478.53 L249.59,478.53 L249.59,478.53 L249.59,478.53 L249.6,478.53 C249.6,478.56,249.57,478.63,249.48,478.63 C249.35,478.63,248.77,478.57,248.59,478.56 C248.54,478.55,248.44,478.54,248.44,478.4 C248.44,478.3,248.54,478.3,248.62,478.3 C248.96,478.3,248.96,478.25,248.96,478.2 C248.96,478.15,248.88,477.87,248.84,477.71 L248.68,477.07 C248.62,476.83,248.24,475.31,248.22,475.22 C248.19,475.05,248.19,474.96,248.19,474.88 C248.19,474.17,248.63,473.73,249.21,473.73 L249.22,473.92 C248.88,473.92,248.68,474.22,248.68,474.63 C248.68,474.89,248.75,475.13,248.94,475.91 C248.98,476.05,248.98,476.06,249.12,476.21 C249.38,476.52,249.69,476.67,249.94,476.67 C250.21,476.67,250.45,476.47,250.45,476 C250.45,475.71,250.3,475,250.09,474.6 C249.92,474.26,249.57,473.92,249.22,473.92 H249.22 L249.21,473.73 C250.08,473.73,251.01,474.68,251.01,475.7 C251.01,476.52,250.45,476.87,249.96,476.87 C249.6,476.87,249.3,476.67,249.09,476.48 Z " /></g>    </g>
    <g
       id="g15909"
       inkscape:label="Axis">
      <path
         id="path15911"
         inkscape:label="Xaxis"
         style="stroke-linejoin:round;marker-end:url(#ArrowAxisEnd);stroke:#4C4C4C;stroke-linecap:round;stroke-dasharray:none;stroke-width:1.14285714286;fill:none"
         d="M  -160.0 0.0 180.0 0.0" />
      <g
         transform="translate(176.666667 5.000000) translate(-330.946759 712.470443) scale(1.479290 -1.479290)  "
         ns0:preamble="/home/fernando/.config/inkscape/extensions/textextLib/basicLatexPackages.tex"
         ns0:text=" $x$"
         text-anchor="start"
         word-spacing="normal"
         letter-spacing="normal"
         font-size-adjust="none"
         font-stretch="normal"
         font-weight="normal"
         font-variant="normal"
         font-style="normal"
         fill-opacity="1"
         fill-rule="evenodd"
         fill="none"
         stroke-opacity="1"
         stroke-dashoffset="0"
         stroke-dasharray="none"
         stroke-miterlimit="10.433"
         stroke-linejoin="miter"
         stroke-linecap="butt"
         stroke="black"
         xml:space="preserve"
         id="g15913"><path
           id="path15915"
           style="fill:#000000;stroke-width:0"
           fill="black"
           stroke-width="0"
           d="M226.76,480.23 L226.76,480.26 L226.77,480.29 L226.78,480.32 L226.79,480.36 L226.8,480.4 L226.81,480.44 L226.82,480.48 L226.84,480.53 L226.85,480.57 L226.87,480.62 L226.89,480.67 L226.91,480.72 L226.93,480.77 L226.96,480.82 L226.98,480.87 L227.01,480.92 L227.04,480.97 L227.07,481.01 L227.1,481.06 L227.14,481.1 L227.18,481.15 L227.22,481.19 L227.26,481.23 L227.3,481.26 L227.35,481.29 L227.4,481.32 L227.42,481.33 L227.45,481.35 L227.47,481.36 L227.5,481.37 L227.53,481.38 L227.56,481.38 L227.59,481.39 L227.61,481.4 L227.65,481.4 L227.68,481.4 L227.71,481.41 L227.74,481.41 C227.79,481.41,228.03,481.41,228.24,481.28 C227.96,481.23,227.76,480.98,227.76,480.74 C227.76,480.58,227.87,480.39,228.14,480.39 C228.36,480.39,228.68,480.57,228.68,480.97 C228.68,481.49,228.09,481.63,227.75,481.63 C227.17,481.63,226.82,481.1,226.71,480.87 C226.46,481.53,225.92,481.63,225.63,481.63 C224.6,481.63,224.03,480.34,224.03,480.1 C224.03,480,224.13,480,224.15,480 C224.23,480,224.26,480.02,224.28,480.11 C224.62,481.16,225.27,481.41,225.61,481.41 C225.8,481.41,226.15,481.32,226.15,480.74 C226.15,480.43,225.98,479.77,225.61,478.38 C225.45,477.76,225.1,477.34,224.67,477.34 C224.61,477.34,224.38,477.34,224.17,477.47 C224.42,477.52,224.64,477.73,224.64,478.01 C224.64,478.28,224.42,478.36,224.27,478.36 C223.97,478.36,223.72,478.1,223.72,477.78 C223.72,477.32,224.22,477.13,224.66,477.13 C225.31,477.13,225.67,477.82,225.7,477.88 C225.82,477.51,226.18,477.13,226.77,477.13 C227.8,477.13,228.37,478.41,228.37,478.66 C228.37,478.76,228.28,478.76,228.25,478.76 C228.16,478.76,228.14,478.71,228.12,478.65 C227.79,477.58,227.11,477.34,226.79,477.34 C226.41,477.34,226.25,477.66,226.25,478 C226.25,478.22,226.31,478.44,226.42,478.87 Z " /></g>      <path
         id="path15917"
         inkscape:label="Yaxis"
         style="stroke-linejoin:round;marker-end:url(#ArrowAxisEnd);stroke:#4C4C4C;stroke-linecap:round;stroke-dasharray:none;stroke-width:1.14285714286;fill:none"
         d="M  0.0 100.0 0.0 -130.0" />
      <g
         transform="translate(5.000000 -130.000000) translate(-330.946759 716.982277) scale(1.479290 -1.479290)  "
         ns0:preamble="/home/fernando/.config/inkscape/extensions/textextLib/basicLatexPackages.tex"
         ns0:text=" $y(x)$"
         text-anchor="start"
         word-spacing="normal"
         letter-spacing="normal"
         font-size-adjust="none"
         font-stretch="normal"
         font-weight="normal"
         font-variant="normal"
         font-style="normal"
         fill-opacity="1"
         fill-rule="evenodd"
         fill="none"
         stroke-opacity="1"
         stroke-dashoffset="0"
         stroke-dasharray="none"
         stroke-miterlimit="10.433"
         stroke-linejoin="miter"
         stroke-linecap="butt"
         stroke="black"
         xml:space="preserve"
         id="g15919"><path
           id="path15921"
           style="fill:#000000;stroke-width:0"
           fill="black"
           stroke-width="0"
           d="M228.27,481.02 L228.27,481.03 L228.27,481.03 L228.27,481.04 L228.27,481.04 L228.28,481.06 L228.28,481.07 L228.28,481.08 L228.29,481.09 L228.29,481.1 L228.29,481.1 L228.29,481.11 L228.29,481.12 L228.3,481.13 L228.3,481.14 L228.3,481.14 L228.3,481.15 L228.3,481.15 L228.3,481.16 L228.3,481.17 L228.3,481.17 L228.3,481.18 L228.3,481.18 L228.31,481.19 L228.31,481.2 L228.31,481.21 L228.31,481.22 L228.31,481.23 L228.31,481.24 L228.31,481.24 L228.31,481.25 C228.31,481.43,228.17,481.52,228.02,481.52 C227.92,481.52,227.76,481.46,227.67,481.31 C227.65,481.26,227.57,480.95,227.53,480.77 C227.46,480.51,227.39,480.24,227.33,479.98 L226.88,478.19 C226.85,478.04,226.42,477.34,225.76,477.34 C225.25,477.34,225.14,477.78,225.14,478.15 C225.14,478.61,225.31,479.22,225.65,480.1 C225.81,480.5,225.85,480.61,225.85,480.81 C225.85,481.26,225.53,481.63,225.03,481.63 C224.09,481.63,223.72,480.18,223.72,480.1 C223.72,480,223.82,480,223.84,480 C223.94,480,223.95,480.02,224,480.17 C224.27,481.11,224.67,481.41,225,481.41 C225.08,481.41,225.25,481.41,225.25,481.09 C225.25,480.84,225.15,480.58,225.08,480.39 C224.69,479.34,224.51,478.77,224.51,478.31 C224.51,477.42,225.13,477.13,225.72,477.13 C226.11,477.13,226.45,477.3,226.73,477.57 C226.6,477.06,226.48,476.57,226.08,476.04 C225.82,475.7,225.44,475.42,224.98,475.42 C224.85,475.42,224.4,475.45,224.23,475.83 C224.39,475.83,224.52,475.83,224.66,475.95 C224.76,476.04,224.85,476.17,224.85,476.36 C224.85,476.67,224.59,476.71,224.49,476.71 C224.26,476.71,223.93,476.55,223.93,476.06 C223.93,475.57,224.37,475.2,224.98,475.2 C226.01,475.2,227.03,476.1,227.31,477.23 Z " /><path
           id="path15923"
           style="fill:#000000;stroke-width:0"
           fill="black"
           stroke-width="0"
           d="M231.97,474.85 L231.97,474.86 L231.97,474.86 L231.97,474.86 L231.97,474.87 L231.97,474.87 L231.96,474.87 L231.96,474.88 L231.96,474.88 L231.96,474.88 L231.96,474.89 L231.96,474.89 L231.95,474.9 L231.95,474.9 L231.95,474.91 L231.94,474.91 L231.94,474.92 L231.93,474.93 L231.93,474.93 L231.92,474.94 L231.92,474.94 L231.92,474.95 L231.91,474.95 L231.91,474.95 L231.9,474.96 L231.9,474.96 L231.9,474.97 L231.89,474.97 L231.89,474.98 L231.88,474.98 L231.88,474.99 L231.87,474.99 L231.87,475 L231.86,475.01 L231.85,475.01 L231.85,475.02 L231.84,475.03 L231.83,475.03 L231.83,475.04 L231.82,475.05 L231.81,475.05 L231.81,475.06 L231.8,475.07 C230.55,476.32,230.24,478.2,230.24,479.72 C230.24,481.45,230.61,483.17,231.84,484.42 C231.97,484.54,231.97,484.56,231.97,484.59 C231.97,484.66,231.93,484.68,231.87,484.68 C231.77,484.68,230.87,484.01,230.29,482.75 C229.78,481.66,229.66,480.55,229.66,479.72 C229.66,478.94,229.77,477.74,230.32,476.62 C230.91,475.4,231.77,474.75,231.87,474.75 C231.93,474.75,231.97,474.78,231.97,474.85 Z " /><path
           id="path15925"
           style="fill:#000000;stroke-width:0"
           fill="black"
           stroke-width="0"
           d="M235.87,480.23 L235.88,480.26 L235.88,480.29 L235.89,480.32 L235.9,480.36 L235.91,480.4 L235.92,480.44 L235.94,480.48 L235.95,480.53 L235.97,480.57 L235.99,480.62 L236,480.67 L236.03,480.72 L236.05,480.77 L236.07,480.82 L236.1,480.87 L236.13,480.92 L236.15,480.97 L236.19,481.01 L236.22,481.06 L236.25,481.1 L236.29,481.15 L236.33,481.19 L236.37,481.23 L236.42,481.26 L236.46,481.29 L236.51,481.32 L236.54,481.33 L236.56,481.35 L236.59,481.36 L236.62,481.37 L236.64,481.38 L236.67,481.38 L236.7,481.39 L236.73,481.4 L236.76,481.4 L236.79,481.4 L236.82,481.41 L236.86,481.41 C236.91,481.41,237.15,481.41,237.35,481.28 C237.07,481.23,236.88,480.98,236.88,480.74 C236.88,480.58,236.99,480.39,237.25,480.39 C237.47,480.39,237.79,480.57,237.79,480.97 C237.79,481.49,237.2,481.63,236.87,481.63 C236.29,481.63,235.94,481.1,235.82,480.87 C235.57,481.53,235.04,481.63,234.75,481.63 C233.71,481.63,233.15,480.34,233.15,480.1 C233.15,480,233.24,480,233.26,480 C233.34,480,233.37,480.02,233.39,480.11 C233.73,481.16,234.39,481.41,234.73,481.41 C234.92,481.41,235.26,481.32,235.26,480.74 C235.26,480.43,235.1,479.77,234.73,478.38 C234.57,477.76,234.22,477.34,233.78,477.34 C233.72,477.34,233.49,477.34,233.28,477.47 C233.53,477.52,233.75,477.73,233.75,478.01 C233.75,478.28,233.53,478.36,233.38,478.36 C233.09,478.36,232.84,478.1,232.84,477.78 C232.84,477.32,233.33,477.13,233.77,477.13 C234.43,477.13,234.79,477.82,234.82,477.88 C234.94,477.51,235.29,477.13,235.89,477.13 C236.92,477.13,237.48,478.41,237.48,478.66 C237.48,478.76,237.39,478.76,237.36,478.76 C237.27,478.76,237.25,478.71,237.23,478.65 C236.91,477.58,236.23,477.34,235.91,477.34 C235.52,477.34,235.36,477.66,235.36,478 C235.36,478.22,235.42,478.44,235.53,478.87 Z " /><path
           id="path15927"
           style="fill:#000000;stroke-width:0"
           fill="black"
           stroke-width="0"
           d="M241.12,479.72 L241.12,479.79 L241.12,479.87 L241.11,479.95 L241.11,480.03 L241.1,480.2 L241.09,480.37 L241.08,480.55 L241.05,480.74 L241.03,480.94 L240.99,481.14 L240.95,481.34 L240.91,481.55 L240.86,481.76 L240.79,481.97 L240.72,482.18 L240.65,482.39 L240.6,482.5 L240.56,482.61 L240.51,482.71 L240.46,482.82 C239.86,484.04,239.01,484.68,238.91,484.68 C238.85,484.68,238.81,484.65,238.81,484.59 C238.81,484.56,238.81,484.54,239,484.36 C239.97,483.37,240.54,481.8,240.54,479.72 C240.54,478.02,240.17,476.27,238.94,475.02 C238.81,474.9,238.81,474.88,238.81,474.85 C238.81,474.79,238.85,474.75,238.91,474.75 C239.01,474.75,239.9,475.43,240.49,476.69 C241,477.78,241.12,478.88,241.12,479.72 Z " /></g>    </g>
  </g>
  <text
     xml:space="preserve"
     style="font-style:normal;font-variant:normal;font-weight:normal;font-stretch:normal;font-size:12.5px;line-height:100%;font-family:Verdana;-inkscape-font-specification:Verdana;text-align:start;letter-spacing:0px;word-spacing:0px;writing-mode:lr-tb;text-anchor:start;fill:#000000;fill-opacity:1;stroke:none;stroke-width:1px;stroke-linecap:butt;stroke-linejoin:miter;stroke-opacity:1"
     x="276.90665"
     y="118.46087"
     id="text16047"
     sodipodi:linespacing="100%"><tspan
       sodipodi:role="line"
       id="tspan16049"
       x="276.90665"
       y="118.46087">X tick sufix= \pi</tspan><tspan
       sodipodi:role="line"
       x="276.90665"
       y="130.96088"
       id="tspan16051">Y tick suffix= \sqrt{\frac{a}{b}}</tspan></text>
</svg>
