<?xml version="1.0" encoding="UTF-8" standalone="no"?>
<!-- Created with Inkscape (http://www.inkscape.org/) -->

<svg
   xmlns:ns0="http://www.iki.fi/pav/software/textext/"
   xmlns:dc="http://purl.org/dc/elements/1.1/"
   xmlns:cc="http://creativecommons.org/ns#"
   xmlns:rdf="http://www.w3.org/1999/02/22-rdf-syntax-ns#"
   xmlns:svg="http://www.w3.org/2000/svg"
   xmlns="http://www.w3.org/2000/svg"
   xmlns:sodipodi="http://sodipodi.sourceforge.net/DTD/sodipodi-0.dtd"
   xmlns:inkscape="http://www.inkscape.org/namespaces/inkscape"
   width="210mm"
   height="297mm"
   viewBox="0 0 744.09448819 1052.3622047"
   id="svg2"
   version="1.1"
   inkscape:version="0.91 r"
   sodipodi:docname="xMin_xMax.svg">
  <sodipodi:namedview
     id="base"
     pagecolor="#ffffff"
     bordercolor="#666666"
     borderopacity="1.0"
     inkscape:pageopacity="0.0"
     inkscape:pageshadow="2"
     inkscape:zoom="6.805902759943"
     inkscape:cx="365.0043531012"
     inkscape:cy="552.2428767371"
     inkscape:document-units="px"
     inkscape:current-layer="svg2"
     showgrid="false"
     inkscape:object-nodes="true"
     inkscape:snap-text-baseline="true"
     inkscape:window-width="1920"
     inkscape:window-height="1062"
     inkscape:window-x="-4"
     inkscape:window-y="-6"
     inkscape:window-maximized="1" />
  <defs
     id="defs4">
    <marker
       inkscape:stockid="ArrowAxisStart"
       style="overflow:visible"
       refY="0.0"
       refX="0.0"
       orient="auto"
       id="ArrowAxisStart">
      <path
         id="path8431"
         transform="scale(0.4) rotate(0) translate(8.818,0)"
         style="stroke-width:1.0;stroke:#000000;fill:#000000;fill-rule:evenodd"
         d="M 0.0,0.0 L 5.0,-5.0 L -12.5,0.0 L 5.0,5.0 L 0.0,0.0 z " />
    </marker>
    <marker
       inkscape:stockid="ArrowAxisEnd"
       style="overflow:visible"
       refY="0.0"
       refX="0.0"
       orient="auto"
       id="ArrowAxisEnd">
      <path
         id="path8434"
         transform="scale(0.4) rotate(180) translate(8.818,0)"
         style="stroke-width:1.0;stroke:#000000;fill:#000000;fill-rule:evenodd"
         d="M 0.0,0.0 L 5.0,-5.0 L -12.5,0.0 L 5.0,5.0 L 0.0,0.0 z " />
    </marker>
  </defs>
  <metadata
     id="metadata7">
    <rdf:RDF>
      <cc:Work
         rdf:about="">
        <dc:format>image/svg+xml</dc:format>
        <dc:type
           rdf:resource="http://purl.org/dc/dcmitype/StillImage" />
        <dc:title></dc:title>
      </cc:Work>
    </rdf:RDF>
  </metadata>
  <g
     id="layer1"
     inkscape:groupmode="layer"
     inkscape:label="Layer 1" />
  <g
     id="g8438"
     inkscape:label="PlotData"
     inkscape:export-xdpi="1136.913085938"
     inkscape:export-ydpi="1136.913085938">
    <g
       id="g8440"
       transform="translate(320.000000 530.000000)"
       inkscape:label="Plot">
      <g
         id="g8442"
         inkscape:label="Ticks">
        <path
           id="path8444"
           inkscape:label="none"
           style="stroke-linejoin:round;stroke:#B2B2B2;stroke-linecap:round;stroke-dasharray:none;stroke-width:0.1;fill:none"
           d="M  -13.9794000867 0.0 -13.9794000867 -30.0" />
        <path
           id="path8446"
           inkscape:label="none"
           style="stroke-linejoin:round;stroke:#B2B2B2;stroke-linecap:round;stroke-dasharray:none;stroke-width:0.1;fill:none"
           d="M  -10.4575749056 0.0 -10.4575749056 -30.0" />
        <path
           id="path8448"
           inkscape:label="none"
           style="stroke-linejoin:round;stroke:#B2B2B2;stroke-linecap:round;stroke-dasharray:none;stroke-width:0.1;fill:none"
           d="M  -7.95880017344 0.0 -7.95880017344 -30.0" />
        <path
           id="path8450"
           inkscape:label="none"
           style="stroke-linejoin:round;stroke:#B2B2B2;stroke-linecap:round;stroke-dasharray:none;stroke-width:0.1;fill:none"
           d="M  -6.02059991328 0.0 -6.02059991328 -30.0" />
        <path
           id="path8452"
           inkscape:label="none"
           style="stroke-linejoin:round;stroke:#B2B2B2;stroke-linecap:round;stroke-dasharray:none;stroke-width:0.1;fill:none"
           d="M  -4.43697499233 0.0 -4.43697499233 -30.0" />
        <path
           id="path8454"
           inkscape:label="none"
           style="stroke-linejoin:round;stroke:#B2B2B2;stroke-linecap:round;stroke-dasharray:none;stroke-width:0.1;fill:none"
           d="M  -3.09803919971 0.0 -3.09803919971 -30.0" />
        <path
           id="path8456"
           inkscape:label="none"
           style="stroke-linejoin:round;stroke:#B2B2B2;stroke-linecap:round;stroke-dasharray:none;stroke-width:0.1;fill:none"
           d="M  -1.93820026016 0.0 -1.93820026016 -30.0" />
        <path
           id="path8458"
           inkscape:label="none"
           style="stroke-linejoin:round;stroke:#B2B2B2;stroke-linecap:round;stroke-dasharray:none;stroke-width:0.1;fill:none"
           d="M  -0.915149811214 0.0 -0.915149811214 -30.0" />
        <g
           transform="translate(-20.000000 1.250000) translate(-69.116867 143.630183) scale(0.295858 -0.295858)  "
           ns0:preamble="/home/fernando/.config/inkscape/extensions/textextLib/basicLatexPackages.tex"
           ns0:text=" $10^{-1}$"
           text-anchor="start"
           word-spacing="normal"
           letter-spacing="normal"
           font-size-adjust="none"
           font-stretch="normal"
           font-weight="normal"
           font-variant="normal"
           font-style="normal"
           fill-opacity="1"
           fill-rule="evenodd"
           fill="none"
           stroke-opacity="1"
           stroke-dashoffset="0"
           stroke-dasharray="none"
           stroke-miterlimit="10.433"
           stroke-linejoin="miter"
           stroke-linecap="butt"
           stroke="black"
           xml:space="preserve"
           id="content"><path
             id="path8461"
             style="fill:#000000;stroke-width:0"
             fill="black"
             stroke-width="0"
             d="M226.36,483.59 L226.36,483.6 L226.36,483.61 L226.36,483.63 L226.36,483.64 L226.36,483.64 L226.36,483.65 L226.36,483.66 L226.36,483.67 L226.36,483.68 L226.36,483.69 L226.36,483.7 L226.36,483.71 L226.36,483.71 L226.35,483.72 L226.35,483.73 L226.35,483.73 L226.35,483.74 L226.35,483.75 L226.35,483.76 L226.35,483.77 L226.34,483.78 L226.34,483.79 L226.34,483.8 L226.33,483.8 L226.33,483.81 L226.32,483.82 L226.32,483.82 L226.31,483.83 L226.3,483.83 L226.29,483.84 L226.29,483.84 L226.28,483.84 L226.28,483.84 L226.27,483.84 L226.27,483.84 L226.26,483.84 L226.25,483.85 L226.25,483.85 L226.24,483.85 L226.23,483.85 L226.23,483.85 L226.22,483.85 L226.21,483.85 L226.2,483.85 L226.2,483.85 L226.19,483.85 L226.18,483.85 L226.17,483.85 L226.16,483.85 L226.15,483.85 L226.14,483.85 L226.13,483.85 C225.51,483.21,224.64,483.21,224.32,483.21 V482.91 C224.52,482.91,225.1,482.91,225.62,483.17 V478.02 C225.62,477.66,225.59,477.54,224.7,477.54 H224.38 V477.23 C224.73,477.27,225.59,477.27,225.99,477.27 C226.39,477.27,227.25,477.27,227.6,477.23 V477.54 H227.28 C226.39,477.54,226.36,477.65,226.36,478.02 Z " /><path
             id="path8463"
             style="fill:#000000;stroke-width:0"
             fill="black"
             stroke-width="0"
             d="M232.99,480.41 L232.99,480.56 L232.99,480.71 L232.98,480.86 L232.98,481.01 L232.97,481.16 L232.96,481.3 L232.94,481.45 L232.92,481.6 L232.9,481.74 L232.87,481.89 L232.84,482.03 L232.8,482.18 L232.76,482.32 L232.71,482.46 L232.65,482.6 L232.62,482.67 L232.59,482.74 C232.13,483.69,231.32,483.85,230.9,483.85 C230.3,483.85,229.58,483.59,229.17,482.67 C228.85,481.98,228.8,481.21,228.8,480.41 C228.8,479.67,228.84,478.77,229.25,478.02 C229.68,477.21,230.4,477.02,230.89,477.02 V477.23 C230.5,477.23,229.92,477.48,229.74,478.44 C229.63,479.03,229.63,479.95,229.63,480.53 C229.63,481.17,229.63,481.82,229.71,482.36 C229.9,483.54,230.64,483.63,230.89,483.63 C231.22,483.63,231.88,483.45,232.07,482.47 C232.16,481.91,232.16,481.16,232.16,480.53 C232.16,479.79,232.16,479.11,232.05,478.48 C231.9,477.53,231.34,477.23,230.89,477.23 H230.89 V477.02 C231.43,477.02,232.18,477.23,232.62,478.17 C232.94,478.85,232.99,479.63,232.99,480.41 Z " /><path
             id="path8465"
             style="fill:#000000;stroke-width:0"
             fill="black"
             stroke-width="0"
             d="M238.58,482.42 L238.59,482.42 L238.6,482.42 L238.61,482.42 L238.62,482.42 L238.64,482.42 L238.66,482.42 L238.67,482.42 L238.68,482.43 L238.69,482.43 L238.7,482.43 L238.71,482.43 L238.73,482.43 L238.74,482.44 L238.75,482.44 L238.76,482.44 L238.77,482.45 L238.78,482.45 L238.79,482.46 L238.8,482.46 L238.8,482.47 L238.81,482.48 L238.82,482.48 L238.82,482.49 L238.83,482.49 L238.83,482.5 L238.83,482.5 L238.84,482.51 L238.84,482.51 L238.84,482.52 L238.84,482.52 L238.85,482.53 L238.85,482.53 L238.85,482.54 L238.85,482.55 L238.85,482.55 L238.85,482.56 L238.85,482.57 L238.85,482.57 L238.85,482.58 L238.85,482.59 C238.85,482.76,238.7,482.76,238.58,482.76 H234.43 C234.31,482.76,234.15,482.76,234.15,482.6 C234.15,482.42,234.31,482.42,234.43,482.42 Z " /><path
             id="path8467"
             style="fill:#000000;stroke-width:0"
             fill="black"
             stroke-width="0"
             d="M241.95,485.27 L241.95,485.28 L241.95,485.29 L241.95,485.3 L241.95,485.31 L241.95,485.31 L241.95,485.32 L241.95,485.33 L241.95,485.34 L241.95,485.34 L241.95,485.35 L241.95,485.36 L241.95,485.36 L241.95,485.37 L241.95,485.37 L241.95,485.38 L241.95,485.38 L241.95,485.39 L241.95,485.39 L241.94,485.4 L241.94,485.41 L241.94,485.42 L241.94,485.42 L241.93,485.43 L241.93,485.44 L241.92,485.44 L241.92,485.45 L241.91,485.45 L241.9,485.45 L241.9,485.46 L241.89,485.46 L241.88,485.46 L241.87,485.46 L241.87,485.46 L241.86,485.46 L241.85,485.46 L241.85,485.47 L241.84,485.47 L241.84,485.47 L241.83,485.47 L241.82,485.47 L241.82,485.47 L241.81,485.47 L241.8,485.47 L241.8,485.47 L241.79,485.47 L241.78,485.47 L241.77,485.47 L241.76,485.47 L241.75,485.47 L241.74,485.47 C241.3,485.03,240.67,485.02,240.38,485.02 V484.77 C240.55,484.77,241.01,484.77,241.39,484.97 V481.42 C241.39,481.19,241.39,481.1,240.69,481.1 H240.43 V480.85 C240.55,480.86,241.41,480.88,241.67,480.88 C241.88,480.88,242.76,480.86,242.91,480.85 V481.1 H242.65 C241.95,481.1,241.95,481.19,241.95,481.42 Z " /></g>        <path
           id="path8469"
           inkscape:label="none"
           style="stroke-linejoin:round;stroke:#B2B2B2;stroke-linecap:round;stroke-dasharray:none;stroke-width:0.2;fill:none"
           d="M  0.0 0.0 0.0 -30.0" />
        <path
           id="path8471"
           inkscape:label="none"
           style="stroke-linejoin:round;stroke:#B2B2B2;stroke-linecap:round;stroke-dasharray:none;stroke-width:0.1;fill:none"
           d="M  6.02059991328 0.0 6.02059991328 -30.0" />
        <path
           id="path8473"
           inkscape:label="none"
           style="stroke-linejoin:round;stroke:#B2B2B2;stroke-linecap:round;stroke-dasharray:none;stroke-width:0.1;fill:none"
           d="M  9.54242509439 0.0 9.54242509439 -30.0" />
        <path
           id="path8475"
           inkscape:label="none"
           style="stroke-linejoin:round;stroke:#B2B2B2;stroke-linecap:round;stroke-dasharray:none;stroke-width:0.1;fill:none"
           d="M  12.0411998266 0.0 12.0411998266 -30.0" />
        <path
           id="path8477"
           inkscape:label="none"
           style="stroke-linejoin:round;stroke:#B2B2B2;stroke-linecap:round;stroke-dasharray:none;stroke-width:0.1;fill:none"
           d="M  13.9794000867 0.0 13.9794000867 -30.0" />
        <path
           id="path8479"
           inkscape:label="none"
           style="stroke-linejoin:round;stroke:#B2B2B2;stroke-linecap:round;stroke-dasharray:none;stroke-width:0.1;fill:none"
           d="M  15.5630250077 0.0 15.5630250077 -30.0" />
        <path
           id="path8481"
           inkscape:label="none"
           style="stroke-linejoin:round;stroke:#B2B2B2;stroke-linecap:round;stroke-dasharray:none;stroke-width:0.1;fill:none"
           d="M  16.9019608003 0.0 16.9019608003 -30.0" />
        <path
           id="path8483"
           inkscape:label="none"
           style="stroke-linejoin:round;stroke:#B2B2B2;stroke-linecap:round;stroke-dasharray:none;stroke-width:0.1;fill:none"
           d="M  18.0617997398 0.0 18.0617997398 -30.0" />
        <path
           id="path8485"
           inkscape:label="none"
           style="stroke-linejoin:round;stroke:#B2B2B2;stroke-linecap:round;stroke-dasharray:none;stroke-width:0.1;fill:none"
           d="M  19.0848501888 0.0 19.0848501888 -30.0" />
        <path
           id="path8487"
           inkscape:label="none"
           style="stroke-linejoin:round;stroke:#4C4C4C;stroke-linecap:round;stroke-dasharray:none;stroke-width:0.285714285714;fill:none"
           d="m 0.0 -0.625 0 1.25" />
        <g
           transform="translate(0.000000 1.250000) translate(-68.241127 143.630183) scale(0.295858 -0.295858)  "
           ns0:preamble="/home/fernando/.config/inkscape/extensions/textextLib/basicLatexPackages.tex"
           ns0:text=" $10^{0}$"
           text-anchor="start"
           word-spacing="normal"
           letter-spacing="normal"
           font-size-adjust="none"
           font-stretch="normal"
           font-weight="normal"
           font-variant="normal"
           font-style="normal"
           fill-opacity="1"
           fill-rule="evenodd"
           fill="none"
           stroke-opacity="1"
           stroke-dashoffset="0"
           stroke-dasharray="none"
           stroke-miterlimit="10.433"
           stroke-linejoin="miter"
           stroke-linecap="butt"
           stroke="black"
           xml:space="preserve"
           id="g8489"><path
             id="path8491"
             style="fill:#000000;stroke-width:0"
             fill="black"
             stroke-width="0"
             d="M226.36,483.59 L226.36,483.6 L226.36,483.61 L226.36,483.63 L226.36,483.64 L226.36,483.64 L226.36,483.65 L226.36,483.66 L226.36,483.67 L226.36,483.68 L226.36,483.69 L226.36,483.7 L226.36,483.71 L226.36,483.71 L226.35,483.72 L226.35,483.73 L226.35,483.73 L226.35,483.74 L226.35,483.75 L226.35,483.76 L226.35,483.77 L226.34,483.78 L226.34,483.79 L226.34,483.8 L226.33,483.8 L226.33,483.81 L226.32,483.82 L226.32,483.82 L226.31,483.83 L226.3,483.83 L226.29,483.84 L226.29,483.84 L226.28,483.84 L226.28,483.84 L226.27,483.84 L226.27,483.84 L226.26,483.84 L226.25,483.85 L226.25,483.85 L226.24,483.85 L226.23,483.85 L226.23,483.85 L226.22,483.85 L226.21,483.85 L226.2,483.85 L226.2,483.85 L226.19,483.85 L226.18,483.85 L226.17,483.85 L226.16,483.85 L226.15,483.85 L226.14,483.85 L226.13,483.85 C225.51,483.21,224.64,483.21,224.32,483.21 V482.91 C224.52,482.91,225.1,482.91,225.62,483.17 V478.02 C225.62,477.66,225.59,477.54,224.7,477.54 H224.38 V477.23 C224.73,477.27,225.59,477.27,225.99,477.27 C226.39,477.27,227.25,477.27,227.6,477.23 V477.54 H227.28 C226.39,477.54,226.36,477.65,226.36,478.02 Z " /><path
             id="path8493"
             style="fill:#000000;stroke-width:0"
             fill="black"
             stroke-width="0"
             d="M232.99,480.41 L232.99,480.56 L232.99,480.71 L232.98,480.86 L232.98,481.01 L232.97,481.16 L232.96,481.3 L232.94,481.45 L232.92,481.6 L232.9,481.74 L232.87,481.89 L232.84,482.03 L232.8,482.18 L232.76,482.32 L232.71,482.46 L232.65,482.6 L232.62,482.67 L232.59,482.74 C232.13,483.69,231.32,483.85,230.9,483.85 C230.3,483.85,229.58,483.59,229.17,482.67 C228.85,481.98,228.8,481.21,228.8,480.41 C228.8,479.67,228.84,478.77,229.25,478.02 C229.68,477.21,230.4,477.02,230.89,477.02 V477.23 C230.5,477.23,229.92,477.48,229.74,478.44 C229.63,479.03,229.63,479.95,229.63,480.53 C229.63,481.17,229.63,481.82,229.71,482.36 C229.9,483.54,230.64,483.63,230.89,483.63 C231.22,483.63,231.88,483.45,232.07,482.47 C232.16,481.91,232.16,481.16,232.16,480.53 C232.16,479.79,232.16,479.11,232.05,478.48 C231.9,477.53,231.34,477.23,230.89,477.23 H230.89 V477.02 C231.43,477.02,232.18,477.23,232.62,478.17 C232.94,478.85,232.99,479.63,232.99,480.41 Z " /><path
             id="path8495"
             style="fill:#000000;stroke-width:0"
             fill="black"
             stroke-width="0"
             d="M236.99,483.07 L236.99,483.21 L236.98,483.35 L236.98,483.48 L236.97,483.6 L236.96,483.73 L236.94,483.85 L236.93,483.96 L236.9,484.07 L236.88,484.18 L236.85,484.29 L236.82,484.39 L236.78,484.49 L236.73,484.59 L236.69,484.68 L236.64,484.78 L236.61,484.82 L236.58,484.87 C236.36,485.19,235.93,485.47,235.37,485.47 V485.27 C235.75,485.27,236.11,485.04,236.24,484.64 C236.35,484.27,236.35,483.77,236.35,483.16 C236.35,482.64,236.35,482.13,236.26,481.69 C236.12,481.06,235.65,480.91,235.37,480.91 H235.37 C235.05,480.91,234.63,481.09,234.49,481.67 C234.39,482.08,234.39,482.64,234.39,483.16 C234.39,483.67,234.39,484.2,234.49,484.58 C234.64,485.13,235.09,485.27,235.37,485.27 V485.47 C233.76,485.47,233.76,483.57,233.76,483.07 C233.76,482.57,233.76,480.71,235.37,480.71 C236.99,480.71,236.99,482.57,236.99,483.07 Z " /></g>        <path
           id="path8497"
           inkscape:label="none"
           style="stroke-linejoin:round;stroke:#B2B2B2;stroke-linecap:round;stroke-dasharray:none;stroke-width:0.2;fill:none"
           d="M  20.0 0.0 20.0 -30.0" />
        <path
           id="path8499"
           inkscape:label="none"
           style="stroke-linejoin:round;stroke:#B2B2B2;stroke-linecap:round;stroke-dasharray:none;stroke-width:0.1;fill:none"
           d="M  26.0205999133 0.0 26.0205999133 -30.0" />
        <path
           id="path8501"
           inkscape:label="none"
           style="stroke-linejoin:round;stroke:#B2B2B2;stroke-linecap:round;stroke-dasharray:none;stroke-width:0.1;fill:none"
           d="M  29.5424250944 0.0 29.5424250944 -30.0" />
        <path
           id="path8503"
           inkscape:label="none"
           style="stroke-linejoin:round;stroke:#B2B2B2;stroke-linecap:round;stroke-dasharray:none;stroke-width:0.1;fill:none"
           d="M  32.0411998266 0.0 32.0411998266 -30.0" />
        <path
           id="path8505"
           inkscape:label="none"
           style="stroke-linejoin:round;stroke:#B2B2B2;stroke-linecap:round;stroke-dasharray:none;stroke-width:0.1;fill:none"
           d="M  33.9794000867 0.0 33.9794000867 -30.0" />
        <path
           id="path8507"
           inkscape:label="none"
           style="stroke-linejoin:round;stroke:#B2B2B2;stroke-linecap:round;stroke-dasharray:none;stroke-width:0.1;fill:none"
           d="M  35.5630250077 0.0 35.5630250077 -30.0" />
        <path
           id="path8509"
           inkscape:label="none"
           style="stroke-linejoin:round;stroke:#B2B2B2;stroke-linecap:round;stroke-dasharray:none;stroke-width:0.1;fill:none"
           d="M  36.9019608003 0.0 36.9019608003 -30.0" />
        <path
           id="path8511"
           inkscape:label="none"
           style="stroke-linejoin:round;stroke:#B2B2B2;stroke-linecap:round;stroke-dasharray:none;stroke-width:0.1;fill:none"
           d="M  38.0617997398 0.0 38.0617997398 -30.0" />
        <path
           id="path8513"
           inkscape:label="none"
           style="stroke-linejoin:round;stroke:#B2B2B2;stroke-linecap:round;stroke-dasharray:none;stroke-width:0.1;fill:none"
           d="M  39.0848501888 0.0 39.0848501888 -30.0" />
        <path
           id="path8515"
           inkscape:label="none"
           style="stroke-linejoin:round;stroke:#4C4C4C;stroke-linecap:round;stroke-dasharray:none;stroke-width:0.285714285714;fill:none"
           d="m 20.0 -0.625 0 1.25" />
        <g
           transform="translate(20.000000 1.250000) translate(-68.196748 143.630183) scale(0.295858 -0.295858)  "
           ns0:preamble="/home/fernando/.config/inkscape/extensions/textextLib/basicLatexPackages.tex"
           ns0:text=" $10^{1}$"
           text-anchor="start"
           word-spacing="normal"
           letter-spacing="normal"
           font-size-adjust="none"
           font-stretch="normal"
           font-weight="normal"
           font-variant="normal"
           font-style="normal"
           fill-opacity="1"
           fill-rule="evenodd"
           fill="none"
           stroke-opacity="1"
           stroke-dashoffset="0"
           stroke-dasharray="none"
           stroke-miterlimit="10.433"
           stroke-linejoin="miter"
           stroke-linecap="butt"
           stroke="black"
           xml:space="preserve"
           id="g8517"><path
             id="path8519"
             style="fill:#000000;stroke-width:0"
             fill="black"
             stroke-width="0"
             d="M226.36,483.59 L226.36,483.6 L226.36,483.61 L226.36,483.63 L226.36,483.64 L226.36,483.64 L226.36,483.65 L226.36,483.66 L226.36,483.67 L226.36,483.68 L226.36,483.69 L226.36,483.7 L226.36,483.71 L226.36,483.71 L226.35,483.72 L226.35,483.73 L226.35,483.73 L226.35,483.74 L226.35,483.75 L226.35,483.76 L226.35,483.77 L226.34,483.78 L226.34,483.79 L226.34,483.8 L226.33,483.8 L226.33,483.81 L226.32,483.82 L226.32,483.82 L226.31,483.83 L226.3,483.83 L226.29,483.84 L226.29,483.84 L226.28,483.84 L226.28,483.84 L226.27,483.84 L226.27,483.84 L226.26,483.84 L226.25,483.85 L226.25,483.85 L226.24,483.85 L226.23,483.85 L226.23,483.85 L226.22,483.85 L226.21,483.85 L226.2,483.85 L226.2,483.85 L226.19,483.85 L226.18,483.85 L226.17,483.85 L226.16,483.85 L226.15,483.85 L226.14,483.85 L226.13,483.85 C225.51,483.21,224.64,483.21,224.32,483.21 V482.91 C224.52,482.91,225.1,482.91,225.62,483.17 V478.02 C225.62,477.66,225.59,477.54,224.7,477.54 H224.38 V477.23 C224.73,477.27,225.59,477.27,225.99,477.27 C226.39,477.27,227.25,477.27,227.6,477.23 V477.54 H227.28 C226.39,477.54,226.36,477.65,226.36,478.02 Z " /><path
             id="path8521"
             style="fill:#000000;stroke-width:0"
             fill="black"
             stroke-width="0"
             d="M232.99,480.41 L232.99,480.56 L232.99,480.71 L232.98,480.86 L232.98,481.01 L232.97,481.16 L232.96,481.3 L232.94,481.45 L232.92,481.6 L232.9,481.74 L232.87,481.89 L232.84,482.03 L232.8,482.18 L232.76,482.32 L232.71,482.46 L232.65,482.6 L232.62,482.67 L232.59,482.74 C232.13,483.69,231.32,483.85,230.9,483.85 C230.3,483.85,229.58,483.59,229.17,482.67 C228.85,481.98,228.8,481.21,228.8,480.41 C228.8,479.67,228.84,478.77,229.25,478.02 C229.68,477.21,230.4,477.02,230.89,477.02 V477.23 C230.5,477.23,229.92,477.48,229.74,478.44 C229.63,479.03,229.63,479.95,229.63,480.53 C229.63,481.17,229.63,481.82,229.71,482.36 C229.9,483.54,230.64,483.63,230.89,483.63 C231.22,483.63,231.88,483.45,232.07,482.47 C232.16,481.91,232.16,481.16,232.16,480.53 C232.16,479.79,232.16,479.11,232.05,478.48 C231.9,477.53,231.34,477.23,230.89,477.23 H230.89 V477.02 C231.43,477.02,232.18,477.23,232.62,478.17 C232.94,478.85,232.99,479.63,232.99,480.41 Z " /><path
             id="path8523"
             style="fill:#000000;stroke-width:0"
             fill="black"
             stroke-width="0"
             d="M235.73,485.27 L235.73,485.28 L235.73,485.29 L235.73,485.3 L235.73,485.31 L235.73,485.31 L235.73,485.32 L235.73,485.33 L235.73,485.34 L235.73,485.34 L235.73,485.35 L235.73,485.36 L235.73,485.36 L235.72,485.37 L235.72,485.37 L235.72,485.38 L235.72,485.38 L235.72,485.39 L235.72,485.39 L235.72,485.4 L235.72,485.41 L235.71,485.42 L235.71,485.42 L235.71,485.43 L235.7,485.44 L235.7,485.44 L235.69,485.45 L235.68,485.45 L235.68,485.45 L235.67,485.46 L235.66,485.46 L235.65,485.46 L235.64,485.46 L235.64,485.46 L235.63,485.46 L235.63,485.46 L235.62,485.47 L235.62,485.47 L235.61,485.47 L235.6,485.47 L235.6,485.47 L235.59,485.47 L235.58,485.47 L235.58,485.47 L235.57,485.47 L235.56,485.47 L235.55,485.47 L235.55,485.47 L235.54,485.47 L235.53,485.47 L235.52,485.47 C235.07,485.03,234.44,485.02,234.15,485.02 V484.77 C234.32,484.77,234.78,484.77,235.16,484.97 V481.42 C235.16,481.19,235.16,481.1,234.47,481.1 H234.2 V480.85 C234.33,480.86,235.18,480.88,235.44,480.88 C235.66,480.88,236.54,480.86,236.69,480.85 V481.1 H236.43 C235.73,481.1,235.73,481.19,235.73,481.42 Z " /></g>        <path
           id="path8525"
           inkscape:label="none"
           style="stroke-linejoin:round;stroke:#B2B2B2;stroke-linecap:round;stroke-dasharray:none;stroke-width:0.2;fill:none"
           d="M  40.0 0.0 40.0 -30.0" />
        <path
           id="path8527"
           inkscape:label="none"
           style="stroke-linejoin:round;stroke:#4C4C4C;stroke-linecap:round;stroke-dasharray:none;stroke-width:0.285714285714;fill:none"
           d="m 40.0 -0.625 0 1.25" />
        <g
           transform="translate(40.000000 1.250000) translate(-68.229293 143.630183) scale(0.295858 -0.295858)  "
           ns0:preamble="/home/fernando/.config/inkscape/extensions/textextLib/basicLatexPackages.tex"
           ns0:text=" $10^{2}$"
           text-anchor="start"
           word-spacing="normal"
           letter-spacing="normal"
           font-size-adjust="none"
           font-stretch="normal"
           font-weight="normal"
           font-variant="normal"
           font-style="normal"
           fill-opacity="1"
           fill-rule="evenodd"
           fill="none"
           stroke-opacity="1"
           stroke-dashoffset="0"
           stroke-dasharray="none"
           stroke-miterlimit="10.433"
           stroke-linejoin="miter"
           stroke-linecap="butt"
           stroke="black"
           xml:space="preserve"
           id="g8529"><path
             id="path8531"
             style="fill:#000000;stroke-width:0"
             fill="black"
             stroke-width="0"
             d="M226.36,483.59 L226.36,483.6 L226.36,483.61 L226.36,483.63 L226.36,483.64 L226.36,483.64 L226.36,483.65 L226.36,483.66 L226.36,483.67 L226.36,483.68 L226.36,483.69 L226.36,483.7 L226.36,483.71 L226.36,483.71 L226.35,483.72 L226.35,483.73 L226.35,483.73 L226.35,483.74 L226.35,483.75 L226.35,483.76 L226.35,483.77 L226.34,483.78 L226.34,483.79 L226.34,483.8 L226.33,483.8 L226.33,483.81 L226.32,483.82 L226.32,483.82 L226.31,483.83 L226.3,483.83 L226.29,483.84 L226.29,483.84 L226.28,483.84 L226.28,483.84 L226.27,483.84 L226.27,483.84 L226.26,483.84 L226.25,483.85 L226.25,483.85 L226.24,483.85 L226.23,483.85 L226.23,483.85 L226.22,483.85 L226.21,483.85 L226.2,483.85 L226.2,483.85 L226.19,483.85 L226.18,483.85 L226.17,483.85 L226.16,483.85 L226.15,483.85 L226.14,483.85 L226.13,483.85 C225.51,483.21,224.64,483.21,224.32,483.21 V482.91 C224.52,482.91,225.1,482.91,225.62,483.17 V478.02 C225.62,477.66,225.59,477.54,224.7,477.54 H224.38 V477.23 C224.73,477.27,225.59,477.27,225.99,477.27 C226.39,477.27,227.25,477.27,227.6,477.23 V477.54 H227.28 C226.39,477.54,226.36,477.65,226.36,478.02 Z " /><path
             id="path8533"
             style="fill:#000000;stroke-width:0"
             fill="black"
             stroke-width="0"
             d="M232.99,480.41 L232.99,480.56 L232.99,480.71 L232.98,480.86 L232.98,481.01 L232.97,481.16 L232.96,481.3 L232.94,481.45 L232.92,481.6 L232.9,481.74 L232.87,481.89 L232.84,482.03 L232.8,482.18 L232.76,482.32 L232.71,482.46 L232.65,482.6 L232.62,482.67 L232.59,482.74 C232.13,483.69,231.32,483.85,230.9,483.85 C230.3,483.85,229.58,483.59,229.17,482.67 C228.85,481.98,228.8,481.21,228.8,480.41 C228.8,479.67,228.84,478.77,229.25,478.02 C229.68,477.21,230.4,477.02,230.89,477.02 V477.23 C230.5,477.23,229.92,477.48,229.74,478.44 C229.63,479.03,229.63,479.95,229.63,480.53 C229.63,481.17,229.63,481.82,229.71,482.36 C229.9,483.54,230.64,483.63,230.89,483.63 C231.22,483.63,231.88,483.45,232.07,482.47 C232.16,481.91,232.16,481.16,232.16,480.53 C232.16,479.79,232.16,479.11,232.05,478.48 C231.9,477.53,231.34,477.23,230.89,477.23 H230.89 V477.02 C231.43,477.02,232.18,477.23,232.62,478.17 C232.94,478.85,232.99,479.63,232.99,480.41 Z " /><path
             id="path8535"
             style="fill:#000000;stroke-width:0"
             fill="black"
             stroke-width="0"
             d="M236.91,482.12 H236.68 C236.65,481.96,236.59,481.55,236.49,481.48 C236.44,481.44,235.9,481.44,235.8,481.44 H234.52 C235.26,482.09,235.5,482.28,235.92,482.61 C236.43,483.02,236.91,483.45,236.91,484.11 C236.91,484.95,236.17,485.47,235.28,485.47 C234.42,485.47,233.83,484.86,233.83,484.22 C233.83,483.87,234.13,483.83,234.2,483.83 C234.37,483.83,234.57,483.95,234.57,484.2 C234.57,484.33,234.52,484.57,234.16,484.57 C234.38,485.07,234.85,485.22,235.18,485.22 C235.87,485.22,236.24,484.68,236.24,484.11 C236.24,483.51,235.8,483.03,235.58,482.78 L233.9,481.12 C233.83,481.06,233.83,481.05,233.83,480.85 H236.7 Z " /></g>        <g
           transform="translate(-21.250000 0.000000) translate(-67.458583 142.140538) scale(0.295858 -0.295858)  "
           ns0:preamble="/home/fernando/.config/inkscape/extensions/textextLib/basicLatexPackages.tex"
           ns0:text=" $0$"
           text-anchor="start"
           word-spacing="normal"
           letter-spacing="normal"
           font-size-adjust="none"
           font-stretch="normal"
           font-weight="normal"
           font-variant="normal"
           font-style="normal"
           fill-opacity="1"
           fill-rule="evenodd"
           fill="none"
           stroke-opacity="1"
           stroke-dashoffset="0"
           stroke-dasharray="none"
           stroke-miterlimit="10.433"
           stroke-linejoin="miter"
           stroke-linecap="butt"
           stroke="black"
           xml:space="preserve"
           id="g8537"><path
             id="path8539"
             style="fill:#000000;stroke-width:0"
             fill="black"
             stroke-width="0"
             d="M228.01,480.41 L228.01,480.56 L228.01,480.71 L228,480.86 L228,481.01 L227.99,481.16 L227.97,481.3 L227.96,481.45 L227.94,481.6 L227.92,481.74 L227.89,481.89 L227.86,482.03 L227.82,482.18 L227.78,482.32 L227.73,482.46 L227.67,482.6 L227.64,482.67 L227.61,482.74 C227.15,483.69,226.34,483.85,225.92,483.85 C225.32,483.85,224.6,483.59,224.19,482.67 C223.87,481.98,223.82,481.21,223.82,480.41 C223.82,479.67,223.86,478.77,224.27,478.02 C224.7,477.21,225.42,477.02,225.91,477.02 V477.23 C225.52,477.23,224.93,477.48,224.76,478.44 C224.65,479.03,224.65,479.95,224.65,480.53 C224.65,481.17,224.65,481.82,224.73,482.36 C224.91,483.54,225.66,483.63,225.91,483.63 C226.24,483.63,226.89,483.45,227.08,482.47 C227.18,481.91,227.18,481.16,227.18,480.53 C227.18,479.79,227.18,479.11,227.07,478.48 C226.92,477.53,226.36,477.23,225.91,477.23 H225.91 V477.02 C226.45,477.02,227.2,477.23,227.64,478.17 C227.96,478.85,228.01,479.63,228.01,480.41 Z " /></g>        <path
           id="path8541"
           inkscape:label="none"
           style="stroke-linejoin:round;stroke:#B2B2B2;stroke-linecap:round;stroke-dasharray:none;stroke-width:0.2;fill:none"
           d="M  -20.0 -10.0 40.0 -10.0" />
        <path
           id="path8543"
           inkscape:label="none"
           style="stroke-linejoin:round;stroke:#4C4C4C;stroke-linecap:round;stroke-dasharray:none;stroke-width:0.285714285714;fill:none"
           d="m -20.625 -10.0 1.25 0" />
        <g
           transform="translate(-21.250000 -10.000000) translate(-68.931955 142.140538) scale(0.295858 -0.295858)  "
           ns0:preamble="/home/fernando/.config/inkscape/extensions/textextLib/basicLatexPackages.tex"
           ns0:text=" $50$"
           text-anchor="start"
           word-spacing="normal"
           letter-spacing="normal"
           font-size-adjust="none"
           font-stretch="normal"
           font-weight="normal"
           font-variant="normal"
           font-style="normal"
           fill-opacity="1"
           fill-rule="evenodd"
           fill="none"
           stroke-opacity="1"
           stroke-dashoffset="0"
           stroke-dasharray="none"
           stroke-miterlimit="10.433"
           stroke-linejoin="miter"
           stroke-linecap="butt"
           stroke="black"
           xml:space="preserve"
           id="g8545"><path
             id="path8547"
             style="fill:#000000;stroke-width:0"
             fill="black"
             stroke-width="0"
             d="M227.9,479.23 L227.9,479.34 L227.89,479.45 L227.88,479.56 L227.86,479.66 L227.84,479.77 L227.82,479.87 L227.79,479.97 L227.75,480.07 L227.72,480.17 L227.68,480.26 L227.63,480.35 L227.58,480.44 L227.53,480.53 L227.48,480.61 L227.42,480.69 L227.36,480.76 L227.29,480.84 L227.22,480.9 L227.15,480.97 L227.08,481.03 L227,481.09 L226.92,481.14 L226.84,481.19 L226.76,481.23 L226.67,481.27 L226.58,481.31 L226.49,481.34 L226.4,481.36 L226.3,481.38 L226.21,481.4 L226.11,481.4 L226.01,481.41 C225.53,481.41,225.1,481.25,224.74,480.9 V482.84 C224.94,482.78,225.27,482.71,225.59,482.71 C226.82,482.71,227.51,483.61,227.51,483.74 C227.51,483.8,227.48,483.85,227.41,483.85 C227.4,483.85,227.38,483.85,227.33,483.82 C227.13,483.73,226.65,483.53,225.98,483.53 C225.58,483.53,225.12,483.6,224.66,483.81 C224.58,483.84,224.56,483.84,224.54,483.84 C224.44,483.84,224.44,483.76,224.44,483.6 V480.66 C224.44,480.48,224.44,480.4,224.58,480.4 C224.65,480.4,224.67,480.43,224.71,480.49 C224.82,480.65,225.18,481.19,225.99,481.19 C226.51,481.19,226.76,480.73,226.84,480.55 C226.99,480.18,227.01,479.8,227.01,479.3 C227.01,478.95,227.01,478.36,226.77,477.94 C226.54,477.55,226.17,477.3,225.71,477.3 C224.98,477.3,224.42,477.82,224.25,478.41 C224.28,478.4,224.31,478.39,224.42,478.39 C224.74,478.39,224.91,478.64,224.91,478.87 C224.91,479.11,224.74,479.36,224.42,479.36 C224.28,479.36,223.93,479.29,223.93,478.83 C223.93,477.98,224.62,477.02,225.73,477.02 C226.88,477.02,227.9,477.97,227.9,479.23 Z " /><path
             id="path8549"
             style="fill:#000000;stroke-width:0"
             fill="black"
             stroke-width="0"
             d="M232.99,480.41 L232.99,480.56 L232.99,480.71 L232.98,480.86 L232.98,481.01 L232.97,481.16 L232.96,481.3 L232.94,481.45 L232.92,481.6 L232.9,481.74 L232.87,481.89 L232.84,482.03 L232.8,482.18 L232.76,482.32 L232.71,482.46 L232.65,482.6 L232.62,482.67 L232.59,482.74 C232.13,483.69,231.32,483.85,230.9,483.85 C230.3,483.85,229.58,483.59,229.17,482.67 C228.85,481.98,228.8,481.21,228.8,480.41 C228.8,479.67,228.84,478.77,229.25,478.02 C229.68,477.21,230.4,477.02,230.89,477.02 V477.23 C230.5,477.23,229.92,477.48,229.74,478.44 C229.63,479.03,229.63,479.95,229.63,480.53 C229.63,481.17,229.63,481.82,229.71,482.36 C229.9,483.54,230.64,483.63,230.89,483.63 C231.22,483.63,231.88,483.45,232.07,482.47 C232.16,481.91,232.16,481.16,232.16,480.53 C232.16,479.79,232.16,479.11,232.05,478.48 C231.9,477.53,231.34,477.23,230.89,477.23 H230.89 V477.02 C231.43,477.02,232.18,477.23,232.62,478.17 C232.94,478.85,232.99,479.63,232.99,480.41 Z " /></g>        <path
           id="path8551"
           inkscape:label="none"
           style="stroke-linejoin:round;stroke:#B2B2B2;stroke-linecap:round;stroke-dasharray:none;stroke-width:0.2;fill:none"
           d="M  -20.0 -20.0 40.0 -20.0" />
        <path
           id="path8553"
           inkscape:label="none"
           style="stroke-linejoin:round;stroke:#4C4C4C;stroke-linecap:round;stroke-dasharray:none;stroke-width:0.285714285714;fill:none"
           d="m -20.625 -20.0 1.25 0" />
        <g
           transform="translate(-21.250000 -20.000000) translate(-70.405328 142.140538) scale(0.295858 -0.295858)  "
           ns0:preamble="/home/fernando/.config/inkscape/extensions/textextLib/basicLatexPackages.tex"
           ns0:text=" $100$"
           text-anchor="start"
           word-spacing="normal"
           letter-spacing="normal"
           font-size-adjust="none"
           font-stretch="normal"
           font-weight="normal"
           font-variant="normal"
           font-style="normal"
           fill-opacity="1"
           fill-rule="evenodd"
           fill="none"
           stroke-opacity="1"
           stroke-dashoffset="0"
           stroke-dasharray="none"
           stroke-miterlimit="10.433"
           stroke-linejoin="miter"
           stroke-linecap="butt"
           stroke="black"
           xml:space="preserve"
           id="g8555"><path
             id="path8557"
             style="fill:#000000;stroke-width:0"
             fill="black"
             stroke-width="0"
             d="M226.36,483.59 L226.36,483.6 L226.36,483.61 L226.36,483.63 L226.36,483.64 L226.36,483.64 L226.36,483.65 L226.36,483.66 L226.36,483.67 L226.36,483.68 L226.36,483.69 L226.36,483.7 L226.36,483.71 L226.36,483.71 L226.35,483.72 L226.35,483.73 L226.35,483.73 L226.35,483.74 L226.35,483.75 L226.35,483.76 L226.35,483.77 L226.34,483.78 L226.34,483.79 L226.34,483.8 L226.33,483.8 L226.33,483.81 L226.32,483.82 L226.32,483.82 L226.31,483.83 L226.3,483.83 L226.29,483.84 L226.29,483.84 L226.28,483.84 L226.28,483.84 L226.27,483.84 L226.27,483.84 L226.26,483.84 L226.25,483.85 L226.25,483.85 L226.24,483.85 L226.23,483.85 L226.23,483.85 L226.22,483.85 L226.21,483.85 L226.2,483.85 L226.2,483.85 L226.19,483.85 L226.18,483.85 L226.17,483.85 L226.16,483.85 L226.15,483.85 L226.14,483.85 L226.13,483.85 C225.51,483.21,224.64,483.21,224.32,483.21 V482.91 C224.52,482.91,225.1,482.91,225.62,483.17 V478.02 C225.62,477.66,225.59,477.54,224.7,477.54 H224.38 V477.23 C224.73,477.27,225.59,477.27,225.99,477.27 C226.39,477.27,227.25,477.27,227.6,477.23 V477.54 H227.28 C226.39,477.54,226.36,477.65,226.36,478.02 Z " /><path
             id="path8559"
             style="fill:#000000;stroke-width:0"
             fill="black"
             stroke-width="0"
             d="M232.99,480.41 L232.99,480.56 L232.99,480.71 L232.98,480.86 L232.98,481.01 L232.97,481.16 L232.96,481.3 L232.94,481.45 L232.92,481.6 L232.9,481.74 L232.87,481.89 L232.84,482.03 L232.8,482.18 L232.76,482.32 L232.71,482.46 L232.65,482.6 L232.62,482.67 L232.59,482.74 C232.13,483.69,231.32,483.85,230.9,483.85 C230.3,483.85,229.58,483.59,229.17,482.67 C228.85,481.98,228.8,481.21,228.8,480.41 C228.8,479.67,228.84,478.77,229.25,478.02 C229.68,477.21,230.4,477.02,230.89,477.02 V477.23 C230.5,477.23,229.92,477.48,229.74,478.44 C229.63,479.03,229.63,479.95,229.63,480.53 C229.63,481.17,229.63,481.82,229.71,482.36 C229.9,483.54,230.64,483.63,230.89,483.63 C231.22,483.63,231.88,483.45,232.07,482.47 C232.16,481.91,232.16,481.16,232.16,480.53 C232.16,479.79,232.16,479.11,232.05,478.48 C231.9,477.53,231.34,477.23,230.89,477.23 H230.89 V477.02 C231.43,477.02,232.18,477.23,232.62,478.17 C232.94,478.85,232.99,479.63,232.99,480.41 Z " /><path
             id="path8561"
             style="fill:#000000;stroke-width:0"
             fill="black"
             stroke-width="0"
             d="M237.97,480.41 L237.97,480.56 L237.97,480.71 L237.96,480.86 L237.96,481.01 L237.95,481.16 L237.94,481.3 L237.92,481.45 L237.9,481.6 L237.88,481.74 L237.85,481.89 L237.82,482.03 L237.78,482.18 L237.74,482.32 L237.69,482.46 L237.63,482.6 L237.6,482.67 L237.57,482.74 C237.12,483.69,236.3,483.85,235.88,483.85 C235.29,483.85,234.56,483.59,234.15,482.67 C233.83,481.98,233.78,481.21,233.78,480.41 C233.78,479.67,233.82,478.77,234.23,478.02 C234.66,477.21,235.38,477.02,235.87,477.02 V477.23 C235.48,477.23,234.9,477.48,234.72,478.44 C234.61,479.03,234.61,479.95,234.61,480.53 C234.61,481.17,234.61,481.82,234.69,482.36 C234.88,483.54,235.62,483.63,235.87,483.63 C236.2,483.63,236.86,483.45,237.05,482.47 C237.15,481.91,237.15,481.16,237.15,480.53 C237.15,479.79,237.15,479.11,237.04,478.48 C236.89,477.53,236.32,477.23,235.87,477.23 H235.87 V477.02 C236.41,477.02,237.16,477.23,237.6,478.17 C237.92,478.85,237.97,479.63,237.97,480.41 Z " /></g>        <path
           id="path8563"
           inkscape:label="none"
           style="stroke-linejoin:round;stroke:#B2B2B2;stroke-linecap:round;stroke-dasharray:none;stroke-width:0.2;fill:none"
           d="M  -20.0 -30.0 40.0 -30.0" />
        <path
           id="path8565"
           inkscape:label="none"
           style="stroke-linejoin:round;stroke:#4C4C4C;stroke-linecap:round;stroke-dasharray:none;stroke-width:0.285714285714;fill:none"
           d="m -20.625 -30.0 1.25 0" />
        <g
           transform="translate(-21.250000 -30.000000) translate(-70.405328 142.140538) scale(0.295858 -0.295858)  "
           ns0:preamble="/home/fernando/.config/inkscape/extensions/textextLib/basicLatexPackages.tex"
           ns0:text=" $150$"
           text-anchor="start"
           word-spacing="normal"
           letter-spacing="normal"
           font-size-adjust="none"
           font-stretch="normal"
           font-weight="normal"
           font-variant="normal"
           font-style="normal"
           fill-opacity="1"
           fill-rule="evenodd"
           fill="none"
           stroke-opacity="1"
           stroke-dashoffset="0"
           stroke-dasharray="none"
           stroke-miterlimit="10.433"
           stroke-linejoin="miter"
           stroke-linecap="butt"
           stroke="black"
           xml:space="preserve"
           id="g8567"><path
             id="path8569"
             style="fill:#000000;stroke-width:0"
             fill="black"
             stroke-width="0"
             d="M226.36,483.59 L226.36,483.6 L226.36,483.61 L226.36,483.63 L226.36,483.64 L226.36,483.64 L226.36,483.65 L226.36,483.66 L226.36,483.67 L226.36,483.68 L226.36,483.69 L226.36,483.7 L226.36,483.71 L226.36,483.71 L226.35,483.72 L226.35,483.73 L226.35,483.73 L226.35,483.74 L226.35,483.75 L226.35,483.76 L226.35,483.77 L226.34,483.78 L226.34,483.79 L226.34,483.8 L226.33,483.8 L226.33,483.81 L226.32,483.82 L226.32,483.82 L226.31,483.83 L226.3,483.83 L226.29,483.84 L226.29,483.84 L226.28,483.84 L226.28,483.84 L226.27,483.84 L226.27,483.84 L226.26,483.84 L226.25,483.85 L226.25,483.85 L226.24,483.85 L226.23,483.85 L226.23,483.85 L226.22,483.85 L226.21,483.85 L226.2,483.85 L226.2,483.85 L226.19,483.85 L226.18,483.85 L226.17,483.85 L226.16,483.85 L226.15,483.85 L226.14,483.85 L226.13,483.85 C225.51,483.21,224.64,483.21,224.32,483.21 V482.91 C224.52,482.91,225.1,482.91,225.62,483.17 V478.02 C225.62,477.66,225.59,477.54,224.7,477.54 H224.38 V477.23 C224.73,477.27,225.59,477.27,225.99,477.27 C226.39,477.27,227.25,477.27,227.6,477.23 V477.54 H227.28 C226.39,477.54,226.36,477.65,226.36,478.02 Z " /><path
             id="path8571"
             style="fill:#000000;stroke-width:0"
             fill="black"
             stroke-width="0"
             d="M232.88,479.23 L232.88,479.34 L232.87,479.45 L232.86,479.56 L232.84,479.66 L232.82,479.77 L232.8,479.87 L232.77,479.97 L232.74,480.07 L232.7,480.17 L232.66,480.26 L232.61,480.35 L232.57,480.44 L232.51,480.53 L232.46,480.61 L232.4,480.69 L232.34,480.76 L232.27,480.84 L232.21,480.9 L232.13,480.97 L232.06,481.03 L231.98,481.09 L231.9,481.14 L231.82,481.19 L231.74,481.23 L231.65,481.27 L231.56,481.31 L231.47,481.34 L231.38,481.36 L231.29,481.38 L231.19,481.4 L231.09,481.4 L230.99,481.41 C230.51,481.41,230.09,481.25,229.73,480.9 V482.84 C229.93,482.78,230.25,482.71,230.57,482.71 C231.8,482.71,232.49,483.61,232.49,483.74 C232.49,483.8,232.46,483.85,232.39,483.85 C232.38,483.85,232.36,483.85,232.31,483.82 C232.11,483.73,231.63,483.53,230.96,483.53 C230.56,483.53,230.1,483.6,229.64,483.81 C229.56,483.84,229.54,483.84,229.52,483.84 C229.42,483.84,229.42,483.76,229.42,483.6 V480.66 C229.42,480.48,229.42,480.4,229.56,480.4 C229.63,480.4,229.65,480.43,229.69,480.49 C229.8,480.65,230.16,481.19,230.97,481.19 C231.49,481.19,231.74,480.73,231.82,480.55 C231.98,480.18,231.99,479.8,231.99,479.3 C231.99,478.95,231.99,478.36,231.76,477.94 C231.52,477.55,231.15,477.3,230.69,477.3 C229.96,477.3,229.4,477.82,229.23,478.41 C229.26,478.4,229.29,478.39,229.4,478.39 C229.73,478.39,229.9,478.64,229.9,478.87 C229.9,479.11,229.73,479.36,229.4,479.36 C229.26,479.36,228.91,479.29,228.91,478.83 C228.91,477.98,229.6,477.02,230.71,477.02 C231.87,477.02,232.88,477.97,232.88,479.23 Z " /><path
             id="path8573"
             style="fill:#000000;stroke-width:0"
             fill="black"
             stroke-width="0"
             d="M237.97,480.41 L237.97,480.56 L237.97,480.71 L237.96,480.86 L237.96,481.01 L237.95,481.16 L237.94,481.3 L237.92,481.45 L237.9,481.6 L237.88,481.74 L237.85,481.89 L237.82,482.03 L237.78,482.18 L237.74,482.32 L237.69,482.46 L237.63,482.6 L237.6,482.67 L237.57,482.74 C237.12,483.69,236.3,483.85,235.88,483.85 C235.29,483.85,234.56,483.59,234.15,482.67 C233.83,481.98,233.78,481.21,233.78,480.41 C233.78,479.67,233.82,478.77,234.23,478.02 C234.66,477.21,235.38,477.02,235.87,477.02 V477.23 C235.48,477.23,234.9,477.48,234.72,478.44 C234.61,479.03,234.61,479.95,234.61,480.53 C234.61,481.17,234.61,481.82,234.69,482.36 C234.88,483.54,235.62,483.63,235.87,483.63 C236.2,483.63,236.86,483.45,237.05,482.47 C237.15,481.91,237.15,481.16,237.15,480.53 C237.15,479.79,237.15,479.11,237.04,478.48 C236.89,477.53,236.32,477.23,235.87,477.23 H235.87 V477.02 C236.41,477.02,237.16,477.23,237.6,478.17 C237.92,478.85,237.97,479.63,237.97,480.41 Z " /></g>      </g>
      <g
         id="g8575"
         inkscape:label="Axis">
        <path
           id="path8577"
           inkscape:label="Xaxis"
           style="stroke-linejoin:round;marker-end:url(#ArrowAxisEnd);stroke:#4C4C4C;stroke-linecap:round;stroke-dasharray:none;stroke-width:0.285714285714;fill:none"
           d="M  -20.0 0.0 45.0 0.0" />
        <g
           transform="translate(44.166667 1.250000) translate(-82.736578 178.117370) scale(0.369822 -0.369822)  "
           ns0:preamble="/home/fernando/.config/inkscape/extensions/textextLib/basicLatexPackages.tex"
           ns0:text=" $x$"
           text-anchor="start"
           word-spacing="normal"
           letter-spacing="normal"
           font-size-adjust="none"
           font-stretch="normal"
           font-weight="normal"
           font-variant="normal"
           font-style="normal"
           fill-opacity="1"
           fill-rule="evenodd"
           fill="none"
           stroke-opacity="1"
           stroke-dashoffset="0"
           stroke-dasharray="none"
           stroke-miterlimit="10.433"
           stroke-linejoin="miter"
           stroke-linecap="butt"
           stroke="black"
           xml:space="preserve"
           id="g8579"><path
             id="path8581"
             style="fill:#000000;stroke-width:0"
             fill="black"
             stroke-width="0"
             d="M226.76,480.23 L226.76,480.26 L226.77,480.29 L226.78,480.32 L226.79,480.36 L226.8,480.4 L226.81,480.44 L226.82,480.48 L226.84,480.53 L226.85,480.57 L226.87,480.62 L226.89,480.67 L226.91,480.72 L226.93,480.77 L226.96,480.82 L226.98,480.87 L227.01,480.92 L227.04,480.97 L227.07,481.01 L227.1,481.06 L227.14,481.1 L227.18,481.15 L227.22,481.19 L227.26,481.23 L227.3,481.26 L227.35,481.29 L227.4,481.32 L227.42,481.33 L227.45,481.35 L227.47,481.36 L227.5,481.37 L227.53,481.38 L227.56,481.38 L227.59,481.39 L227.61,481.4 L227.65,481.4 L227.68,481.4 L227.71,481.41 L227.74,481.41 C227.79,481.41,228.03,481.41,228.24,481.28 C227.96,481.23,227.76,480.98,227.76,480.74 C227.76,480.58,227.87,480.39,228.14,480.39 C228.36,480.39,228.68,480.57,228.68,480.97 C228.68,481.49,228.09,481.63,227.75,481.63 C227.17,481.63,226.82,481.1,226.71,480.87 C226.46,481.53,225.92,481.63,225.63,481.63 C224.6,481.63,224.03,480.34,224.03,480.1 C224.03,480,224.13,480,224.15,480 C224.23,480,224.26,480.02,224.28,480.11 C224.62,481.16,225.27,481.41,225.61,481.41 C225.8,481.41,226.15,481.32,226.15,480.74 C226.15,480.43,225.98,479.77,225.61,478.38 C225.45,477.76,225.1,477.34,224.67,477.34 C224.61,477.34,224.38,477.34,224.17,477.47 C224.42,477.52,224.64,477.73,224.64,478.01 C224.64,478.28,224.42,478.36,224.27,478.36 C223.97,478.36,223.72,478.1,223.72,477.78 C223.72,477.32,224.22,477.13,224.66,477.13 C225.31,477.13,225.67,477.82,225.7,477.88 C225.82,477.51,226.18,477.13,226.77,477.13 C227.8,477.13,228.37,478.41,228.37,478.66 C228.37,478.76,228.28,478.76,228.25,478.76 C228.16,478.76,228.14,478.71,228.12,478.65 C227.79,477.58,227.11,477.34,226.79,477.34 C226.41,477.34,226.25,477.66,226.25,478 C226.25,478.22,226.31,478.44,226.42,478.87 Z " /></g>        <path
           id="path8583"
           inkscape:label="Yaxis"
           style="stroke-linejoin:round;marker-end:url(#ArrowAxisEnd);stroke:#4C4C4C;stroke-linecap:round;stroke-dasharray:none;stroke-width:0.285714285714;fill:none"
           d="M  -20.0 0.0 -20.0 -37.5" />
        <g
           transform="translate(-18.750000 -37.500000) translate(-82.736578 179.537486) scale(0.369822 -0.369822)  "
           ns0:preamble="/home/fernando/.config/inkscape/extensions/textextLib/basicLatexPackages.tex"
           ns0:text=" $y(x)=x^2$"
           text-anchor="start"
           word-spacing="normal"
           letter-spacing="normal"
           font-size-adjust="none"
           font-stretch="normal"
           font-weight="normal"
           font-variant="normal"
           font-style="normal"
           fill-opacity="1"
           fill-rule="evenodd"
           fill="none"
           stroke-opacity="1"
           stroke-dashoffset="0"
           stroke-dasharray="none"
           stroke-miterlimit="10.433"
           stroke-linejoin="miter"
           stroke-linecap="butt"
           stroke="black"
           xml:space="preserve"
           id="g8585"><path
             id="path8587"
             style="fill:#000000;stroke-width:0"
             fill="black"
             stroke-width="0"
             d="M228.27,481.02 L228.27,481.03 L228.27,481.03 L228.27,481.04 L228.27,481.04 L228.28,481.06 L228.28,481.07 L228.28,481.08 L228.29,481.09 L228.29,481.1 L228.29,481.1 L228.29,481.11 L228.29,481.12 L228.3,481.13 L228.3,481.14 L228.3,481.14 L228.3,481.15 L228.3,481.15 L228.3,481.16 L228.3,481.17 L228.3,481.17 L228.3,481.18 L228.3,481.18 L228.31,481.19 L228.31,481.2 L228.31,481.21 L228.31,481.22 L228.31,481.23 L228.31,481.24 L228.31,481.24 L228.31,481.25 C228.31,481.43,228.17,481.52,228.02,481.52 C227.92,481.52,227.76,481.46,227.67,481.31 C227.65,481.26,227.57,480.95,227.53,480.77 C227.46,480.51,227.39,480.24,227.33,479.98 L226.88,478.19 C226.85,478.04,226.42,477.34,225.76,477.34 C225.25,477.34,225.14,477.78,225.14,478.15 C225.14,478.61,225.31,479.22,225.65,480.1 C225.81,480.5,225.85,480.61,225.85,480.81 C225.85,481.26,225.53,481.63,225.03,481.63 C224.09,481.63,223.72,480.18,223.72,480.1 C223.72,480,223.82,480,223.84,480 C223.94,480,223.95,480.02,224,480.17 C224.27,481.11,224.67,481.41,225,481.41 C225.08,481.41,225.25,481.41,225.25,481.09 C225.25,480.84,225.15,480.58,225.08,480.39 C224.69,479.34,224.51,478.77,224.51,478.31 C224.51,477.42,225.13,477.13,225.72,477.13 C226.11,477.13,226.45,477.3,226.73,477.57 C226.6,477.06,226.48,476.57,226.08,476.04 C225.82,475.7,225.44,475.42,224.98,475.42 C224.85,475.42,224.4,475.45,224.23,475.83 C224.39,475.83,224.52,475.83,224.66,475.95 C224.76,476.04,224.85,476.17,224.85,476.36 C224.85,476.67,224.59,476.71,224.49,476.71 C224.26,476.71,223.93,476.55,223.93,476.06 C223.93,475.57,224.37,475.2,224.98,475.2 C226.01,475.2,227.03,476.1,227.31,477.23 Z " /><path
             id="path8589"
             style="fill:#000000;stroke-width:0"
             fill="black"
             stroke-width="0"
             d="M231.97,474.85 L231.97,474.86 L231.97,474.86 L231.97,474.86 L231.97,474.87 L231.97,474.87 L231.96,474.87 L231.96,474.88 L231.96,474.88 L231.96,474.88 L231.96,474.89 L231.96,474.89 L231.95,474.9 L231.95,474.9 L231.95,474.91 L231.94,474.91 L231.94,474.92 L231.93,474.93 L231.93,474.93 L231.92,474.94 L231.92,474.94 L231.92,474.95 L231.91,474.95 L231.91,474.95 L231.9,474.96 L231.9,474.96 L231.9,474.97 L231.89,474.97 L231.89,474.98 L231.88,474.98 L231.88,474.99 L231.87,474.99 L231.87,475 L231.86,475.01 L231.85,475.01 L231.85,475.02 L231.84,475.03 L231.83,475.03 L231.83,475.04 L231.82,475.05 L231.81,475.05 L231.81,475.06 L231.8,475.07 C230.55,476.32,230.24,478.2,230.24,479.72 C230.24,481.45,230.61,483.17,231.84,484.42 C231.97,484.54,231.97,484.56,231.97,484.59 C231.97,484.66,231.93,484.68,231.87,484.68 C231.77,484.68,230.87,484.01,230.29,482.75 C229.78,481.66,229.66,480.55,229.66,479.72 C229.66,478.94,229.77,477.74,230.32,476.62 C230.91,475.4,231.77,474.75,231.87,474.75 C231.93,474.75,231.97,474.78,231.97,474.85 Z " /><path
             id="path8591"
             style="fill:#000000;stroke-width:0"
             fill="black"
             stroke-width="0"
             d="M235.87,480.23 L235.88,480.26 L235.88,480.29 L235.89,480.32 L235.9,480.36 L235.91,480.4 L235.92,480.44 L235.94,480.48 L235.95,480.53 L235.97,480.57 L235.99,480.62 L236,480.67 L236.03,480.72 L236.05,480.77 L236.07,480.82 L236.1,480.87 L236.13,480.92 L236.15,480.97 L236.19,481.01 L236.22,481.06 L236.25,481.1 L236.29,481.15 L236.33,481.19 L236.37,481.23 L236.42,481.26 L236.46,481.29 L236.51,481.32 L236.54,481.33 L236.56,481.35 L236.59,481.36 L236.62,481.37 L236.64,481.38 L236.67,481.38 L236.7,481.39 L236.73,481.4 L236.76,481.4 L236.79,481.4 L236.82,481.41 L236.86,481.41 C236.91,481.41,237.15,481.41,237.35,481.28 C237.07,481.23,236.88,480.98,236.88,480.74 C236.88,480.58,236.99,480.39,237.25,480.39 C237.47,480.39,237.79,480.57,237.79,480.97 C237.79,481.49,237.2,481.63,236.87,481.63 C236.29,481.63,235.94,481.1,235.82,480.87 C235.57,481.53,235.04,481.63,234.75,481.63 C233.71,481.63,233.15,480.34,233.15,480.1 C233.15,480,233.24,480,233.26,480 C233.34,480,233.37,480.02,233.39,480.11 C233.73,481.16,234.39,481.41,234.73,481.41 C234.92,481.41,235.26,481.32,235.26,480.74 C235.26,480.43,235.1,479.77,234.73,478.38 C234.57,477.76,234.22,477.34,233.78,477.34 C233.72,477.34,233.49,477.34,233.28,477.47 C233.53,477.52,233.75,477.73,233.75,478.01 C233.75,478.28,233.53,478.36,233.38,478.36 C233.09,478.36,232.84,478.1,232.84,477.78 C232.84,477.32,233.33,477.13,233.77,477.13 C234.43,477.13,234.79,477.82,234.82,477.88 C234.94,477.51,235.29,477.13,235.89,477.13 C236.92,477.13,237.48,478.41,237.48,478.66 C237.48,478.76,237.39,478.76,237.36,478.76 C237.27,478.76,237.25,478.71,237.23,478.65 C236.91,477.58,236.23,477.34,235.91,477.34 C235.52,477.34,235.36,477.66,235.36,478 C235.36,478.22,235.42,478.44,235.53,478.87 Z " /><path
             id="path8593"
             style="fill:#000000;stroke-width:0"
             fill="black"
             stroke-width="0"
             d="M241.12,479.72 L241.12,479.79 L241.12,479.87 L241.11,479.95 L241.11,480.03 L241.1,480.2 L241.09,480.37 L241.08,480.55 L241.05,480.74 L241.03,480.94 L240.99,481.14 L240.95,481.34 L240.91,481.55 L240.86,481.76 L240.79,481.97 L240.72,482.18 L240.65,482.39 L240.6,482.5 L240.56,482.61 L240.51,482.71 L240.46,482.82 C239.86,484.04,239.01,484.68,238.91,484.68 C238.85,484.68,238.81,484.65,238.81,484.59 C238.81,484.56,238.81,484.54,239,484.36 C239.97,483.37,240.54,481.8,240.54,479.72 C240.54,478.02,240.17,476.27,238.94,475.02 C238.81,474.9,238.81,474.88,238.81,474.85 C238.81,474.79,238.85,474.75,238.91,474.75 C239.01,474.75,239.9,475.43,240.49,476.69 C241,477.78,241.12,478.88,241.12,479.72 Z " /><path
             id="path8595"
             style="fill:#000000;stroke-width:0"
             fill="black"
             stroke-width="0"
             d="M251.72,480.48 L251.75,480.48 L251.78,480.48 L251.81,480.48 L251.82,480.49 L251.84,480.49 L251.85,480.49 L251.87,480.49 L251.88,480.49 L251.89,480.49 L251.91,480.5 L251.92,480.5 L251.93,480.5 L251.95,480.51 L251.96,480.51 L251.97,480.52 L251.98,480.52 L251.99,480.53 L252,480.54 L252.01,480.55 L252.02,480.56 L252.03,480.57 L252.03,480.57 L252.03,480.58 L252.04,480.58 L252.04,480.59 L252.04,480.6 L252.05,480.6 L252.05,480.61 L252.05,480.62 L252.05,480.62 L252.05,480.63 L252.06,480.64 L252.06,480.65 L252.06,480.66 L252.06,480.66 L252.06,480.67 L252.06,480.68 C252.06,480.88,251.87,480.88,251.73,480.88 H245.77 C245.63,480.88,245.44,480.88,245.44,480.68 C245.44,480.48,245.63,480.48,245.78,480.48 Z " /><path
             id="path8597"
             style="fill:#000000;stroke-width:0"
             fill="black"
             stroke-width="0"
             d="M251.73,478.56 L251.74,478.56 L251.76,478.56 L251.79,478.56 L251.81,478.56 L251.83,478.56 L251.84,478.56 L251.85,478.56 L251.87,478.56 L251.88,478.56 L251.9,478.57 L251.91,478.57 L251.92,478.57 L251.93,478.58 L251.95,478.58 L251.96,478.59 L251.97,478.59 L251.98,478.6 L251.99,478.6 L252,478.61 L252.01,478.62 L252.02,478.63 L252.02,478.63 L252.03,478.64 L252.03,478.65 L252.03,478.65 L252.04,478.66 L252.04,478.66 L252.04,478.67 L252.05,478.68 L252.05,478.68 L252.05,478.69 L252.05,478.7 L252.05,478.7 L252.06,478.71 L252.06,478.72 L252.06,478.73 L252.06,478.74 L252.06,478.75 L252.06,478.76 C252.06,478.95,251.87,478.95,251.72,478.95 H245.78 C245.63,478.95,245.44,478.95,245.44,478.76 C245.44,478.56,245.63,478.56,245.77,478.56 Z " /><path
             id="path8599"
             style="fill:#000000;stroke-width:0"
             fill="black"
             stroke-width="0"
             d="M258.72,480.23 L258.73,480.26 L258.74,480.29 L258.74,480.32 L258.75,480.36 L258.76,480.4 L258.78,480.44 L258.79,480.48 L258.8,480.53 L258.82,480.57 L258.84,480.62 L258.86,480.67 L258.88,480.72 L258.9,480.77 L258.92,480.82 L258.95,480.87 L258.98,480.92 L259.01,480.97 L259.04,481.01 L259.07,481.06 L259.11,481.1 L259.14,481.15 L259.18,481.19 L259.22,481.23 L259.27,481.26 L259.32,481.29 L259.36,481.32 L259.39,481.33 L259.41,481.35 L259.44,481.36 L259.47,481.37 L259.5,481.38 L259.52,481.38 L259.55,481.39 L259.58,481.4 L259.61,481.4 L259.64,481.4 L259.68,481.41 L259.71,481.41 C259.76,481.41,260,481.41,260.21,481.28 C259.93,481.23,259.73,480.98,259.73,480.74 C259.73,480.58,259.84,480.39,260.11,480.39 C260.33,480.39,260.64,480.57,260.64,480.97 C260.64,481.49,260.06,481.63,259.72,481.63 C259.14,481.63,258.79,481.1,258.67,480.87 C258.42,481.53,257.89,481.63,257.6,481.63 C256.56,481.63,256,480.34,256,480.1 C256,480,256.1,480,256.12,480 C256.2,480,256.23,480.02,256.25,480.11 C256.58,481.16,257.24,481.41,257.58,481.41 C257.77,481.41,258.12,481.32,258.12,480.74 C258.12,480.43,257.95,479.77,257.58,478.38 C257.42,477.76,257.07,477.34,256.63,477.34 C256.57,477.34,256.35,477.34,256.14,477.47 C256.39,477.52,256.6,477.73,256.6,478.01 C256.6,478.28,256.39,478.36,256.24,478.36 C255.94,478.36,255.69,478.1,255.69,477.78 C255.69,477.32,256.19,477.13,256.62,477.13 C257.28,477.13,257.64,477.82,257.67,477.88 C257.79,477.51,258.15,477.13,258.74,477.13 C259.77,477.13,260.33,478.41,260.33,478.66 C260.33,478.76,260.24,478.76,260.21,478.76 C260.13,478.76,260.11,478.71,260.09,478.65 C259.76,477.58,259.08,477.34,258.76,477.34 C258.38,477.34,258.22,477.66,258.22,478 C258.22,478.22,258.27,478.44,258.39,478.87 Z " /><path
             id="path8601"
             style="fill:#000000;stroke-width:0"
             fill="black"
             stroke-width="0"
             d="M264.61,482.12 H264.37 C264.35,481.96,264.28,481.55,264.19,481.48 C264.14,481.44,263.6,481.44,263.5,481.44 H262.22 C262.95,482.09,263.2,482.28,263.61,482.61 C264.13,483.02,264.61,483.45,264.61,484.11 C264.61,484.95,263.87,485.47,262.98,485.47 C262.12,485.47,261.53,484.86,261.53,484.22 C261.53,483.87,261.83,483.83,261.9,483.83 C262.07,483.83,262.27,483.95,262.27,484.2 C262.27,484.33,262.22,484.57,261.86,484.57 C262.08,485.07,262.55,485.22,262.88,485.22 C263.57,485.22,263.93,484.68,263.93,484.11 C263.93,483.51,263.5,483.03,263.28,482.78 L261.6,481.12 C261.53,481.06,261.53,481.05,261.53,480.85 H264.4 Z " /></g>      </g>
    </g>
    <path
       id="path8603"
       inkscape:label="none"
       style="stroke-linejoin:round;stroke:#0000FF;stroke-linecap:round;stroke-dasharray:none;stroke-width:0.333333333333;fill:none"
       d="M  306.020600043 529.992 306.376230291 529.991317335 306.73186054 529.990576417 307.087490789 529.989772274 307.443121038 529.988899511 307.798751287 529.987952273 308.154381535 529.986924204 308.510011784 529.985808406 308.865642033 529.984597394 309.221272282 529.983283043 309.576902531 529.981856534 309.932532779 529.980308297 310.288163028 529.978627944 310.643793277 529.976804202 310.999423526 529.974824834 311.355053774 529.97267656 311.710684023 529.970344968 312.066314272 529.967814414 312.421944521 529.96506792 312.77757477 529.962087059 313.133205018 529.958851833 313.488835267 529.955340534 313.844465516 529.951529606 314.200095765 529.94739348 314.555726013 529.942904406 314.911356262 529.938032265 315.266986511 529.93274437 315.62261676 529.927005242 315.978247009 529.920776378 316.333877257 529.914015985 316.689507506 529.906678707 317.045137755 529.898715317 317.400768004 529.890072387 317.756398253 529.88069193 318.112028501 529.870511009 318.46765875 529.85946132 318.823288999 529.847468727 319.178919248 529.834452769 319.534549496 529.82032612 319.890179745 529.804994002 320.245809994 529.788353547 320.601440243 529.770293111 320.957070492 529.750691523 321.31270074 529.729417273 321.668330989 529.706327626 322.023961238 529.681267669 322.379591487 529.654069269 322.735221735 529.624549948 323.090851984 529.592511653 323.446482233 529.557739432 323.802112482 529.519999993 324.157742731 529.479040132 324.513372979 529.434585042 324.869003228 529.386336464 325.224633477 529.333970687 325.580263726 529.27713638 325.935893975 529.215452229 326.291524223 529.148504381 326.647154472 529.075843669 327.002784721 528.996982598 327.35841497 528.911392072 327.714045218 528.818497847 328.069675467 528.717676674 328.425305716 528.608252124 328.780935965 528.489490044 329.136566214 528.360593635 329.492196462 528.220698102 329.847826711 528.068864859 330.20345696 527.904075223 330.559087209 527.725223586 330.914717457 527.531109995 331.270347706 527.320432101 331.625977955 527.091776422 331.981608204 526.843608857 332.337238453 526.574264399 332.692868701 526.28193596 333.04849895 525.964662245 333.404129199 525.6203146 333.759759448 525.246582722 334.115389697 524.840959166 334.471019945 524.400722519 334.826650194 523.922919139 335.182280443 523.404343343 335.537910692 522.841515897 335.89354094 522.230660674 336.249171189 521.567679315 336.604801438 520.848123741 336.960431687 520.067166301 337.316061936 519.219567387 337.671692184 518.299640279 338.027322433 517.301212993 338.382952682 516.217586869 338.738582931 515.041491632 339.094213179 513.76503661 339.449843428 512.379657799 339.805473677 510.8760604 340.161103926 509.244156461 340.516734175 507.472997195 340.872364423 505.550699521 341.227994672 503.464366339 341.583624921 501.2" />
  </g>
  <text
     xml:space="preserve"
     style="font-style:normal;font-variant:normal;font-weight:normal;font-stretch:normal;font-size:5px;line-height:100%;font-family:Verdana;-inkscape-font-specification:Verdana;text-align:end;letter-spacing:0px;word-spacing:0px;writing-mode:lr-tb;text-anchor:end;fill:#000000;fill-opacity:1;stroke:none;stroke-width:1px;stroke-linecap:butt;stroke-linejoin:miter;stroke-opacity:1"
     x="359.83469"
     y="493.2887"
     id="text8696"
     sodipodi:linespacing="100%"
     inkscape:export-xdpi="1136.913085938"
     inkscape:export-ydpi="1136.913085938"><tspan
       sodipodi:role="line"
       id="tspan8698"
       x="359.83469"
       y="493.2887">xMin=0.2</tspan><tspan
       sodipodi:role="line"
       x="359.83469"
       y="498.2887"
       id="tspan8700">xMax=12</tspan><tspan
       sodipodi:role="line"
       x="359.83469"
       y="503.2887"
       id="tspan8702" /></text>
</svg>
